ISO-10303-21;
HEADER;
/* Generated by software containing ST-Developer
 * from STEP Tools, Inc. (www.steptools.com) 
 */

FILE_DESCRIPTION(
/* description */ (''),
/* implementation_level */ '2;1');

FILE_NAME(
/* name */ 'CASE TOP.step',
/* time_stamp */ '2026-09-19T21:38:05+05:30',
/* author */ (''),
/* organization */ (''),
/* preprocessor_version */ 'ST-DEVELOPER v20.2',
/* originating_system */ 'Autodesk Translation Framework v15.15.0.0',
/* authorisation */ '');

FILE_SCHEMA (('AUTOMOTIVE_DESIGN { 1 0 10303 214 3 1 1 }'));
ENDSEC;

DATA;
#10=MECHANICAL_DESIGN_GEOMETRIC_PRESENTATION_REPRESENTATION('',(#13),#2244);
#11=SHAPE_REPRESENTATION_RELATIONSHIP('SRR','None',#2251,#12);
#12=ADVANCED_BREP_SHAPE_REPRESENTATION('',(#14),#2243);
#13=STYLED_ITEM('',(#2261),#14);
#14=MANIFOLD_SOLID_BREP('Main Body',#1337);
#15=SPHERICAL_SURFACE('',#1439,0.500000000000007);
#16=SPHERICAL_SURFACE('',#1445,0.500000000000007);
#17=SPHERICAL_SURFACE('',#1451,0.499999999999998);
#18=SPHERICAL_SURFACE('',#1458,0.499999999999998);
#19=ELLIPSE('',#1429,0.707106781186544,0.5);
#20=ELLIPSE('',#1430,0.707106781186548,0.5);
#21=ELLIPSE('',#1432,0.707106781186549,0.5);
#22=ELLIPSE('',#1434,0.707106781186552,0.5);
#23=LINE('',#1889,#158);
#24=LINE('',#1894,#159);
#25=LINE('',#1899,#160);
#26=LINE('',#1904,#161);
#27=LINE('',#1909,#162);
#28=LINE('',#1919,#163);
#29=LINE('',#1922,#164);
#30=LINE('',#1924,#165);
#31=LINE('',#1927,#166);
#32=LINE('',#1929,#167);
#33=LINE('',#1931,#168);
#34=LINE('',#1932,#169);
#35=LINE('',#1936,#170);
#36=LINE('',#1938,#171);
#37=LINE('',#1940,#172);
#38=LINE('',#1941,#173);
#39=LINE('',#1952,#174);
#40=LINE('',#1954,#175);
#41=LINE('',#1955,#176);
#42=LINE('',#1957,#177);
#43=LINE('',#1959,#178);
#44=LINE('',#1961,#179);
#45=LINE('',#1963,#180);
#46=LINE('',#1965,#181);
#47=LINE('',#1967,#182);
#48=LINE('',#1969,#183);
#49=LINE('',#1971,#184);
#50=LINE('',#1972,#185);
#51=LINE('',#1974,#186);
#52=LINE('',#1977,#187);
#53=LINE('',#1978,#188);
#54=LINE('',#1980,#189);
#55=LINE('',#1981,#190);
#56=LINE('',#1983,#191);
#57=LINE('',#1986,#192);
#58=LINE('',#1991,#193);
#59=LINE('',#1993,#194);
#60=LINE('',#1995,#195);
#61=LINE('',#1996,#196);
#62=LINE('',#1999,#197);
#63=LINE('',#2001,#198);
#64=LINE('',#2002,#199);
#65=LINE('',#2005,#200);
#66=LINE('',#2007,#201);
#67=LINE('',#2008,#202);
#68=LINE('',#2012,#203);
#69=LINE('',#2014,#204);
#70=LINE('',#2016,#205);
#71=LINE('',#2018,#206);
#72=LINE('',#2020,#207);
#73=LINE('',#2022,#208);
#74=LINE('',#2024,#209);
#75=LINE('',#2025,#210);
#76=LINE('',#2026,#211);
#77=LINE('',#2028,#212);
#78=LINE('',#2029,#213);
#79=LINE('',#2031,#214);
#80=LINE('',#2032,#215);
#81=LINE('',#2035,#216);
#82=LINE('',#2037,#217);
#83=LINE('',#2038,#218);
#84=LINE('',#2041,#219);
#85=LINE('',#2042,#220);
#86=LINE('',#2045,#221);
#87=LINE('',#2047,#222);
#88=LINE('',#2048,#223);
#89=LINE('',#2050,#224);
#90=LINE('',#2052,#225);
#91=LINE('',#2053,#226);
#92=LINE('',#2055,#227);
#93=LINE('',#2057,#228);
#94=LINE('',#2059,#229);
#95=LINE('',#2061,#230);
#96=LINE('',#2063,#231);
#97=LINE('',#2065,#232);
#98=LINE('',#2067,#233);
#99=LINE('',#2068,#234);
#100=LINE('',#2070,#235);
#101=LINE('',#2071,#236);
#102=LINE('',#2074,#237);
#103=LINE('',#2076,#238);
#104=LINE('',#2078,#239);
#105=LINE('',#2080,#240);
#106=LINE('',#2081,#241);
#107=LINE('',#2083,#242);
#108=LINE('',#2085,#243);
#109=LINE('',#2088,#244);
#110=LINE('',#2091,#245);
#111=LINE('',#2092,#246);
#112=LINE('',#2095,#247);
#113=LINE('',#2097,#248);
#114=LINE('',#2100,#249);
#115=LINE('',#2104,#250);
#116=LINE('',#2105,#251);
#117=LINE('',#2108,#252);
#118=LINE('',#2112,#253);
#119=LINE('',#2118,#254);
#120=LINE('',#2123,#255);
#121=LINE('',#2128,#256);
#122=LINE('',#2131,#257);
#123=LINE('',#2135,#258);
#124=LINE('',#2139,#259);
#125=LINE('',#2141,#260);
#126=LINE('',#2144,#261);
#127=LINE('',#2145,#262);
#128=LINE('',#2147,#263);
#129=LINE('',#2148,#264);
#130=LINE('',#2153,#265);
#131=LINE('',#2155,#266);
#132=LINE('',#2157,#267);
#133=LINE('',#2158,#268);
#134=LINE('',#2169,#269);
#135=LINE('',#2170,#270);
#136=LINE('',#2181,#271);
#137=LINE('',#2182,#272);
#138=LINE('',#2193,#273);
#139=LINE('',#2194,#274);
#140=LINE('',#2196,#275);
#141=LINE('',#2207,#276);
#142=LINE('',#2208,#277);
#143=LINE('',#2210,#278);
#144=LINE('',#2212,#279);
#145=LINE('',#2214,#280);
#146=LINE('',#2216,#281);
#147=LINE('',#2218,#282);
#148=LINE('',#2222,#283);
#149=LINE('',#2224,#284);
#150=LINE('',#2225,#285);
#151=LINE('',#2228,#286);
#152=LINE('',#2229,#287);
#153=LINE('',#2232,#288);
#154=LINE('',#2233,#289);
#155=LINE('',#2235,#290);
#156=LINE('',#2237,#291);
#157=LINE('',#2239,#292);
#158=VECTOR('',#1505,1.6);
#159=VECTOR('',#1512,1.6);
#160=VECTOR('',#1519,1.6);
#161=VECTOR('',#1526,1.6);
#162=VECTOR('',#1531,10.);
#163=VECTOR('',#1544,2.34999999999999);
#164=VECTOR('',#1547,3.5);
#165=VECTOR('',#1548,10.);
#166=VECTOR('',#1553,10.);
#167=VECTOR('',#1554,10.);
#168=VECTOR('',#1555,10.);
#169=VECTOR('',#1556,10.);
#170=VECTOR('',#1559,10.);
#171=VECTOR('',#1560,10.);
#172=VECTOR('',#1561,10.);
#173=VECTOR('',#1562,10.);
#174=VECTOR('',#1571,10.);
#175=VECTOR('',#1572,10.);
#176=VECTOR('',#1573,10.);
#177=VECTOR('',#1574,10.);
#178=VECTOR('',#1575,10.);
#179=VECTOR('',#1576,10.);
#180=VECTOR('',#1577,10.);
#181=VECTOR('',#1578,10.);
#182=VECTOR('',#1579,10.);
#183=VECTOR('',#1580,10.);
#184=VECTOR('',#1581,10.);
#185=VECTOR('',#1582,10.);
#186=VECTOR('',#1585,2.35);
#187=VECTOR('',#1588,10.);
#188=VECTOR('',#1589,10.);
#189=VECTOR('',#1590,10.);
#190=VECTOR('',#1591,10.);
#191=VECTOR('',#1594,10.);
#192=VECTOR('',#1597,10.);
#193=VECTOR('',#1602,10.);
#194=VECTOR('',#1603,10.);
#195=VECTOR('',#1604,10.);
#196=VECTOR('',#1605,10.);
#197=VECTOR('',#1608,10.);
#198=VECTOR('',#1609,10.);
#199=VECTOR('',#1610,10.);
#200=VECTOR('',#1613,10.);
#201=VECTOR('',#1614,10.);
#202=VECTOR('',#1615,10.);
#203=VECTOR('',#1618,10.);
#204=VECTOR('',#1619,10.);
#205=VECTOR('',#1620,10.);
#206=VECTOR('',#1621,10.);
#207=VECTOR('',#1622,10.);
#208=VECTOR('',#1623,10.);
#209=VECTOR('',#1624,10.);
#210=VECTOR('',#1625,10.);
#211=VECTOR('',#1626,10.);
#212=VECTOR('',#1629,10.);
#213=VECTOR('',#1630,10.);
#214=VECTOR('',#1633,10.);
#215=VECTOR('',#1634,10.);
#216=VECTOR('',#1637,10.);
#217=VECTOR('',#1638,10.);
#218=VECTOR('',#1639,10.);
#219=VECTOR('',#1642,10.);
#220=VECTOR('',#1643,10.);
#221=VECTOR('',#1646,10.);
#222=VECTOR('',#1647,10.);
#223=VECTOR('',#1648,10.);
#224=VECTOR('',#1649,10.);
#225=VECTOR('',#1650,10.);
#226=VECTOR('',#1651,10.);
#227=VECTOR('',#1652,10.);
#228=VECTOR('',#1653,10.);
#229=VECTOR('',#1654,10.);
#230=VECTOR('',#1655,10.);
#231=VECTOR('',#1656,10.);
#232=VECTOR('',#1657,10.);
#233=VECTOR('',#1658,10.);
#234=VECTOR('',#1659,10.);
#235=VECTOR('',#1662,10.);
#236=VECTOR('',#1663,10.);
#237=VECTOR('',#1666,10.);
#238=VECTOR('',#1667,10.);
#239=VECTOR('',#1668,10.);
#240=VECTOR('',#1669,10.);
#241=VECTOR('',#1670,10.);
#242=VECTOR('',#1673,10.);
#243=VECTOR('',#1676,10.);
#244=VECTOR('',#1681,10.);
#245=VECTOR('',#1684,10.);
#246=VECTOR('',#1685,10.);
#247=VECTOR('',#1690,10.);
#248=VECTOR('',#1693,10.);
#249=VECTOR('',#1698,10.);
#250=VECTOR('',#1703,10.);
#251=VECTOR('',#1704,10.);
#252=VECTOR('',#1707,2.34999999999999);
#253=VECTOR('',#1712,2.35);
#254=VECTOR('',#1721,3.5);
#255=VECTOR('',#1728,3.5);
#256=VECTOR('',#1733,10.);
#257=VECTOR('',#1736,10.);
#258=VECTOR('',#1741,10.);
#259=VECTOR('',#1746,10.);
#260=VECTOR('',#1747,10.);
#261=VECTOR('',#1752,10.);
#262=VECTOR('',#1753,10.);
#263=VECTOR('',#1756,10.);
#264=VECTOR('',#1757,10.);
#265=VECTOR('',#1762,10.);
#266=VECTOR('',#1763,10.);
#267=VECTOR('',#1764,10.);
#268=VECTOR('',#1765,10.);
#269=VECTOR('',#1778,10.);
#270=VECTOR('',#1779,10.);
#271=VECTOR('',#1792,10.);
#272=VECTOR('',#1793,10.);
#273=VECTOR('',#1806,10.);
#274=VECTOR('',#1807,10.);
#275=VECTOR('',#1810,10.);
#276=VECTOR('',#1823,10.);
#277=VECTOR('',#1824,10.);
#278=VECTOR('',#1827,10.);
#279=VECTOR('',#1830,10.);
#280=VECTOR('',#1833,10.);
#281=VECTOR('',#1836,10.);
#282=VECTOR('',#1839,10.);
#283=VECTOR('',#1844,10.);
#284=VECTOR('',#1845,10.);
#285=VECTOR('',#1846,10.);
#286=VECTOR('',#1849,10.);
#287=VECTOR('',#1850,10.);
#288=VECTOR('',#1853,10.);
#289=VECTOR('',#1854,10.);
#290=VECTOR('',#1857,10.);
#291=VECTOR('',#1860,10.);
#292=VECTOR('',#1863,10.);
#293=CYLINDRICAL_SURFACE('',#1363,1.6);
#294=CYLINDRICAL_SURFACE('',#1365,1.6);
#295=CYLINDRICAL_SURFACE('',#1368,1.6);
#296=CYLINDRICAL_SURFACE('',#1371,1.6);
#297=CYLINDRICAL_SURFACE('',#1380,2.34999999999999);
#298=CYLINDRICAL_SURFACE('',#1381,3.5);
#299=CYLINDRICAL_SURFACE('',#1389,2.35);
#300=CYLINDRICAL_SURFACE('',#1390,3.5);
#301=CYLINDRICAL_SURFACE('',#1392,3.5);
#302=CYLINDRICAL_SURFACE('',#1417,2.34999999999999);
#303=CYLINDRICAL_SURFACE('',#1419,2.35);
#304=CYLINDRICAL_SURFACE('',#1422,3.5);
#305=CYLINDRICAL_SURFACE('',#1425,3.5);
#306=CYLINDRICAL_SURFACE('',#1428,0.5);
#307=CYLINDRICAL_SURFACE('',#1431,0.5);
#308=CYLINDRICAL_SURFACE('',#1433,0.5);
#309=CYLINDRICAL_SURFACE('',#1435,0.5);
#310=CYLINDRICAL_SURFACE('',#1443,0.5);
#311=CYLINDRICAL_SURFACE('',#1449,0.5);
#312=CYLINDRICAL_SURFACE('',#1455,0.5);
#313=CYLINDRICAL_SURFACE('',#1457,0.5);
#314=CYLINDRICAL_SURFACE('',#1462,0.5);
#315=CYLINDRICAL_SURFACE('',#1464,0.5);
#316=CYLINDRICAL_SURFACE('',#1465,0.5);
#317=CYLINDRICAL_SURFACE('',#1466,0.5);
#318=FACE_BOUND('',#414,.T.);
#319=FACE_BOUND('',#416,.T.);
#320=FACE_BOUND('',#418,.T.);
#321=FACE_BOUND('',#420,.T.);
#322=FACE_BOUND('',#429,.T.);
#323=FACE_BOUND('',#431,.T.);
#324=FACE_BOUND('',#436,.T.);
#325=FACE_BOUND('',#437,.T.);
#326=FACE_BOUND('',#438,.T.);
#327=FACE_BOUND('',#447,.T.);
#328=FACE_BOUND('',#472,.T.);
#329=FACE_BOUND('',#475,.T.);
#330=FACE_BOUND('',#483,.T.);
#331=FACE_BOUND('',#484,.T.);
#332=FACE_BOUND('',#507,.T.);
#333=FACE_OUTER_BOUND('',#413,.T.);
#334=FACE_OUTER_BOUND('',#415,.T.);
#335=FACE_OUTER_BOUND('',#417,.T.);
#336=FACE_OUTER_BOUND('',#419,.T.);
#337=FACE_OUTER_BOUND('',#421,.T.);
#338=FACE_OUTER_BOUND('',#422,.T.);
#339=FACE_OUTER_BOUND('',#423,.T.);
#340=FACE_OUTER_BOUND('',#424,.T.);
#341=FACE_OUTER_BOUND('',#425,.T.);
#342=FACE_OUTER_BOUND('',#426,.T.);
#343=FACE_OUTER_BOUND('',#427,.T.);
#344=FACE_OUTER_BOUND('',#428,.T.);
#345=FACE_OUTER_BOUND('',#430,.T.);
#346=FACE_OUTER_BOUND('',#432,.T.);
#347=FACE_OUTER_BOUND('',#433,.T.);
#348=FACE_OUTER_BOUND('',#434,.T.);
#349=FACE_OUTER_BOUND('',#435,.T.);
#350=FACE_OUTER_BOUND('',#439,.T.);
#351=FACE_OUTER_BOUND('',#440,.T.);
#352=FACE_OUTER_BOUND('',#441,.T.);
#353=FACE_OUTER_BOUND('',#442,.T.);
#354=FACE_OUTER_BOUND('',#443,.T.);
#355=FACE_OUTER_BOUND('',#444,.T.);
#356=FACE_OUTER_BOUND('',#445,.T.);
#357=FACE_OUTER_BOUND('',#446,.T.);
#358=FACE_OUTER_BOUND('',#448,.T.);
#359=FACE_OUTER_BOUND('',#449,.T.);
#360=FACE_OUTER_BOUND('',#450,.T.);
#361=FACE_OUTER_BOUND('',#451,.T.);
#362=FACE_OUTER_BOUND('',#452,.T.);
#363=FACE_OUTER_BOUND('',#453,.T.);
#364=FACE_OUTER_BOUND('',#454,.T.);
#365=FACE_OUTER_BOUND('',#455,.T.);
#366=FACE_OUTER_BOUND('',#456,.T.);
#367=FACE_OUTER_BOUND('',#457,.T.);
#368=FACE_OUTER_BOUND('',#458,.T.);
#369=FACE_OUTER_BOUND('',#459,.T.);
#370=FACE_OUTER_BOUND('',#460,.T.);
#371=FACE_OUTER_BOUND('',#461,.T.);
#372=FACE_OUTER_BOUND('',#462,.T.);
#373=FACE_OUTER_BOUND('',#463,.T.);
#374=FACE_OUTER_BOUND('',#464,.T.);
#375=FACE_OUTER_BOUND('',#465,.T.);
#376=FACE_OUTER_BOUND('',#466,.T.);
#377=FACE_OUTER_BOUND('',#467,.T.);
#378=FACE_OUTER_BOUND('',#468,.T.);
#379=FACE_OUTER_BOUND('',#469,.T.);
#380=FACE_OUTER_BOUND('',#470,.T.);
#381=FACE_OUTER_BOUND('',#471,.T.);
#382=FACE_OUTER_BOUND('',#473,.T.);
#383=FACE_OUTER_BOUND('',#474,.T.);
#384=FACE_OUTER_BOUND('',#476,.T.);
#385=FACE_OUTER_BOUND('',#477,.T.);
#386=FACE_OUTER_BOUND('',#478,.T.);
#387=FACE_OUTER_BOUND('',#479,.T.);
#388=FACE_OUTER_BOUND('',#480,.T.);
#389=FACE_OUTER_BOUND('',#481,.T.);
#390=FACE_OUTER_BOUND('',#482,.T.);
#391=FACE_OUTER_BOUND('',#485,.T.);
#392=FACE_OUTER_BOUND('',#486,.T.);
#393=FACE_OUTER_BOUND('',#487,.T.);
#394=FACE_OUTER_BOUND('',#488,.T.);
#395=FACE_OUTER_BOUND('',#489,.T.);
#396=FACE_OUTER_BOUND('',#490,.T.);
#397=FACE_OUTER_BOUND('',#491,.T.);
#398=FACE_OUTER_BOUND('',#492,.T.);
#399=FACE_OUTER_BOUND('',#493,.T.);
#400=FACE_OUTER_BOUND('',#494,.T.);
#401=FACE_OUTER_BOUND('',#495,.T.);
#402=FACE_OUTER_BOUND('',#496,.T.);
#403=FACE_OUTER_BOUND('',#497,.T.);
#404=FACE_OUTER_BOUND('',#498,.T.);
#405=FACE_OUTER_BOUND('',#499,.T.);
#406=FACE_OUTER_BOUND('',#500,.T.);
#407=FACE_OUTER_BOUND('',#501,.T.);
#408=FACE_OUTER_BOUND('',#502,.T.);
#409=FACE_OUTER_BOUND('',#503,.T.);
#410=FACE_OUTER_BOUND('',#504,.T.);
#411=FACE_OUTER_BOUND('',#505,.T.);
#412=FACE_OUTER_BOUND('',#506,.T.);
#413=EDGE_LOOP('',(#844));
#414=EDGE_LOOP('',(#845));
#415=EDGE_LOOP('',(#846));
#416=EDGE_LOOP('',(#847));
#417=EDGE_LOOP('',(#848));
#418=EDGE_LOOP('',(#849));
#419=EDGE_LOOP('',(#850));
#420=EDGE_LOOP('',(#851));
#421=EDGE_LOOP('',(#852,#853,#854,#855));
#422=EDGE_LOOP('',(#856,#857,#858,#859));
#423=EDGE_LOOP('',(#860));
#424=EDGE_LOOP('',(#861,#862,#863,#864));
#425=EDGE_LOOP('',(#865));
#426=EDGE_LOOP('',(#866,#867,#868,#869));
#427=EDGE_LOOP('',(#870));
#428=EDGE_LOOP('',(#871,#872));
#429=EDGE_LOOP('',(#873));
#430=EDGE_LOOP('',(#874));
#431=EDGE_LOOP('',(#875));
#432=EDGE_LOOP('',(#876,#877,#878,#879));
#433=EDGE_LOOP('',(#880,#881,#882,#883,#884,#885));
#434=EDGE_LOOP('',(#886,#887,#888,#889));
#435=EDGE_LOOP('',(#890,#891,#892,#893));
#436=EDGE_LOOP('',(#894));
#437=EDGE_LOOP('',(#895));
#438=EDGE_LOOP('',(#896,#897,#898,#899,#900,#901,#902,#903,#904,#905,#906,
#907,#908,#909,#910,#911));
#439=EDGE_LOOP('',(#912,#913,#914,#915));
#440=EDGE_LOOP('',(#916,#917,#918,#919,#920,#921));
#441=EDGE_LOOP('',(#922,#923,#924,#925));
#442=EDGE_LOOP('',(#926,#927,#928,#929));
#443=EDGE_LOOP('',(#930,#931,#932,#933));
#444=EDGE_LOOP('',(#934,#935,#936,#937));
#445=EDGE_LOOP('',(#938,#939,#940,#941));
#446=EDGE_LOOP('',(#942,#943,#944,#945,#946,#947,#948,#949));
#447=EDGE_LOOP('',(#950,#951,#952,#953));
#448=EDGE_LOOP('',(#954,#955,#956,#957));
#449=EDGE_LOOP('',(#958,#959,#960,#961));
#450=EDGE_LOOP('',(#962,#963,#964,#965,#966,#967));
#451=EDGE_LOOP('',(#968,#969,#970,#971));
#452=EDGE_LOOP('',(#972,#973,#974,#975,#976,#977,#978,#979,#980,#981,#982,
#983,#984,#985,#986,#987,#988,#989,#990));
#453=EDGE_LOOP('',(#991,#992,#993,#994));
#454=EDGE_LOOP('',(#995,#996,#997,#998,#999,#1000,#1001,#1002,#1003,#1004));
#455=EDGE_LOOP('',(#1005,#1006,#1007,#1008,#1009,#1010));
#456=EDGE_LOOP('',(#1011,#1012,#1013,#1014));
#457=EDGE_LOOP('',(#1015,#1016,#1017,#1018));
#458=EDGE_LOOP('',(#1019,#1020,#1021,#1022));
#459=EDGE_LOOP('',(#1023,#1024,#1025,#1026));
#460=EDGE_LOOP('',(#1027,#1028,#1029,#1030));
#461=EDGE_LOOP('',(#1031,#1032,#1033,#1034));
#462=EDGE_LOOP('',(#1035,#1036,#1037,#1038));
#463=EDGE_LOOP('',(#1039,#1040,#1041,#1042));
#464=EDGE_LOOP('',(#1043,#1044,#1045,#1046));
#465=EDGE_LOOP('',(#1047,#1048,#1049,#1050));
#466=EDGE_LOOP('',(#1051,#1052,#1053,#1054));
#467=EDGE_LOOP('',(#1055,#1056,#1057,#1058));
#468=EDGE_LOOP('',(#1059,#1060,#1061,#1062));
#469=EDGE_LOOP('',(#1063));
#470=EDGE_LOOP('',(#1064,#1065,#1066,#1067));
#471=EDGE_LOOP('',(#1068));
#472=EDGE_LOOP('',(#1069));
#473=EDGE_LOOP('',(#1070,#1071,#1072,#1073));
#474=EDGE_LOOP('',(#1074));
#475=EDGE_LOOP('',(#1075));
#476=EDGE_LOOP('',(#1076,#1077,#1078,#1079));
#477=EDGE_LOOP('',(#1080,#1081,#1082,#1083));
#478=EDGE_LOOP('',(#1084,#1085,#1086,#1087));
#479=EDGE_LOOP('',(#1088,#1089,#1090,#1091));
#480=EDGE_LOOP('',(#1092,#1093,#1094,#1095,#1096,#1097));
#481=EDGE_LOOP('',(#1098,#1099,#1100,#1101));
#482=EDGE_LOOP('',(#1102,#1103,#1104,#1105));
#483=EDGE_LOOP('',(#1106,#1107,#1108,#1109));
#484=EDGE_LOOP('',(#1110,#1111,#1112,#1113));
#485=EDGE_LOOP('',(#1114,#1115,#1116));
#486=EDGE_LOOP('',(#1117,#1118,#1119,#1120));
#487=EDGE_LOOP('',(#1121,#1122,#1123));
#488=EDGE_LOOP('',(#1124,#1125,#1126,#1127));
#489=EDGE_LOOP('',(#1128,#1129,#1130));
#490=EDGE_LOOP('',(#1131,#1132,#1133,#1134));
#491=EDGE_LOOP('',(#1135,#1136,#1137,#1138));
#492=EDGE_LOOP('',(#1139,#1140,#1141));
#493=EDGE_LOOP('',(#1142,#1143,#1144,#1145));
#494=EDGE_LOOP('',(#1146,#1147,#1148,#1149));
#495=EDGE_LOOP('',(#1150,#1151,#1152,#1153));
#496=EDGE_LOOP('',(#1154,#1155,#1156,#1157));
#497=EDGE_LOOP('',(#1158,#1159,#1160,#1161));
#498=EDGE_LOOP('',(#1162,#1163,#1164,#1165));
#499=EDGE_LOOP('',(#1166,#1167,#1168,#1169));
#500=EDGE_LOOP('',(#1170,#1171,#1172,#1173));
#501=EDGE_LOOP('',(#1174,#1175,#1176,#1177));
#502=EDGE_LOOP('',(#1178,#1179,#1180,#1181));
#503=EDGE_LOOP('',(#1182,#1183,#1184,#1185));
#504=EDGE_LOOP('',(#1186,#1187,#1188,#1189));
#505=EDGE_LOOP('',(#1190,#1191,#1192,#1193));
#506=EDGE_LOOP('',(#1194,#1195,#1196,#1197,#1198,#1199,#1200,#1201));
#507=EDGE_LOOP('',(#1202,#1203,#1204,#1205));
#508=CIRCLE('',#1352,2.35);
#509=CIRCLE('',#1353,1.6);
#510=CIRCLE('',#1355,2.34999999999999);
#511=CIRCLE('',#1356,1.6);
#512=CIRCLE('',#1358,2.35);
#513=CIRCLE('',#1359,1.6);
#514=CIRCLE('',#1361,2.34999999999999);
#515=CIRCLE('',#1362,1.6);
#516=CIRCLE('',#1364,1.6);
#517=CIRCLE('',#1366,1.6);
#518=CIRCLE('',#1369,1.6);
#519=CIRCLE('',#1372,1.6);
#520=CIRCLE('',#1375,3.5);
#521=CIRCLE('',#1376,2.35);
#522=CIRCLE('',#1378,3.5);
#523=CIRCLE('',#1379,2.34999999999999);
#524=CIRCLE('',#1382,3.5);
#525=CIRCLE('',#1385,3.5);
#526=CIRCLE('',#1386,3.5);
#527=CIRCLE('',#1387,3.5);
#528=CIRCLE('',#1388,3.5);
#529=CIRCLE('',#1393,3.5);
#530=CIRCLE('',#1418,2.34999999999999);
#531=CIRCLE('',#1420,2.35);
#532=CIRCLE('',#1423,3.5);
#533=CIRCLE('',#1426,3.5);
#534=CIRCLE('',#1440,0.499999999999998);
#535=CIRCLE('',#1441,0.500000000000007);
#536=CIRCLE('',#1442,0.5);
#537=CIRCLE('',#1444,0.5);
#538=CIRCLE('',#1446,0.500000000000007);
#539=CIRCLE('',#1447,0.500000000000007);
#540=CIRCLE('',#1448,0.5);
#541=CIRCLE('',#1450,0.5);
#542=CIRCLE('',#1452,0.499999999999998);
#543=CIRCLE('',#1453,0.499999999999998);
#544=CIRCLE('',#1454,0.5);
#545=CIRCLE('',#1456,0.5);
#546=CIRCLE('',#1459,0.500000000000007);
#547=CIRCLE('',#1460,0.499999999999998);
#548=CIRCLE('',#1461,0.5);
#549=CIRCLE('',#1463,0.5);
#550=VERTEX_POINT('',#1868);
#551=VERTEX_POINT('',#1870);
#552=VERTEX_POINT('',#1873);
#553=VERTEX_POINT('',#1875);
#554=VERTEX_POINT('',#1878);
#555=VERTEX_POINT('',#1880);
#556=VERTEX_POINT('',#1883);
#557=VERTEX_POINT('',#1885);
#558=VERTEX_POINT('',#1888);
#559=VERTEX_POINT('',#1892);
#560=VERTEX_POINT('',#1897);
#561=VERTEX_POINT('',#1902);
#562=VERTEX_POINT('',#1907);
#563=VERTEX_POINT('',#1908);
#564=VERTEX_POINT('',#1911);
#565=VERTEX_POINT('',#1914);
#566=VERTEX_POINT('',#1916);
#567=VERTEX_POINT('',#1921);
#568=VERTEX_POINT('',#1923);
#569=VERTEX_POINT('',#1928);
#570=VERTEX_POINT('',#1930);
#571=VERTEX_POINT('',#1934);
#572=VERTEX_POINT('',#1935);
#573=VERTEX_POINT('',#1937);
#574=VERTEX_POINT('',#1939);
#575=VERTEX_POINT('',#1942);
#576=VERTEX_POINT('',#1944);
#577=VERTEX_POINT('',#1946);
#578=VERTEX_POINT('',#1947);
#579=VERTEX_POINT('',#1949);
#580=VERTEX_POINT('',#1951);
#581=VERTEX_POINT('',#1953);
#582=VERTEX_POINT('',#1956);
#583=VERTEX_POINT('',#1958);
#584=VERTEX_POINT('',#1960);
#585=VERTEX_POINT('',#1962);
#586=VERTEX_POINT('',#1964);
#587=VERTEX_POINT('',#1966);
#588=VERTEX_POINT('',#1968);
#589=VERTEX_POINT('',#1970);
#590=VERTEX_POINT('',#1976);
#591=VERTEX_POINT('',#1979);
#592=VERTEX_POINT('',#1985);
#593=VERTEX_POINT('',#1989);
#594=VERTEX_POINT('',#1990);
#595=VERTEX_POINT('',#1992);
#596=VERTEX_POINT('',#1994);
#597=VERTEX_POINT('',#1998);
#598=VERTEX_POINT('',#2000);
#599=VERTEX_POINT('',#2004);
#600=VERTEX_POINT('',#2006);
#601=VERTEX_POINT('',#2010);
#602=VERTEX_POINT('',#2011);
#603=VERTEX_POINT('',#2013);
#604=VERTEX_POINT('',#2015);
#605=VERTEX_POINT('',#2017);
#606=VERTEX_POINT('',#2019);
#607=VERTEX_POINT('',#2021);
#608=VERTEX_POINT('',#2023);
#609=VERTEX_POINT('',#2034);
#610=VERTEX_POINT('',#2036);
#611=VERTEX_POINT('',#2040);
#612=VERTEX_POINT('',#2044);
#613=VERTEX_POINT('',#2046);
#614=VERTEX_POINT('',#2049);
#615=VERTEX_POINT('',#2051);
#616=VERTEX_POINT('',#2054);
#617=VERTEX_POINT('',#2056);
#618=VERTEX_POINT('',#2058);
#619=VERTEX_POINT('',#2060);
#620=VERTEX_POINT('',#2062);
#621=VERTEX_POINT('',#2064);
#622=VERTEX_POINT('',#2066);
#623=VERTEX_POINT('',#2073);
#624=VERTEX_POINT('',#2075);
#625=VERTEX_POINT('',#2077);
#626=VERTEX_POINT('',#2079);
#627=VERTEX_POINT('',#2090);
#628=VERTEX_POINT('',#2103);
#629=VERTEX_POINT('',#2107);
#630=VERTEX_POINT('',#2111);
#631=VERTEX_POINT('',#2116);
#632=VERTEX_POINT('',#2121);
#633=VERTEX_POINT('',#2126);
#634=VERTEX_POINT('',#2127);
#635=VERTEX_POINT('',#2130);
#636=VERTEX_POINT('',#2134);
#637=VERTEX_POINT('',#2138);
#638=VERTEX_POINT('',#2140);
#639=VERTEX_POINT('',#2151);
#640=VERTEX_POINT('',#2152);
#641=VERTEX_POINT('',#2154);
#642=VERTEX_POINT('',#2156);
#643=VERTEX_POINT('',#2160);
#644=VERTEX_POINT('',#2162);
#645=VERTEX_POINT('',#2166);
#646=VERTEX_POINT('',#2167);
#647=VERTEX_POINT('',#2172);
#648=VERTEX_POINT('',#2174);
#649=VERTEX_POINT('',#2178);
#650=VERTEX_POINT('',#2179);
#651=VERTEX_POINT('',#2184);
#652=VERTEX_POINT('',#2186);
#653=VERTEX_POINT('',#2190);
#654=VERTEX_POINT('',#2191);
#655=VERTEX_POINT('',#2198);
#656=VERTEX_POINT('',#2200);
#657=VERTEX_POINT('',#2204);
#658=VERTEX_POINT('',#2205);
#659=VERTEX_POINT('',#2221);
#660=VERTEX_POINT('',#2223);
#661=VERTEX_POINT('',#2227);
#662=VERTEX_POINT('',#2231);
#663=EDGE_CURVE('',#550,#550,#508,.T.);
#664=EDGE_CURVE('',#551,#551,#509,.T.);
#665=EDGE_CURVE('',#552,#552,#510,.T.);
#666=EDGE_CURVE('',#553,#553,#511,.T.);
#667=EDGE_CURVE('',#554,#554,#512,.T.);
#668=EDGE_CURVE('',#555,#555,#513,.T.);
#669=EDGE_CURVE('',#556,#556,#514,.T.);
#670=EDGE_CURVE('',#557,#557,#515,.T.);
#671=EDGE_CURVE('',#555,#558,#23,.T.);
#672=EDGE_CURVE('',#558,#558,#516,.T.);
#673=EDGE_CURVE('',#559,#559,#517,.T.);
#674=EDGE_CURVE('',#559,#557,#24,.T.);
#675=EDGE_CURVE('',#560,#560,#518,.T.);
#676=EDGE_CURVE('',#560,#553,#25,.T.);
#677=EDGE_CURVE('',#561,#561,#519,.T.);
#678=EDGE_CURVE('',#561,#551,#26,.T.);
#679=EDGE_CURVE('',#562,#563,#27,.T.);
#680=EDGE_CURVE('',#563,#562,#520,.T.);
#681=EDGE_CURVE('',#564,#564,#521,.T.);
#682=EDGE_CURVE('',#565,#565,#522,.T.);
#683=EDGE_CURVE('',#566,#566,#523,.T.);
#684=EDGE_CURVE('',#566,#556,#28,.T.);
#685=EDGE_CURVE('',#565,#567,#29,.T.);
#686=EDGE_CURVE('',#568,#567,#30,.T.);
#687=EDGE_CURVE('',#568,#568,#524,.T.);
#688=EDGE_CURVE('',#568,#567,#31,.T.);
#689=EDGE_CURVE('',#569,#568,#32,.T.);
#690=EDGE_CURVE('',#569,#570,#33,.T.);
#691=EDGE_CURVE('',#567,#570,#34,.T.);
#692=EDGE_CURVE('',#571,#572,#35,.T.);
#693=EDGE_CURVE('',#573,#571,#36,.T.);
#694=EDGE_CURVE('',#574,#573,#37,.T.);
#695=EDGE_CURVE('',#572,#574,#38,.T.);
#696=EDGE_CURVE('',#575,#575,#525,.T.);
#697=EDGE_CURVE('',#576,#576,#526,.T.);
#698=EDGE_CURVE('',#577,#578,#527,.T.);
#699=EDGE_CURVE('',#579,#578,#528,.T.);
#700=EDGE_CURVE('',#579,#580,#39,.T.);
#701=EDGE_CURVE('',#580,#581,#40,.T.);
#702=EDGE_CURVE('',#581,#569,#41,.T.);
#703=EDGE_CURVE('',#568,#582,#42,.T.);
#704=EDGE_CURVE('',#582,#583,#43,.T.);
#705=EDGE_CURVE('',#583,#584,#44,.T.);
#706=EDGE_CURVE('',#584,#585,#45,.T.);
#707=EDGE_CURVE('',#585,#586,#46,.T.);
#708=EDGE_CURVE('',#586,#587,#47,.T.);
#709=EDGE_CURVE('',#587,#588,#48,.T.);
#710=EDGE_CURVE('',#588,#589,#49,.T.);
#711=EDGE_CURVE('',#589,#577,#50,.T.);
#712=EDGE_CURVE('',#564,#550,#51,.T.);
#713=EDGE_CURVE('',#590,#577,#52,.T.);
#714=EDGE_CURVE('',#590,#562,#53,.T.);
#715=EDGE_CURVE('',#591,#563,#54,.T.);
#716=EDGE_CURVE('',#578,#591,#55,.T.);
#717=EDGE_CURVE('',#591,#590,#56,.T.);
#718=EDGE_CURVE('',#592,#579,#57,.T.);
#719=EDGE_CURVE('',#591,#592,#529,.T.);
#720=EDGE_CURVE('',#593,#594,#58,.T.);
#721=EDGE_CURVE('',#595,#594,#59,.T.);
#722=EDGE_CURVE('',#595,#596,#60,.T.);
#723=EDGE_CURVE('',#593,#596,#61,.T.);
#724=EDGE_CURVE('',#597,#594,#62,.T.);
#725=EDGE_CURVE('',#597,#598,#63,.T.);
#726=EDGE_CURVE('',#595,#598,#64,.T.);
#727=EDGE_CURVE('',#599,#596,#65,.T.);
#728=EDGE_CURVE('',#600,#599,#66,.T.);
#729=EDGE_CURVE('',#593,#600,#67,.T.);
#730=EDGE_CURVE('',#601,#602,#68,.T.);
#731=EDGE_CURVE('',#602,#603,#69,.T.);
#732=EDGE_CURVE('',#604,#603,#70,.T.);
#733=EDGE_CURVE('',#604,#605,#71,.T.);
#734=EDGE_CURVE('',#606,#605,#72,.T.);
#735=EDGE_CURVE('',#606,#607,#73,.T.);
#736=EDGE_CURVE('',#608,#607,#74,.T.);
#737=EDGE_CURVE('',#608,#601,#75,.T.);
#738=EDGE_CURVE('',#600,#597,#76,.T.);
#739=EDGE_CURVE('',#587,#601,#77,.T.);
#740=EDGE_CURVE('',#588,#608,#78,.T.);
#741=EDGE_CURVE('',#603,#585,#79,.T.);
#742=EDGE_CURVE('',#586,#602,#80,.T.);
#743=EDGE_CURVE('',#584,#609,#81,.T.);
#744=EDGE_CURVE('',#610,#609,#82,.T.);
#745=EDGE_CURVE('',#610,#604,#83,.T.);
#746=EDGE_CURVE('',#611,#610,#84,.T.);
#747=EDGE_CURVE('',#605,#611,#85,.T.);
#748=EDGE_CURVE('',#609,#612,#86,.T.);
#749=EDGE_CURVE('',#612,#613,#87,.T.);
#750=EDGE_CURVE('',#613,#567,#88,.T.);
#751=EDGE_CURVE('',#570,#614,#89,.T.);
#752=EDGE_CURVE('',#614,#615,#90,.T.);
#753=EDGE_CURVE('',#615,#592,#91,.T.);
#754=EDGE_CURVE('',#590,#616,#92,.T.);
#755=EDGE_CURVE('',#616,#617,#93,.T.);
#756=EDGE_CURVE('',#617,#618,#94,.T.);
#757=EDGE_CURVE('',#618,#619,#95,.T.);
#758=EDGE_CURVE('',#619,#620,#96,.T.);
#759=EDGE_CURVE('',#620,#621,#97,.T.);
#760=EDGE_CURVE('',#621,#622,#98,.T.);
#761=EDGE_CURVE('',#622,#611,#99,.T.);
#762=EDGE_CURVE('',#607,#617,#100,.T.);
#763=EDGE_CURVE('',#618,#606,#101,.T.);
#764=EDGE_CURVE('',#623,#622,#102,.T.);
#765=EDGE_CURVE('',#624,#623,#103,.T.);
#766=EDGE_CURVE('',#625,#624,#104,.T.);
#767=EDGE_CURVE('',#626,#625,#105,.T.);
#768=EDGE_CURVE('',#626,#619,#106,.T.);
#769=EDGE_CURVE('',#589,#616,#107,.T.);
#770=EDGE_CURVE('',#598,#599,#108,.T.);
#771=EDGE_CURVE('',#582,#613,#109,.T.);
#772=EDGE_CURVE('',#627,#626,#110,.T.);
#773=EDGE_CURVE('',#627,#620,#111,.T.);
#774=EDGE_CURVE('',#580,#615,#112,.T.);
#775=EDGE_CURVE('',#581,#614,#113,.T.);
#776=EDGE_CURVE('',#583,#612,#114,.T.);
#777=EDGE_CURVE('',#628,#627,#115,.T.);
#778=EDGE_CURVE('',#625,#628,#116,.T.);
#779=EDGE_CURVE('',#552,#629,#117,.T.);
#780=EDGE_CURVE('',#629,#629,#530,.T.);
#781=EDGE_CURVE('',#554,#630,#118,.T.);
#782=EDGE_CURVE('',#630,#630,#531,.T.);
#783=EDGE_CURVE('',#631,#631,#532,.T.);
#784=EDGE_CURVE('',#631,#575,#119,.T.);
#785=EDGE_CURVE('',#632,#632,#533,.T.);
#786=EDGE_CURVE('',#632,#576,#120,.T.);
#787=EDGE_CURVE('',#633,#634,#121,.T.);
#788=EDGE_CURVE('',#634,#623,#19,.T.);
#789=EDGE_CURVE('',#623,#635,#122,.T.);
#790=EDGE_CURVE('',#635,#633,#20,.T.);
#791=EDGE_CURVE('',#634,#636,#123,.T.);
#792=EDGE_CURVE('',#636,#624,#21,.T.);
#793=EDGE_CURVE('',#637,#624,#124,.T.);
#794=EDGE_CURVE('',#636,#638,#125,.T.);
#795=EDGE_CURVE('',#638,#637,#22,.T.);
#796=EDGE_CURVE('',#638,#633,#126,.T.);
#797=EDGE_CURVE('',#635,#637,#127,.T.);
#798=EDGE_CURVE('',#621,#635,#128,.T.);
#799=EDGE_CURVE('',#637,#628,#129,.T.);
#800=EDGE_CURVE('',#639,#640,#130,.T.);
#801=EDGE_CURVE('',#641,#639,#131,.T.);
#802=EDGE_CURVE('',#642,#641,#132,.T.);
#803=EDGE_CURVE('',#640,#642,#133,.T.);
#804=EDGE_CURVE('',#643,#639,#534,.F.);
#805=EDGE_CURVE('',#644,#643,#535,.F.);
#806=EDGE_CURVE('',#639,#644,#536,.F.);
#807=EDGE_CURVE('',#645,#646,#537,.T.);
#808=EDGE_CURVE('',#646,#644,#134,.T.);
#809=EDGE_CURVE('',#643,#645,#135,.T.);
#810=EDGE_CURVE('',#647,#641,#538,.F.);
#811=EDGE_CURVE('',#648,#647,#539,.F.);
#812=EDGE_CURVE('',#641,#648,#540,.F.);
#813=EDGE_CURVE('',#649,#650,#541,.T.);
#814=EDGE_CURVE('',#650,#648,#136,.T.);
#815=EDGE_CURVE('',#647,#649,#137,.T.);
#816=EDGE_CURVE('',#651,#640,#542,.F.);
#817=EDGE_CURVE('',#652,#651,#543,.F.);
#818=EDGE_CURVE('',#640,#652,#544,.F.);
#819=EDGE_CURVE('',#653,#654,#545,.T.);
#820=EDGE_CURVE('',#654,#652,#138,.T.);
#821=EDGE_CURVE('',#651,#653,#139,.T.);
#822=EDGE_CURVE('',#652,#643,#140,.T.);
#823=EDGE_CURVE('',#655,#642,#546,.F.);
#824=EDGE_CURVE('',#656,#655,#547,.F.);
#825=EDGE_CURVE('',#642,#656,#548,.F.);
#826=EDGE_CURVE('',#657,#658,#549,.T.);
#827=EDGE_CURVE('',#658,#656,#141,.T.);
#828=EDGE_CURVE('',#655,#657,#142,.T.);
#829=EDGE_CURVE('',#656,#651,#143,.T.);
#830=EDGE_CURVE('',#648,#655,#144,.T.);
#831=EDGE_CURVE('',#644,#647,#145,.T.);
#832=EDGE_CURVE('',#645,#654,#146,.T.);
#833=EDGE_CURVE('',#653,#658,#147,.T.);
#834=EDGE_CURVE('',#659,#573,#148,.F.);
#835=EDGE_CURVE('',#660,#659,#149,.T.);
#836=EDGE_CURVE('',#660,#574,#150,.F.);
#837=EDGE_CURVE('',#661,#571,#151,.T.);
#838=EDGE_CURVE('',#659,#661,#152,.T.);
#839=EDGE_CURVE('',#662,#660,#153,.T.);
#840=EDGE_CURVE('',#662,#572,#154,.F.);
#841=EDGE_CURVE('',#661,#662,#155,.T.);
#842=EDGE_CURVE('',#657,#650,#156,.T.);
#843=EDGE_CURVE('',#649,#646,#157,.T.);
#844=ORIENTED_EDGE('',*,*,#663,.F.);
#845=ORIENTED_EDGE('',*,*,#664,.T.);
#846=ORIENTED_EDGE('',*,*,#665,.F.);
#847=ORIENTED_EDGE('',*,*,#666,.T.);
#848=ORIENTED_EDGE('',*,*,#667,.F.);
#849=ORIENTED_EDGE('',*,*,#668,.T.);
#850=ORIENTED_EDGE('',*,*,#669,.F.);
#851=ORIENTED_EDGE('',*,*,#670,.T.);
#852=ORIENTED_EDGE('',*,*,#668,.F.);
#853=ORIENTED_EDGE('',*,*,#671,.T.);
#854=ORIENTED_EDGE('',*,*,#672,.F.);
#855=ORIENTED_EDGE('',*,*,#671,.F.);
#856=ORIENTED_EDGE('',*,*,#673,.F.);
#857=ORIENTED_EDGE('',*,*,#674,.T.);
#858=ORIENTED_EDGE('',*,*,#670,.F.);
#859=ORIENTED_EDGE('',*,*,#674,.F.);
#860=ORIENTED_EDGE('',*,*,#673,.T.);
#861=ORIENTED_EDGE('',*,*,#675,.F.);
#862=ORIENTED_EDGE('',*,*,#676,.T.);
#863=ORIENTED_EDGE('',*,*,#666,.F.);
#864=ORIENTED_EDGE('',*,*,#676,.F.);
#865=ORIENTED_EDGE('',*,*,#675,.T.);
#866=ORIENTED_EDGE('',*,*,#677,.F.);
#867=ORIENTED_EDGE('',*,*,#678,.T.);
#868=ORIENTED_EDGE('',*,*,#664,.F.);
#869=ORIENTED_EDGE('',*,*,#678,.F.);
#870=ORIENTED_EDGE('',*,*,#677,.T.);
#871=ORIENTED_EDGE('',*,*,#679,.T.);
#872=ORIENTED_EDGE('',*,*,#680,.T.);
#873=ORIENTED_EDGE('',*,*,#681,.T.);
#874=ORIENTED_EDGE('',*,*,#682,.T.);
#875=ORIENTED_EDGE('',*,*,#683,.T.);
#876=ORIENTED_EDGE('',*,*,#683,.F.);
#877=ORIENTED_EDGE('',*,*,#684,.T.);
#878=ORIENTED_EDGE('',*,*,#669,.T.);
#879=ORIENTED_EDGE('',*,*,#684,.F.);
#880=ORIENTED_EDGE('',*,*,#682,.F.);
#881=ORIENTED_EDGE('',*,*,#685,.T.);
#882=ORIENTED_EDGE('',*,*,#686,.F.);
#883=ORIENTED_EDGE('',*,*,#687,.F.);
#884=ORIENTED_EDGE('',*,*,#686,.T.);
#885=ORIENTED_EDGE('',*,*,#685,.F.);
#886=ORIENTED_EDGE('',*,*,#688,.F.);
#887=ORIENTED_EDGE('',*,*,#689,.F.);
#888=ORIENTED_EDGE('',*,*,#690,.T.);
#889=ORIENTED_EDGE('',*,*,#691,.F.);
#890=ORIENTED_EDGE('',*,*,#692,.F.);
#891=ORIENTED_EDGE('',*,*,#693,.F.);
#892=ORIENTED_EDGE('',*,*,#694,.F.);
#893=ORIENTED_EDGE('',*,*,#695,.F.);
#894=ORIENTED_EDGE('',*,*,#696,.T.);
#895=ORIENTED_EDGE('',*,*,#697,.T.);
#896=ORIENTED_EDGE('',*,*,#698,.T.);
#897=ORIENTED_EDGE('',*,*,#699,.F.);
#898=ORIENTED_EDGE('',*,*,#700,.T.);
#899=ORIENTED_EDGE('',*,*,#701,.T.);
#900=ORIENTED_EDGE('',*,*,#702,.T.);
#901=ORIENTED_EDGE('',*,*,#689,.T.);
#902=ORIENTED_EDGE('',*,*,#687,.T.);
#903=ORIENTED_EDGE('',*,*,#703,.T.);
#904=ORIENTED_EDGE('',*,*,#704,.T.);
#905=ORIENTED_EDGE('',*,*,#705,.T.);
#906=ORIENTED_EDGE('',*,*,#706,.T.);
#907=ORIENTED_EDGE('',*,*,#707,.T.);
#908=ORIENTED_EDGE('',*,*,#708,.T.);
#909=ORIENTED_EDGE('',*,*,#709,.T.);
#910=ORIENTED_EDGE('',*,*,#710,.T.);
#911=ORIENTED_EDGE('',*,*,#711,.T.);
#912=ORIENTED_EDGE('',*,*,#681,.F.);
#913=ORIENTED_EDGE('',*,*,#712,.T.);
#914=ORIENTED_EDGE('',*,*,#663,.T.);
#915=ORIENTED_EDGE('',*,*,#712,.F.);
#916=ORIENTED_EDGE('',*,*,#698,.F.);
#917=ORIENTED_EDGE('',*,*,#713,.F.);
#918=ORIENTED_EDGE('',*,*,#714,.T.);
#919=ORIENTED_EDGE('',*,*,#680,.F.);
#920=ORIENTED_EDGE('',*,*,#715,.F.);
#921=ORIENTED_EDGE('',*,*,#716,.F.);
#922=ORIENTED_EDGE('',*,*,#717,.F.);
#923=ORIENTED_EDGE('',*,*,#715,.T.);
#924=ORIENTED_EDGE('',*,*,#679,.F.);
#925=ORIENTED_EDGE('',*,*,#714,.F.);
#926=ORIENTED_EDGE('',*,*,#718,.T.);
#927=ORIENTED_EDGE('',*,*,#699,.T.);
#928=ORIENTED_EDGE('',*,*,#716,.T.);
#929=ORIENTED_EDGE('',*,*,#719,.T.);
#930=ORIENTED_EDGE('',*,*,#720,.T.);
#931=ORIENTED_EDGE('',*,*,#721,.F.);
#932=ORIENTED_EDGE('',*,*,#722,.T.);
#933=ORIENTED_EDGE('',*,*,#723,.F.);
#934=ORIENTED_EDGE('',*,*,#721,.T.);
#935=ORIENTED_EDGE('',*,*,#724,.F.);
#936=ORIENTED_EDGE('',*,*,#725,.T.);
#937=ORIENTED_EDGE('',*,*,#726,.F.);
#938=ORIENTED_EDGE('',*,*,#723,.T.);
#939=ORIENTED_EDGE('',*,*,#727,.F.);
#940=ORIENTED_EDGE('',*,*,#728,.F.);
#941=ORIENTED_EDGE('',*,*,#729,.F.);
#942=ORIENTED_EDGE('',*,*,#730,.T.);
#943=ORIENTED_EDGE('',*,*,#731,.T.);
#944=ORIENTED_EDGE('',*,*,#732,.F.);
#945=ORIENTED_EDGE('',*,*,#733,.T.);
#946=ORIENTED_EDGE('',*,*,#734,.F.);
#947=ORIENTED_EDGE('',*,*,#735,.T.);
#948=ORIENTED_EDGE('',*,*,#736,.F.);
#949=ORIENTED_EDGE('',*,*,#737,.T.);
#950=ORIENTED_EDGE('',*,*,#729,.T.);
#951=ORIENTED_EDGE('',*,*,#738,.T.);
#952=ORIENTED_EDGE('',*,*,#724,.T.);
#953=ORIENTED_EDGE('',*,*,#720,.F.);
#954=ORIENTED_EDGE('',*,*,#709,.F.);
#955=ORIENTED_EDGE('',*,*,#739,.T.);
#956=ORIENTED_EDGE('',*,*,#737,.F.);
#957=ORIENTED_EDGE('',*,*,#740,.F.);
#958=ORIENTED_EDGE('',*,*,#707,.F.);
#959=ORIENTED_EDGE('',*,*,#741,.F.);
#960=ORIENTED_EDGE('',*,*,#731,.F.);
#961=ORIENTED_EDGE('',*,*,#742,.F.);
#962=ORIENTED_EDGE('',*,*,#741,.T.);
#963=ORIENTED_EDGE('',*,*,#706,.F.);
#964=ORIENTED_EDGE('',*,*,#743,.T.);
#965=ORIENTED_EDGE('',*,*,#744,.F.);
#966=ORIENTED_EDGE('',*,*,#745,.T.);
#967=ORIENTED_EDGE('',*,*,#732,.T.);
#968=ORIENTED_EDGE('',*,*,#746,.F.);
#969=ORIENTED_EDGE('',*,*,#747,.F.);
#970=ORIENTED_EDGE('',*,*,#733,.F.);
#971=ORIENTED_EDGE('',*,*,#745,.F.);
#972=ORIENTED_EDGE('',*,*,#746,.T.);
#973=ORIENTED_EDGE('',*,*,#744,.T.);
#974=ORIENTED_EDGE('',*,*,#748,.T.);
#975=ORIENTED_EDGE('',*,*,#749,.T.);
#976=ORIENTED_EDGE('',*,*,#750,.T.);
#977=ORIENTED_EDGE('',*,*,#691,.T.);
#978=ORIENTED_EDGE('',*,*,#751,.T.);
#979=ORIENTED_EDGE('',*,*,#752,.T.);
#980=ORIENTED_EDGE('',*,*,#753,.T.);
#981=ORIENTED_EDGE('',*,*,#719,.F.);
#982=ORIENTED_EDGE('',*,*,#717,.T.);
#983=ORIENTED_EDGE('',*,*,#754,.T.);
#984=ORIENTED_EDGE('',*,*,#755,.T.);
#985=ORIENTED_EDGE('',*,*,#756,.T.);
#986=ORIENTED_EDGE('',*,*,#757,.T.);
#987=ORIENTED_EDGE('',*,*,#758,.T.);
#988=ORIENTED_EDGE('',*,*,#759,.T.);
#989=ORIENTED_EDGE('',*,*,#760,.T.);
#990=ORIENTED_EDGE('',*,*,#761,.T.);
#991=ORIENTED_EDGE('',*,*,#756,.F.);
#992=ORIENTED_EDGE('',*,*,#762,.F.);
#993=ORIENTED_EDGE('',*,*,#735,.F.);
#994=ORIENTED_EDGE('',*,*,#763,.F.);
#995=ORIENTED_EDGE('',*,*,#747,.T.);
#996=ORIENTED_EDGE('',*,*,#761,.F.);
#997=ORIENTED_EDGE('',*,*,#764,.F.);
#998=ORIENTED_EDGE('',*,*,#765,.F.);
#999=ORIENTED_EDGE('',*,*,#766,.F.);
#1000=ORIENTED_EDGE('',*,*,#767,.F.);
#1001=ORIENTED_EDGE('',*,*,#768,.T.);
#1002=ORIENTED_EDGE('',*,*,#757,.F.);
#1003=ORIENTED_EDGE('',*,*,#763,.T.);
#1004=ORIENTED_EDGE('',*,*,#734,.T.);
#1005=ORIENTED_EDGE('',*,*,#740,.T.);
#1006=ORIENTED_EDGE('',*,*,#736,.T.);
#1007=ORIENTED_EDGE('',*,*,#762,.T.);
#1008=ORIENTED_EDGE('',*,*,#755,.F.);
#1009=ORIENTED_EDGE('',*,*,#769,.F.);
#1010=ORIENTED_EDGE('',*,*,#710,.F.);
#1011=ORIENTED_EDGE('',*,*,#738,.F.);
#1012=ORIENTED_EDGE('',*,*,#728,.T.);
#1013=ORIENTED_EDGE('',*,*,#770,.F.);
#1014=ORIENTED_EDGE('',*,*,#725,.F.);
#1015=ORIENTED_EDGE('',*,*,#708,.F.);
#1016=ORIENTED_EDGE('',*,*,#742,.T.);
#1017=ORIENTED_EDGE('',*,*,#730,.F.);
#1018=ORIENTED_EDGE('',*,*,#739,.F.);
#1019=ORIENTED_EDGE('',*,*,#688,.T.);
#1020=ORIENTED_EDGE('',*,*,#750,.F.);
#1021=ORIENTED_EDGE('',*,*,#771,.F.);
#1022=ORIENTED_EDGE('',*,*,#703,.F.);
#1023=ORIENTED_EDGE('',*,*,#772,.F.);
#1024=ORIENTED_EDGE('',*,*,#773,.T.);
#1025=ORIENTED_EDGE('',*,*,#758,.F.);
#1026=ORIENTED_EDGE('',*,*,#768,.F.);
#1027=ORIENTED_EDGE('',*,*,#713,.T.);
#1028=ORIENTED_EDGE('',*,*,#711,.F.);
#1029=ORIENTED_EDGE('',*,*,#769,.T.);
#1030=ORIENTED_EDGE('',*,*,#754,.F.);
#1031=ORIENTED_EDGE('',*,*,#700,.F.);
#1032=ORIENTED_EDGE('',*,*,#718,.F.);
#1033=ORIENTED_EDGE('',*,*,#753,.F.);
#1034=ORIENTED_EDGE('',*,*,#774,.F.);
#1035=ORIENTED_EDGE('',*,*,#701,.F.);
#1036=ORIENTED_EDGE('',*,*,#774,.T.);
#1037=ORIENTED_EDGE('',*,*,#752,.F.);
#1038=ORIENTED_EDGE('',*,*,#775,.F.);
#1039=ORIENTED_EDGE('',*,*,#702,.F.);
#1040=ORIENTED_EDGE('',*,*,#775,.T.);
#1041=ORIENTED_EDGE('',*,*,#751,.F.);
#1042=ORIENTED_EDGE('',*,*,#690,.F.);
#1043=ORIENTED_EDGE('',*,*,#704,.F.);
#1044=ORIENTED_EDGE('',*,*,#771,.T.);
#1045=ORIENTED_EDGE('',*,*,#749,.F.);
#1046=ORIENTED_EDGE('',*,*,#776,.F.);
#1047=ORIENTED_EDGE('',*,*,#705,.F.);
#1048=ORIENTED_EDGE('',*,*,#776,.T.);
#1049=ORIENTED_EDGE('',*,*,#748,.F.);
#1050=ORIENTED_EDGE('',*,*,#743,.F.);
#1051=ORIENTED_EDGE('',*,*,#777,.T.);
#1052=ORIENTED_EDGE('',*,*,#772,.T.);
#1053=ORIENTED_EDGE('',*,*,#767,.T.);
#1054=ORIENTED_EDGE('',*,*,#778,.T.);
#1055=ORIENTED_EDGE('',*,*,#665,.T.);
#1056=ORIENTED_EDGE('',*,*,#779,.T.);
#1057=ORIENTED_EDGE('',*,*,#780,.F.);
#1058=ORIENTED_EDGE('',*,*,#779,.F.);
#1059=ORIENTED_EDGE('',*,*,#667,.T.);
#1060=ORIENTED_EDGE('',*,*,#781,.T.);
#1061=ORIENTED_EDGE('',*,*,#782,.F.);
#1062=ORIENTED_EDGE('',*,*,#781,.F.);
#1063=ORIENTED_EDGE('',*,*,#672,.T.);
#1064=ORIENTED_EDGE('',*,*,#783,.F.);
#1065=ORIENTED_EDGE('',*,*,#784,.T.);
#1066=ORIENTED_EDGE('',*,*,#696,.F.);
#1067=ORIENTED_EDGE('',*,*,#784,.F.);
#1068=ORIENTED_EDGE('',*,*,#783,.T.);
#1069=ORIENTED_EDGE('',*,*,#782,.T.);
#1070=ORIENTED_EDGE('',*,*,#785,.F.);
#1071=ORIENTED_EDGE('',*,*,#786,.T.);
#1072=ORIENTED_EDGE('',*,*,#697,.F.);
#1073=ORIENTED_EDGE('',*,*,#786,.F.);
#1074=ORIENTED_EDGE('',*,*,#785,.T.);
#1075=ORIENTED_EDGE('',*,*,#780,.T.);
#1076=ORIENTED_EDGE('',*,*,#787,.T.);
#1077=ORIENTED_EDGE('',*,*,#788,.T.);
#1078=ORIENTED_EDGE('',*,*,#789,.T.);
#1079=ORIENTED_EDGE('',*,*,#790,.T.);
#1080=ORIENTED_EDGE('',*,*,#765,.T.);
#1081=ORIENTED_EDGE('',*,*,#788,.F.);
#1082=ORIENTED_EDGE('',*,*,#791,.T.);
#1083=ORIENTED_EDGE('',*,*,#792,.T.);
#1084=ORIENTED_EDGE('',*,*,#793,.T.);
#1085=ORIENTED_EDGE('',*,*,#792,.F.);
#1086=ORIENTED_EDGE('',*,*,#794,.T.);
#1087=ORIENTED_EDGE('',*,*,#795,.T.);
#1088=ORIENTED_EDGE('',*,*,#796,.T.);
#1089=ORIENTED_EDGE('',*,*,#790,.F.);
#1090=ORIENTED_EDGE('',*,*,#797,.T.);
#1091=ORIENTED_EDGE('',*,*,#795,.F.);
#1092=ORIENTED_EDGE('',*,*,#797,.F.);
#1093=ORIENTED_EDGE('',*,*,#798,.F.);
#1094=ORIENTED_EDGE('',*,*,#759,.F.);
#1095=ORIENTED_EDGE('',*,*,#773,.F.);
#1096=ORIENTED_EDGE('',*,*,#777,.F.);
#1097=ORIENTED_EDGE('',*,*,#799,.F.);
#1098=ORIENTED_EDGE('',*,*,#789,.F.);
#1099=ORIENTED_EDGE('',*,*,#764,.T.);
#1100=ORIENTED_EDGE('',*,*,#760,.F.);
#1101=ORIENTED_EDGE('',*,*,#798,.T.);
#1102=ORIENTED_EDGE('',*,*,#800,.F.);
#1103=ORIENTED_EDGE('',*,*,#801,.F.);
#1104=ORIENTED_EDGE('',*,*,#802,.F.);
#1105=ORIENTED_EDGE('',*,*,#803,.F.);
#1106=ORIENTED_EDGE('',*,*,#722,.F.);
#1107=ORIENTED_EDGE('',*,*,#726,.T.);
#1108=ORIENTED_EDGE('',*,*,#770,.T.);
#1109=ORIENTED_EDGE('',*,*,#727,.T.);
#1110=ORIENTED_EDGE('',*,*,#787,.F.);
#1111=ORIENTED_EDGE('',*,*,#796,.F.);
#1112=ORIENTED_EDGE('',*,*,#794,.F.);
#1113=ORIENTED_EDGE('',*,*,#791,.F.);
#1114=ORIENTED_EDGE('',*,*,#804,.F.);
#1115=ORIENTED_EDGE('',*,*,#805,.F.);
#1116=ORIENTED_EDGE('',*,*,#806,.F.);
#1117=ORIENTED_EDGE('',*,*,#807,.T.);
#1118=ORIENTED_EDGE('',*,*,#808,.T.);
#1119=ORIENTED_EDGE('',*,*,#805,.T.);
#1120=ORIENTED_EDGE('',*,*,#809,.T.);
#1121=ORIENTED_EDGE('',*,*,#810,.F.);
#1122=ORIENTED_EDGE('',*,*,#811,.F.);
#1123=ORIENTED_EDGE('',*,*,#812,.F.);
#1124=ORIENTED_EDGE('',*,*,#813,.T.);
#1125=ORIENTED_EDGE('',*,*,#814,.T.);
#1126=ORIENTED_EDGE('',*,*,#811,.T.);
#1127=ORIENTED_EDGE('',*,*,#815,.T.);
#1128=ORIENTED_EDGE('',*,*,#816,.F.);
#1129=ORIENTED_EDGE('',*,*,#817,.F.);
#1130=ORIENTED_EDGE('',*,*,#818,.F.);
#1131=ORIENTED_EDGE('',*,*,#819,.T.);
#1132=ORIENTED_EDGE('',*,*,#820,.T.);
#1133=ORIENTED_EDGE('',*,*,#817,.T.);
#1134=ORIENTED_EDGE('',*,*,#821,.T.);
#1135=ORIENTED_EDGE('',*,*,#804,.T.);
#1136=ORIENTED_EDGE('',*,*,#800,.T.);
#1137=ORIENTED_EDGE('',*,*,#818,.T.);
#1138=ORIENTED_EDGE('',*,*,#822,.T.);
#1139=ORIENTED_EDGE('',*,*,#823,.F.);
#1140=ORIENTED_EDGE('',*,*,#824,.F.);
#1141=ORIENTED_EDGE('',*,*,#825,.F.);
#1142=ORIENTED_EDGE('',*,*,#826,.T.);
#1143=ORIENTED_EDGE('',*,*,#827,.T.);
#1144=ORIENTED_EDGE('',*,*,#824,.T.);
#1145=ORIENTED_EDGE('',*,*,#828,.T.);
#1146=ORIENTED_EDGE('',*,*,#816,.T.);
#1147=ORIENTED_EDGE('',*,*,#803,.T.);
#1148=ORIENTED_EDGE('',*,*,#825,.T.);
#1149=ORIENTED_EDGE('',*,*,#829,.T.);
#1150=ORIENTED_EDGE('',*,*,#823,.T.);
#1151=ORIENTED_EDGE('',*,*,#802,.T.);
#1152=ORIENTED_EDGE('',*,*,#812,.T.);
#1153=ORIENTED_EDGE('',*,*,#830,.T.);
#1154=ORIENTED_EDGE('',*,*,#810,.T.);
#1155=ORIENTED_EDGE('',*,*,#801,.T.);
#1156=ORIENTED_EDGE('',*,*,#806,.T.);
#1157=ORIENTED_EDGE('',*,*,#831,.T.);
#1158=ORIENTED_EDGE('',*,*,#809,.F.);
#1159=ORIENTED_EDGE('',*,*,#822,.F.);
#1160=ORIENTED_EDGE('',*,*,#820,.F.);
#1161=ORIENTED_EDGE('',*,*,#832,.F.);
#1162=ORIENTED_EDGE('',*,*,#821,.F.);
#1163=ORIENTED_EDGE('',*,*,#829,.F.);
#1164=ORIENTED_EDGE('',*,*,#827,.F.);
#1165=ORIENTED_EDGE('',*,*,#833,.F.);
#1166=ORIENTED_EDGE('',*,*,#793,.F.);
#1167=ORIENTED_EDGE('',*,*,#799,.T.);
#1168=ORIENTED_EDGE('',*,*,#778,.F.);
#1169=ORIENTED_EDGE('',*,*,#766,.T.);
#1170=ORIENTED_EDGE('',*,*,#694,.T.);
#1171=ORIENTED_EDGE('',*,*,#834,.F.);
#1172=ORIENTED_EDGE('',*,*,#835,.F.);
#1173=ORIENTED_EDGE('',*,*,#836,.T.);
#1174=ORIENTED_EDGE('',*,*,#693,.T.);
#1175=ORIENTED_EDGE('',*,*,#837,.F.);
#1176=ORIENTED_EDGE('',*,*,#838,.F.);
#1177=ORIENTED_EDGE('',*,*,#834,.T.);
#1178=ORIENTED_EDGE('',*,*,#695,.T.);
#1179=ORIENTED_EDGE('',*,*,#836,.F.);
#1180=ORIENTED_EDGE('',*,*,#839,.F.);
#1181=ORIENTED_EDGE('',*,*,#840,.T.);
#1182=ORIENTED_EDGE('',*,*,#692,.T.);
#1183=ORIENTED_EDGE('',*,*,#840,.F.);
#1184=ORIENTED_EDGE('',*,*,#841,.F.);
#1185=ORIENTED_EDGE('',*,*,#837,.T.);
#1186=ORIENTED_EDGE('',*,*,#814,.F.);
#1187=ORIENTED_EDGE('',*,*,#842,.F.);
#1188=ORIENTED_EDGE('',*,*,#828,.F.);
#1189=ORIENTED_EDGE('',*,*,#830,.F.);
#1190=ORIENTED_EDGE('',*,*,#808,.F.);
#1191=ORIENTED_EDGE('',*,*,#843,.F.);
#1192=ORIENTED_EDGE('',*,*,#815,.F.);
#1193=ORIENTED_EDGE('',*,*,#831,.F.);
#1194=ORIENTED_EDGE('',*,*,#807,.F.);
#1195=ORIENTED_EDGE('',*,*,#832,.T.);
#1196=ORIENTED_EDGE('',*,*,#819,.F.);
#1197=ORIENTED_EDGE('',*,*,#833,.T.);
#1198=ORIENTED_EDGE('',*,*,#826,.F.);
#1199=ORIENTED_EDGE('',*,*,#842,.T.);
#1200=ORIENTED_EDGE('',*,*,#813,.F.);
#1201=ORIENTED_EDGE('',*,*,#843,.T.);
#1202=ORIENTED_EDGE('',*,*,#838,.T.);
#1203=ORIENTED_EDGE('',*,*,#841,.T.);
#1204=ORIENTED_EDGE('',*,*,#839,.T.);
#1205=ORIENTED_EDGE('',*,*,#835,.T.);
#1206=PLANE('',#1351);
#1207=PLANE('',#1354);
#1208=PLANE('',#1357);
#1209=PLANE('',#1360);
#1210=PLANE('',#1367);
#1211=PLANE('',#1370);
#1212=PLANE('',#1373);
#1213=PLANE('',#1374);
#1214=PLANE('',#1377);
#1215=PLANE('',#1383);
#1216=PLANE('',#1384);
#1217=PLANE('',#1391);
#1218=PLANE('',#1394);
#1219=PLANE('',#1395);
#1220=PLANE('',#1396);
#1221=PLANE('',#1397);
#1222=PLANE('',#1398);
#1223=PLANE('',#1399);
#1224=PLANE('',#1400);
#1225=PLANE('',#1401);
#1226=PLANE('',#1402);
#1227=PLANE('',#1403);
#1228=PLANE('',#1404);
#1229=PLANE('',#1405);
#1230=PLANE('',#1406);
#1231=PLANE('',#1407);
#1232=PLANE('',#1408);
#1233=PLANE('',#1409);
#1234=PLANE('',#1410);
#1235=PLANE('',#1411);
#1236=PLANE('',#1412);
#1237=PLANE('',#1413);
#1238=PLANE('',#1414);
#1239=PLANE('',#1415);
#1240=PLANE('',#1416);
#1241=PLANE('',#1421);
#1242=PLANE('',#1424);
#1243=PLANE('',#1427);
#1244=PLANE('',#1436);
#1245=PLANE('',#1437);
#1246=PLANE('',#1438);
#1247=PLANE('',#1467);
#1248=PLANE('',#1468);
#1249=PLANE('',#1469);
#1250=PLANE('',#1470);
#1251=PLANE('',#1471);
#1252=PLANE('',#1472);
#1253=PLANE('',#1473);
#1254=PLANE('',#1474);
#1255=PLANE('',#1475);
#1256=PLANE('',#1476);
#1257=ADVANCED_FACE('',(#333,#318),#1206,.T.);
#1258=ADVANCED_FACE('',(#334,#319),#1207,.T.);
#1259=ADVANCED_FACE('',(#335,#320),#1208,.T.);
#1260=ADVANCED_FACE('',(#336,#321),#1209,.T.);
#1261=ADVANCED_FACE('',(#337),#293,.F.);
#1262=ADVANCED_FACE('',(#338),#294,.F.);
#1263=ADVANCED_FACE('',(#339),#1210,.T.);
#1264=ADVANCED_FACE('',(#340),#295,.F.);
#1265=ADVANCED_FACE('',(#341),#1211,.T.);
#1266=ADVANCED_FACE('',(#342),#296,.F.);
#1267=ADVANCED_FACE('',(#343),#1212,.T.);
#1268=ADVANCED_FACE('',(#344,#322),#1213,.T.);
#1269=ADVANCED_FACE('',(#345,#323),#1214,.T.);
#1270=ADVANCED_FACE('',(#346),#297,.F.);
#1271=ADVANCED_FACE('',(#347),#298,.T.);
#1272=ADVANCED_FACE('',(#348),#1215,.T.);
#1273=ADVANCED_FACE('',(#349,#324,#325,#326),#1216,.T.);
#1274=ADVANCED_FACE('',(#350),#299,.F.);
#1275=ADVANCED_FACE('',(#351),#300,.T.);
#1276=ADVANCED_FACE('',(#352),#1217,.T.);
#1277=ADVANCED_FACE('',(#353),#301,.F.);
#1278=ADVANCED_FACE('',(#354),#1218,.T.);
#1279=ADVANCED_FACE('',(#355),#1219,.F.);
#1280=ADVANCED_FACE('',(#356),#1220,.F.);
#1281=ADVANCED_FACE('',(#357,#327),#1221,.T.);
#1282=ADVANCED_FACE('',(#358),#1222,.T.);
#1283=ADVANCED_FACE('',(#359),#1223,.T.);
#1284=ADVANCED_FACE('',(#360),#1224,.T.);
#1285=ADVANCED_FACE('',(#361),#1225,.F.);
#1286=ADVANCED_FACE('',(#362),#1226,.T.);
#1287=ADVANCED_FACE('',(#363),#1227,.F.);
#1288=ADVANCED_FACE('',(#364),#1228,.T.);
#1289=ADVANCED_FACE('',(#365),#1229,.T.);
#1290=ADVANCED_FACE('',(#366),#1230,.F.);
#1291=ADVANCED_FACE('',(#367),#1231,.T.);
#1292=ADVANCED_FACE('',(#368),#1232,.T.);
#1293=ADVANCED_FACE('',(#369),#1233,.T.);
#1294=ADVANCED_FACE('',(#370),#1234,.T.);
#1295=ADVANCED_FACE('',(#371),#1235,.T.);
#1296=ADVANCED_FACE('',(#372),#1236,.T.);
#1297=ADVANCED_FACE('',(#373),#1237,.T.);
#1298=ADVANCED_FACE('',(#374),#1238,.T.);
#1299=ADVANCED_FACE('',(#375),#1239,.T.);
#1300=ADVANCED_FACE('',(#376),#1240,.T.);
#1301=ADVANCED_FACE('',(#377),#302,.F.);
#1302=ADVANCED_FACE('',(#378),#303,.F.);
#1303=ADVANCED_FACE('',(#379),#1241,.T.);
#1304=ADVANCED_FACE('',(#380),#304,.T.);
#1305=ADVANCED_FACE('',(#381,#328),#1242,.T.);
#1306=ADVANCED_FACE('',(#382),#305,.T.);
#1307=ADVANCED_FACE('',(#383,#329),#1243,.T.);
#1308=ADVANCED_FACE('',(#384),#306,.T.);
#1309=ADVANCED_FACE('',(#385),#307,.T.);
#1310=ADVANCED_FACE('',(#386),#308,.T.);
#1311=ADVANCED_FACE('',(#387),#309,.T.);
#1312=ADVANCED_FACE('',(#388),#1244,.F.);
#1313=ADVANCED_FACE('',(#389),#1245,.F.);
#1314=ADVANCED_FACE('',(#390,#330,#331),#1246,.T.);
#1315=ADVANCED_FACE('',(#391),#15,.T.);
#1316=ADVANCED_FACE('',(#392),#310,.T.);
#1317=ADVANCED_FACE('',(#393),#16,.T.);
#1318=ADVANCED_FACE('',(#394),#311,.T.);
#1319=ADVANCED_FACE('',(#395),#17,.T.);
#1320=ADVANCED_FACE('',(#396),#312,.T.);
#1321=ADVANCED_FACE('',(#397),#313,.T.);
#1322=ADVANCED_FACE('',(#398),#18,.T.);
#1323=ADVANCED_FACE('',(#399),#314,.T.);
#1324=ADVANCED_FACE('',(#400),#315,.T.);
#1325=ADVANCED_FACE('',(#401),#316,.T.);
#1326=ADVANCED_FACE('',(#402),#317,.T.);
#1327=ADVANCED_FACE('',(#403),#1247,.T.);
#1328=ADVANCED_FACE('',(#404),#1248,.T.);
#1329=ADVANCED_FACE('',(#405),#1249,.F.);
#1330=ADVANCED_FACE('',(#406),#1250,.F.);
#1331=ADVANCED_FACE('',(#407),#1251,.F.);
#1332=ADVANCED_FACE('',(#408),#1252,.F.);
#1333=ADVANCED_FACE('',(#409),#1253,.F.);
#1334=ADVANCED_FACE('',(#410),#1254,.T.);
#1335=ADVANCED_FACE('',(#411),#1255,.T.);
#1336=ADVANCED_FACE('',(#412,#332),#1256,.F.);
#1337=CLOSED_SHELL('',(#1257,#1258,#1259,#1260,#1261,#1262,#1263,#1264,
#1265,#1266,#1267,#1268,#1269,#1270,#1271,#1272,#1273,#1274,#1275,#1276,
#1277,#1278,#1279,#1280,#1281,#1282,#1283,#1284,#1285,#1286,#1287,#1288,
#1289,#1290,#1291,#1292,#1293,#1294,#1295,#1296,#1297,#1298,#1299,#1300,
#1301,#1302,#1303,#1304,#1305,#1306,#1307,#1308,#1309,#1310,#1311,#1312,
#1313,#1314,#1315,#1316,#1317,#1318,#1319,#1320,#1321,#1322,#1323,#1324,
#1325,#1326,#1327,#1328,#1329,#1330,#1331,#1332,#1333,#1334,#1335,#1336));
#1338=DERIVED_UNIT_ELEMENT(#1340,1.);
#1339=DERIVED_UNIT_ELEMENT(#2246,-3.);
#1340=(
MASS_UNIT()
NAMED_UNIT(*)
SI_UNIT(.KILO.,.GRAM.)
);
#1341=DERIVED_UNIT((#1338,#1339));
#1342=MEASURE_REPRESENTATION_ITEM('density measure',
POSITIVE_RATIO_MEASURE(7850.),#1341);
#1343=PROPERTY_DEFINITION_REPRESENTATION(#1348,#1345);
#1344=PROPERTY_DEFINITION_REPRESENTATION(#1349,#1346);
#1345=REPRESENTATION('material name',(#1347),#2243);
#1346=REPRESENTATION('density',(#1342),#2243);
#1347=DESCRIPTIVE_REPRESENTATION_ITEM('Steel','Steel');
#1348=PROPERTY_DEFINITION('material property','material name',#2253);
#1349=PROPERTY_DEFINITION('material property','density of part',#2253);
#1350=AXIS2_PLACEMENT_3D('',#1866,#1477,#1478);
#1351=AXIS2_PLACEMENT_3D('',#1867,#1479,#1480);
#1352=AXIS2_PLACEMENT_3D('',#1869,#1481,#1482);
#1353=AXIS2_PLACEMENT_3D('',#1871,#1483,#1484);
#1354=AXIS2_PLACEMENT_3D('',#1872,#1485,#1486);
#1355=AXIS2_PLACEMENT_3D('',#1874,#1487,#1488);
#1356=AXIS2_PLACEMENT_3D('',#1876,#1489,#1490);
#1357=AXIS2_PLACEMENT_3D('',#1877,#1491,#1492);
#1358=AXIS2_PLACEMENT_3D('',#1879,#1493,#1494);
#1359=AXIS2_PLACEMENT_3D('',#1881,#1495,#1496);
#1360=AXIS2_PLACEMENT_3D('',#1882,#1497,#1498);
#1361=AXIS2_PLACEMENT_3D('',#1884,#1499,#1500);
#1362=AXIS2_PLACEMENT_3D('',#1886,#1501,#1502);
#1363=AXIS2_PLACEMENT_3D('',#1887,#1503,#1504);
#1364=AXIS2_PLACEMENT_3D('',#1890,#1506,#1507);
#1365=AXIS2_PLACEMENT_3D('',#1891,#1508,#1509);
#1366=AXIS2_PLACEMENT_3D('',#1893,#1510,#1511);
#1367=AXIS2_PLACEMENT_3D('',#1895,#1513,#1514);
#1368=AXIS2_PLACEMENT_3D('',#1896,#1515,#1516);
#1369=AXIS2_PLACEMENT_3D('',#1898,#1517,#1518);
#1370=AXIS2_PLACEMENT_3D('',#1900,#1520,#1521);
#1371=AXIS2_PLACEMENT_3D('',#1901,#1522,#1523);
#1372=AXIS2_PLACEMENT_3D('',#1903,#1524,#1525);
#1373=AXIS2_PLACEMENT_3D('',#1905,#1527,#1528);
#1374=AXIS2_PLACEMENT_3D('',#1906,#1529,#1530);
#1375=AXIS2_PLACEMENT_3D('',#1910,#1532,#1533);
#1376=AXIS2_PLACEMENT_3D('',#1912,#1534,#1535);
#1377=AXIS2_PLACEMENT_3D('',#1913,#1536,#1537);
#1378=AXIS2_PLACEMENT_3D('',#1915,#1538,#1539);
#1379=AXIS2_PLACEMENT_3D('',#1917,#1540,#1541);
#1380=AXIS2_PLACEMENT_3D('',#1918,#1542,#1543);
#1381=AXIS2_PLACEMENT_3D('',#1920,#1545,#1546);
#1382=AXIS2_PLACEMENT_3D('',#1925,#1549,#1550);
#1383=AXIS2_PLACEMENT_3D('',#1926,#1551,#1552);
#1384=AXIS2_PLACEMENT_3D('',#1933,#1557,#1558);
#1385=AXIS2_PLACEMENT_3D('',#1943,#1563,#1564);
#1386=AXIS2_PLACEMENT_3D('',#1945,#1565,#1566);
#1387=AXIS2_PLACEMENT_3D('',#1948,#1567,#1568);
#1388=AXIS2_PLACEMENT_3D('',#1950,#1569,#1570);
#1389=AXIS2_PLACEMENT_3D('',#1973,#1583,#1584);
#1390=AXIS2_PLACEMENT_3D('',#1975,#1586,#1587);
#1391=AXIS2_PLACEMENT_3D('',#1982,#1592,#1593);
#1392=AXIS2_PLACEMENT_3D('',#1984,#1595,#1596);
#1393=AXIS2_PLACEMENT_3D('',#1987,#1598,#1599);
#1394=AXIS2_PLACEMENT_3D('',#1988,#1600,#1601);
#1395=AXIS2_PLACEMENT_3D('',#1997,#1606,#1607);
#1396=AXIS2_PLACEMENT_3D('',#2003,#1611,#1612);
#1397=AXIS2_PLACEMENT_3D('',#2009,#1616,#1617);
#1398=AXIS2_PLACEMENT_3D('',#2027,#1627,#1628);
#1399=AXIS2_PLACEMENT_3D('',#2030,#1631,#1632);
#1400=AXIS2_PLACEMENT_3D('',#2033,#1635,#1636);
#1401=AXIS2_PLACEMENT_3D('',#2039,#1640,#1641);
#1402=AXIS2_PLACEMENT_3D('',#2043,#1644,#1645);
#1403=AXIS2_PLACEMENT_3D('',#2069,#1660,#1661);
#1404=AXIS2_PLACEMENT_3D('',#2072,#1664,#1665);
#1405=AXIS2_PLACEMENT_3D('',#2082,#1671,#1672);
#1406=AXIS2_PLACEMENT_3D('',#2084,#1674,#1675);
#1407=AXIS2_PLACEMENT_3D('',#2086,#1677,#1678);
#1408=AXIS2_PLACEMENT_3D('',#2087,#1679,#1680);
#1409=AXIS2_PLACEMENT_3D('',#2089,#1682,#1683);
#1410=AXIS2_PLACEMENT_3D('',#2093,#1686,#1687);
#1411=AXIS2_PLACEMENT_3D('',#2094,#1688,#1689);
#1412=AXIS2_PLACEMENT_3D('',#2096,#1691,#1692);
#1413=AXIS2_PLACEMENT_3D('',#2098,#1694,#1695);
#1414=AXIS2_PLACEMENT_3D('',#2099,#1696,#1697);
#1415=AXIS2_PLACEMENT_3D('',#2101,#1699,#1700);
#1416=AXIS2_PLACEMENT_3D('',#2102,#1701,#1702);
#1417=AXIS2_PLACEMENT_3D('',#2106,#1705,#1706);
#1418=AXIS2_PLACEMENT_3D('',#2109,#1708,#1709);
#1419=AXIS2_PLACEMENT_3D('',#2110,#1710,#1711);
#1420=AXIS2_PLACEMENT_3D('',#2113,#1713,#1714);
#1421=AXIS2_PLACEMENT_3D('',#2114,#1715,#1716);
#1422=AXIS2_PLACEMENT_3D('',#2115,#1717,#1718);
#1423=AXIS2_PLACEMENT_3D('',#2117,#1719,#1720);
#1424=AXIS2_PLACEMENT_3D('',#2119,#1722,#1723);
#1425=AXIS2_PLACEMENT_3D('',#2120,#1724,#1725);
#1426=AXIS2_PLACEMENT_3D('',#2122,#1726,#1727);
#1427=AXIS2_PLACEMENT_3D('',#2124,#1729,#1730);
#1428=AXIS2_PLACEMENT_3D('',#2125,#1731,#1732);
#1429=AXIS2_PLACEMENT_3D('',#2129,#1734,#1735);
#1430=AXIS2_PLACEMENT_3D('',#2132,#1737,#1738);
#1431=AXIS2_PLACEMENT_3D('',#2133,#1739,#1740);
#1432=AXIS2_PLACEMENT_3D('',#2136,#1742,#1743);
#1433=AXIS2_PLACEMENT_3D('',#2137,#1744,#1745);
#1434=AXIS2_PLACEMENT_3D('',#2142,#1748,#1749);
#1435=AXIS2_PLACEMENT_3D('',#2143,#1750,#1751);
#1436=AXIS2_PLACEMENT_3D('',#2146,#1754,#1755);
#1437=AXIS2_PLACEMENT_3D('',#2149,#1758,#1759);
#1438=AXIS2_PLACEMENT_3D('',#2150,#1760,#1761);
#1439=AXIS2_PLACEMENT_3D('',#2159,#1766,#1767);
#1440=AXIS2_PLACEMENT_3D('',#2161,#1768,#1769);
#1441=AXIS2_PLACEMENT_3D('',#2163,#1770,#1771);
#1442=AXIS2_PLACEMENT_3D('',#2164,#1772,#1773);
#1443=AXIS2_PLACEMENT_3D('',#2165,#1774,#1775);
#1444=AXIS2_PLACEMENT_3D('',#2168,#1776,#1777);
#1445=AXIS2_PLACEMENT_3D('',#2171,#1780,#1781);
#1446=AXIS2_PLACEMENT_3D('',#2173,#1782,#1783);
#1447=AXIS2_PLACEMENT_3D('',#2175,#1784,#1785);
#1448=AXIS2_PLACEMENT_3D('',#2176,#1786,#1787);
#1449=AXIS2_PLACEMENT_3D('',#2177,#1788,#1789);
#1450=AXIS2_PLACEMENT_3D('',#2180,#1790,#1791);
#1451=AXIS2_PLACEMENT_3D('',#2183,#1794,#1795);
#1452=AXIS2_PLACEMENT_3D('',#2185,#1796,#1797);
#1453=AXIS2_PLACEMENT_3D('',#2187,#1798,#1799);
#1454=AXIS2_PLACEMENT_3D('',#2188,#1800,#1801);
#1455=AXIS2_PLACEMENT_3D('',#2189,#1802,#1803);
#1456=AXIS2_PLACEMENT_3D('',#2192,#1804,#1805);
#1457=AXIS2_PLACEMENT_3D('',#2195,#1808,#1809);
#1458=AXIS2_PLACEMENT_3D('',#2197,#1811,#1812);
#1459=AXIS2_PLACEMENT_3D('',#2199,#1813,#1814);
#1460=AXIS2_PLACEMENT_3D('',#2201,#1815,#1816);
#1461=AXIS2_PLACEMENT_3D('',#2202,#1817,#1818);
#1462=AXIS2_PLACEMENT_3D('',#2203,#1819,#1820);
#1463=AXIS2_PLACEMENT_3D('',#2206,#1821,#1822);
#1464=AXIS2_PLACEMENT_3D('',#2209,#1825,#1826);
#1465=AXIS2_PLACEMENT_3D('',#2211,#1828,#1829);
#1466=AXIS2_PLACEMENT_3D('',#2213,#1831,#1832);
#1467=AXIS2_PLACEMENT_3D('',#2215,#1834,#1835);
#1468=AXIS2_PLACEMENT_3D('',#2217,#1837,#1838);
#1469=AXIS2_PLACEMENT_3D('',#2219,#1840,#1841);
#1470=AXIS2_PLACEMENT_3D('',#2220,#1842,#1843);
#1471=AXIS2_PLACEMENT_3D('',#2226,#1847,#1848);
#1472=AXIS2_PLACEMENT_3D('',#2230,#1851,#1852);
#1473=AXIS2_PLACEMENT_3D('',#2234,#1855,#1856);
#1474=AXIS2_PLACEMENT_3D('',#2236,#1858,#1859);
#1475=AXIS2_PLACEMENT_3D('',#2238,#1861,#1862);
#1476=AXIS2_PLACEMENT_3D('',#2240,#1864,#1865);
#1477=DIRECTION('axis',(0.,0.,1.));
#1478=DIRECTION('refdir',(1.,0.,0.));
#1479=DIRECTION('center_axis',(0.,0.,-1.));
#1480=DIRECTION('ref_axis',(1.,0.,0.));
#1481=DIRECTION('center_axis',(0.,0.,1.));
#1482=DIRECTION('ref_axis',(1.,0.,0.));
#1483=DIRECTION('center_axis',(0.,0.,1.));
#1484=DIRECTION('ref_axis',(1.,0.,0.));
#1485=DIRECTION('center_axis',(0.,0.,-1.));
#1486=DIRECTION('ref_axis',(1.,0.,0.));
#1487=DIRECTION('center_axis',(0.,0.,1.));
#1488=DIRECTION('ref_axis',(1.,0.,0.));
#1489=DIRECTION('center_axis',(0.,0.,1.));
#1490=DIRECTION('ref_axis',(1.,0.,0.));
#1491=DIRECTION('center_axis',(0.,0.,-1.));
#1492=DIRECTION('ref_axis',(1.,0.,0.));
#1493=DIRECTION('center_axis',(0.,0.,1.));
#1494=DIRECTION('ref_axis',(1.,0.,0.));
#1495=DIRECTION('center_axis',(0.,0.,1.));
#1496=DIRECTION('ref_axis',(1.,0.,0.));
#1497=DIRECTION('center_axis',(0.,0.,-1.));
#1498=DIRECTION('ref_axis',(1.,0.,0.));
#1499=DIRECTION('center_axis',(0.,0.,1.));
#1500=DIRECTION('ref_axis',(1.,0.,0.));
#1501=DIRECTION('center_axis',(0.,0.,1.));
#1502=DIRECTION('ref_axis',(1.,0.,0.));
#1503=DIRECTION('center_axis',(0.,0.,-1.));
#1504=DIRECTION('ref_axis',(1.,0.,0.));
#1505=DIRECTION('',(0.,0.,1.));
#1506=DIRECTION('center_axis',(0.,0.,-1.));
#1507=DIRECTION('ref_axis',(1.,0.,0.));
#1508=DIRECTION('center_axis',(0.,0.,-1.));
#1509=DIRECTION('ref_axis',(1.,0.,0.));
#1510=DIRECTION('center_axis',(0.,0.,-1.));
#1511=DIRECTION('ref_axis',(1.,0.,0.));
#1512=DIRECTION('',(0.,0.,-1.));
#1513=DIRECTION('center_axis',(0.,0.,-1.));
#1514=DIRECTION('ref_axis',(1.,0.,0.));
#1515=DIRECTION('center_axis',(0.,0.,-1.));
#1516=DIRECTION('ref_axis',(1.,0.,0.));
#1517=DIRECTION('center_axis',(0.,0.,-1.));
#1518=DIRECTION('ref_axis',(1.,0.,0.));
#1519=DIRECTION('',(0.,0.,-1.));
#1520=DIRECTION('center_axis',(0.,0.,-1.));
#1521=DIRECTION('ref_axis',(1.,0.,0.));
#1522=DIRECTION('center_axis',(0.,0.,-1.));
#1523=DIRECTION('ref_axis',(1.,0.,0.));
#1524=DIRECTION('center_axis',(0.,0.,-1.));
#1525=DIRECTION('ref_axis',(1.,0.,0.));
#1526=DIRECTION('',(0.,0.,-1.));
#1527=DIRECTION('center_axis',(0.,0.,-1.));
#1528=DIRECTION('ref_axis',(1.,0.,0.));
#1529=DIRECTION('center_axis',(0.,0.,-1.));
#1530=DIRECTION('ref_axis',(1.,0.,0.));
#1531=DIRECTION('',(-2.92163953161318E-17,-1.,0.));
#1532=DIRECTION('center_axis',(0.,0.,-1.));
#1533=DIRECTION('ref_axis',(1.,0.,0.));
#1534=DIRECTION('center_axis',(0.,0.,1.));
#1535=DIRECTION('ref_axis',(1.,0.,0.));
#1536=DIRECTION('center_axis',(0.,0.,-1.));
#1537=DIRECTION('ref_axis',(1.,0.,0.));
#1538=DIRECTION('center_axis',(0.,0.,-1.));
#1539=DIRECTION('ref_axis',(1.,0.,0.));
#1540=DIRECTION('center_axis',(0.,0.,1.));
#1541=DIRECTION('ref_axis',(1.,0.,0.));
#1542=DIRECTION('center_axis',(0.,0.,-1.));
#1543=DIRECTION('ref_axis',(1.,0.,0.));
#1544=DIRECTION('',(0.,0.,1.));
#1545=DIRECTION('center_axis',(0.,0.,-1.));
#1546=DIRECTION('ref_axis',(1.,0.,0.));
#1547=DIRECTION('',(0.,0.,1.));
#1548=DIRECTION('',(0.,0.,-1.));
#1549=DIRECTION('center_axis',(0.,0.,1.));
#1550=DIRECTION('ref_axis',(1.,0.,0.));
#1551=DIRECTION('center_axis',(1.,0.,0.));
#1552=DIRECTION('ref_axis',(0.,-1.,0.));
#1553=DIRECTION('',(0.,0.,-1.));
#1554=DIRECTION('',(0.,1.,0.));
#1555=DIRECTION('',(0.,0.,-1.));
#1556=DIRECTION('',(0.,-1.,0.));
#1557=DIRECTION('center_axis',(0.,0.,-1.));
#1558=DIRECTION('ref_axis',(1.,0.,0.));
#1559=DIRECTION('',(1.,0.,0.));
#1560=DIRECTION('',(0.,-1.,0.));
#1561=DIRECTION('',(-1.,0.,0.));
#1562=DIRECTION('',(0.,1.,0.));
#1563=DIRECTION('center_axis',(0.,0.,1.));
#1564=DIRECTION('ref_axis',(1.,0.,0.));
#1565=DIRECTION('center_axis',(0.,0.,1.));
#1566=DIRECTION('ref_axis',(1.,0.,0.));
#1567=DIRECTION('center_axis',(0.,0.,1.));
#1568=DIRECTION('ref_axis',(1.,0.,0.));
#1569=DIRECTION('center_axis',(0.,0.,1.));
#1570=DIRECTION('ref_axis',(1.,0.,0.));
#1571=DIRECTION('',(1.,0.,0.));
#1572=DIRECTION('',(0.,-1.,0.));
#1573=DIRECTION('',(1.,0.,0.));
#1574=DIRECTION('',(0.,1.,0.));
#1575=DIRECTION('',(1.,0.,0.));
#1576=DIRECTION('',(0.,1.,0.));
#1577=DIRECTION('',(-1.,0.,0.));
#1578=DIRECTION('',(0.,1.,0.));
#1579=DIRECTION('',(-1.,0.,0.));
#1580=DIRECTION('',(0.,-1.,0.));
#1581=DIRECTION('',(-1.,0.,0.));
#1582=DIRECTION('',(0.,-1.,0.));
#1583=DIRECTION('center_axis',(0.,0.,-1.));
#1584=DIRECTION('ref_axis',(1.,0.,0.));
#1585=DIRECTION('',(0.,0.,1.));
#1586=DIRECTION('center_axis',(0.,0.,-1.));
#1587=DIRECTION('ref_axis',(-0.999999999999988,-1.54857406576065E-7,0.));
#1588=DIRECTION('',(0.,0.,1.));
#1589=DIRECTION('',(0.,0.,-1.));
#1590=DIRECTION('',(0.,0.,-1.));
#1591=DIRECTION('',(0.,0.,-1.));
#1592=DIRECTION('center_axis',(1.,-2.92163953161318E-17,0.));
#1593=DIRECTION('ref_axis',(-2.92163953161318E-17,-1.,0.));
#1594=DIRECTION('',(0.,1.,0.));
#1595=DIRECTION('center_axis',(0.,0.,1.));
#1596=DIRECTION('ref_axis',(1.,0.,0.));
#1597=DIRECTION('',(0.,0.,1.));
#1598=DIRECTION('center_axis',(0.,0.,-1.));
#1599=DIRECTION('ref_axis',(1.,0.,0.));
#1600=DIRECTION('center_axis',(0.,-1.,0.));
#1601=DIRECTION('ref_axis',(0.,0.,-1.));
#1602=DIRECTION('',(1.,0.,0.));
#1603=DIRECTION('',(0.,0.,-1.));
#1604=DIRECTION('',(-1.,0.,0.));
#1605=DIRECTION('',(0.,0.,1.));
#1606=DIRECTION('center_axis',(1.,0.,0.));
#1607=DIRECTION('ref_axis',(0.,1.,0.));
#1608=DIRECTION('',(0.,1.,0.));
#1609=DIRECTION('',(0.,0.,1.));
#1610=DIRECTION('',(0.,-1.,0.));
#1611=DIRECTION('center_axis',(-1.,0.,0.));
#1612=DIRECTION('ref_axis',(0.,-1.,0.));
#1613=DIRECTION('',(0.,1.,0.));
#1614=DIRECTION('',(0.,0.,1.));
#1615=DIRECTION('',(0.,-1.,0.));
#1616=DIRECTION('center_axis',(0.,0.,-1.));
#1617=DIRECTION('ref_axis',(-1.,0.,0.));
#1618=DIRECTION('',(1.,0.,0.));
#1619=DIRECTION('',(0.,-1.,0.));
#1620=DIRECTION('',(-1.,0.,0.));
#1621=DIRECTION('',(0.,-1.,0.));
#1622=DIRECTION('',(1.,0.,0.));
#1623=DIRECTION('',(0.,1.,0.));
#1624=DIRECTION('',(-1.,0.,0.));
#1625=DIRECTION('',(0.,1.,0.));
#1626=DIRECTION('',(1.,0.,0.));
#1627=DIRECTION('center_axis',(-1.,0.,0.));
#1628=DIRECTION('ref_axis',(0.,1.,0.));
#1629=DIRECTION('',(0.,0.,-1.));
#1630=DIRECTION('',(0.,0.,-1.));
#1631=DIRECTION('center_axis',(1.,0.,0.));
#1632=DIRECTION('ref_axis',(0.,-1.,0.));
#1633=DIRECTION('',(0.,0.,1.));
#1634=DIRECTION('',(0.,0.,-1.));
#1635=DIRECTION('center_axis',(0.,1.,0.));
#1636=DIRECTION('ref_axis',(1.,0.,0.));
#1637=DIRECTION('',(0.,0.,-1.));
#1638=DIRECTION('',(1.,0.,0.));
#1639=DIRECTION('',(0.,0.,1.));
#1640=DIRECTION('center_axis',(1.,0.,0.));
#1641=DIRECTION('ref_axis',(0.,0.,-1.));
#1642=DIRECTION('',(0.,1.,0.));
#1643=DIRECTION('',(0.,0.,-1.));
#1644=DIRECTION('center_axis',(0.,0.,-1.));
#1645=DIRECTION('ref_axis',(1.,0.,0.));
#1646=DIRECTION('',(0.,-1.,0.));
#1647=DIRECTION('',(-1.,0.,0.));
#1648=DIRECTION('',(0.,-1.,0.));
#1649=DIRECTION('',(-1.,0.,0.));
#1650=DIRECTION('',(0.,1.,0.));
#1651=DIRECTION('',(-1.,0.,0.));
#1652=DIRECTION('',(0.,1.,0.));
#1653=DIRECTION('',(1.,0.,0.));
#1654=DIRECTION('',(0.,-1.,0.));
#1655=DIRECTION('',(-1.,0.,0.));
#1656=DIRECTION('',(0.,-1.,0.));
#1657=DIRECTION('',(1.,0.,0.));
#1658=DIRECTION('',(0.,1.,0.));
#1659=DIRECTION('',(-1.,0.,0.));
#1660=DIRECTION('center_axis',(-1.,0.,0.));
#1661=DIRECTION('ref_axis',(0.,0.,1.));
#1662=DIRECTION('',(0.,0.,-1.));
#1663=DIRECTION('',(0.,0.,1.));
#1664=DIRECTION('center_axis',(0.,-1.,0.));
#1665=DIRECTION('ref_axis',(0.,0.,-1.));
#1666=DIRECTION('',(0.,0.,-1.));
#1667=DIRECTION('',(1.,0.,0.));
#1668=DIRECTION('',(0.,0.,1.));
#1669=DIRECTION('',(1.,0.,0.));
#1670=DIRECTION('',(0.,0.,-1.));
#1671=DIRECTION('center_axis',(0.,1.,0.));
#1672=DIRECTION('ref_axis',(1.,0.,0.));
#1673=DIRECTION('',(0.,0.,-1.));
#1674=DIRECTION('center_axis',(0.,-1.,0.));
#1675=DIRECTION('ref_axis',(1.,0.,0.));
#1676=DIRECTION('',(-1.,0.,0.));
#1677=DIRECTION('center_axis',(0.,1.,0.));
#1678=DIRECTION('ref_axis',(1.,0.,0.));
#1679=DIRECTION('center_axis',(1.,0.,0.));
#1680=DIRECTION('ref_axis',(0.,-1.,0.));
#1681=DIRECTION('',(0.,0.,-1.));
#1682=DIRECTION('center_axis',(1.,0.,0.));
#1683=DIRECTION('ref_axis',(0.,-1.,0.));
#1684=DIRECTION('',(0.,1.,0.));
#1685=DIRECTION('',(0.,0.,-1.));
#1686=DIRECTION('center_axis',(-1.,0.,0.));
#1687=DIRECTION('ref_axis',(0.,1.,0.));
#1688=DIRECTION('center_axis',(0.,-1.,0.));
#1689=DIRECTION('ref_axis',(-1.,0.,0.));
#1690=DIRECTION('',(0.,0.,-1.));
#1691=DIRECTION('center_axis',(-1.,0.,0.));
#1692=DIRECTION('ref_axis',(0.,1.,0.));
#1693=DIRECTION('',(0.,0.,-1.));
#1694=DIRECTION('center_axis',(0.,-1.,0.));
#1695=DIRECTION('ref_axis',(-1.,0.,0.));
#1696=DIRECTION('center_axis',(0.,-1.,0.));
#1697=DIRECTION('ref_axis',(-1.,0.,0.));
#1698=DIRECTION('',(0.,0.,-1.));
#1699=DIRECTION('center_axis',(1.,0.,0.));
#1700=DIRECTION('ref_axis',(0.,-1.,0.));
#1701=DIRECTION('center_axis',(0.,0.,-1.));
#1702=DIRECTION('ref_axis',(-1.,0.,0.));
#1703=DIRECTION('',(-1.,0.,0.));
#1704=DIRECTION('',(0.,-1.,0.));
#1705=DIRECTION('center_axis',(0.,0.,-1.));
#1706=DIRECTION('ref_axis',(1.,0.,0.));
#1707=DIRECTION('',(0.,0.,-1.));
#1708=DIRECTION('center_axis',(0.,0.,1.));
#1709=DIRECTION('ref_axis',(1.,0.,0.));
#1710=DIRECTION('center_axis',(0.,0.,-1.));
#1711=DIRECTION('ref_axis',(1.,0.,0.));
#1712=DIRECTION('',(0.,0.,-1.));
#1713=DIRECTION('center_axis',(0.,0.,1.));
#1714=DIRECTION('ref_axis',(1.,0.,0.));
#1715=DIRECTION('center_axis',(0.,0.,-1.));
#1716=DIRECTION('ref_axis',(1.,0.,0.));
#1717=DIRECTION('center_axis',(0.,0.,-1.));
#1718=DIRECTION('ref_axis',(1.,0.,0.));
#1719=DIRECTION('center_axis',(0.,0.,-1.));
#1720=DIRECTION('ref_axis',(1.,0.,0.));
#1721=DIRECTION('',(0.,0.,1.));
#1722=DIRECTION('center_axis',(0.,0.,-1.));
#1723=DIRECTION('ref_axis',(1.,0.,0.));
#1724=DIRECTION('center_axis',(0.,0.,-1.));
#1725=DIRECTION('ref_axis',(1.,0.,0.));
#1726=DIRECTION('center_axis',(0.,0.,-1.));
#1727=DIRECTION('ref_axis',(1.,0.,0.));
#1728=DIRECTION('',(0.,0.,1.));
#1729=DIRECTION('center_axis',(0.,0.,-1.));
#1730=DIRECTION('ref_axis',(1.,0.,0.));
#1731=DIRECTION('center_axis',(0.,-1.,0.));
#1732=DIRECTION('ref_axis',(-0.707106781186554,0.,0.707106781186541));
#1733=DIRECTION('',(0.,1.,0.));
#1734=DIRECTION('center_axis',(0.707106781186544,-0.707106781186551,0.));
#1735=DIRECTION('ref_axis',(0.707106781186551,0.707106781186544,0.));
#1736=DIRECTION('',(0.,-1.,0.));
#1737=DIRECTION('center_axis',(0.707106781186548,0.707106781186548,0.));
#1738=DIRECTION('ref_axis',(-0.707106781186548,0.707106781186548,0.));
#1739=DIRECTION('center_axis',(-1.,0.,0.));
#1740=DIRECTION('ref_axis',(0.,-0.707106781186548,0.707106781186548));
#1741=DIRECTION('',(-1.,0.,0.));
#1742=DIRECTION('center_axis',(0.707106781186546,0.707106781186549,0.));
#1743=DIRECTION('ref_axis',(0.707106781186549,-0.707106781186546,0.));
#1744=DIRECTION('center_axis',(0.,1.,0.));
#1745=DIRECTION('ref_axis',(0.707106781186548,0.,0.707106781186548));
#1746=DIRECTION('',(0.,1.,0.));
#1747=DIRECTION('',(0.,-1.,0.));
#1748=DIRECTION('center_axis',(-0.707106781186552,0.707106781186543,0.));
#1749=DIRECTION('ref_axis',(-0.707106781186543,-0.707106781186552,0.));
#1750=DIRECTION('center_axis',(-1.,0.,0.));
#1751=DIRECTION('ref_axis',(0.,0.707106781186554,0.707106781186541));
#1752=DIRECTION('',(1.,0.,0.));
#1753=DIRECTION('',(-1.,0.,0.));
#1754=DIRECTION('center_axis',(0.,-1.,0.));
#1755=DIRECTION('ref_axis',(0.,0.,-1.));
#1756=DIRECTION('',(0.,0.,1.));
#1757=DIRECTION('',(0.,0.,-1.));
#1758=DIRECTION('center_axis',(1.,0.,0.));
#1759=DIRECTION('ref_axis',(0.,-1.,0.));
#1760=DIRECTION('center_axis',(0.,0.,1.));
#1761=DIRECTION('ref_axis',(1.,0.,0.));
#1762=DIRECTION('',(0.,1.,0.));
#1763=DIRECTION('',(-1.,0.,0.));
#1764=DIRECTION('',(0.,-1.,0.));
#1765=DIRECTION('',(1.,0.,0.));
#1766=DIRECTION('center_axis',(-0.81649658092773,0.408248290463856,-0.408248290463863));
#1767=DIRECTION('ref_axis',(-0.577350269189622,-0.577350269189638,0.577350269189617));
#1768=DIRECTION('center_axis',(0.,-1.,0.));
#1769=DIRECTION('ref_axis',(-1.,0.,0.));
#1770=DIRECTION('center_axis',(0.,0.,1.));
#1771=DIRECTION('ref_axis',(0.,-1.,0.));
#1772=DIRECTION('center_axis',(-1.,0.,0.));
#1773=DIRECTION('ref_axis',(0.,0.,1.));
#1774=DIRECTION('center_axis',(0.,0.,1.));
#1775=DIRECTION('ref_axis',(-0.707106781186543,-0.707106781186553,0.));
#1776=DIRECTION('center_axis',(0.,0.,1.));
#1777=DIRECTION('ref_axis',(-0.707106781186543,-0.707106781186553,0.));
#1778=DIRECTION('',(0.,0.,1.));
#1779=DIRECTION('',(0.,0.,-1.));
#1780=DIRECTION('center_axis',(-0.816496580927733,-0.408248290463852,0.40824829046386));
#1781=DIRECTION('ref_axis',(0.577350269189623,-0.577350269189623,0.577350269189631));
#1782=DIRECTION('center_axis',(1.,0.,0.));
#1783=DIRECTION('ref_axis',(0.,-1.,0.));
#1784=DIRECTION('center_axis',(0.,0.,1.));
#1785=DIRECTION('ref_axis',(1.,0.,0.));
#1786=DIRECTION('center_axis',(0.,-1.,0.));
#1787=DIRECTION('ref_axis',(0.,0.,1.));
#1788=DIRECTION('center_axis',(0.,0.,1.));
#1789=DIRECTION('ref_axis',(0.707106781186548,-0.707106781186548,0.));
#1790=DIRECTION('center_axis',(0.,0.,1.));
#1791=DIRECTION('ref_axis',(0.707106781186548,-0.707106781186548,0.));
#1792=DIRECTION('',(0.,0.,1.));
#1793=DIRECTION('',(0.,0.,-1.));
#1794=DIRECTION('center_axis',(-0.816496580927728,-0.408248290463862,-0.408248290463861));
#1795=DIRECTION('ref_axis',(-0.577350269189623,0.577350269189629,0.577350269189625));
#1796=DIRECTION('center_axis',(-1.,0.,0.));
#1797=DIRECTION('ref_axis',(0.,1.,0.));
#1798=DIRECTION('center_axis',(0.,0.,1.));
#1799=DIRECTION('ref_axis',(-1.,0.,0.));
#1800=DIRECTION('center_axis',(0.,1.,0.));
#1801=DIRECTION('ref_axis',(0.,0.,1.));
#1802=DIRECTION('center_axis',(0.,0.,1.));
#1803=DIRECTION('ref_axis',(-0.707106781186546,0.707106781186549,0.));
#1804=DIRECTION('center_axis',(0.,0.,1.));
#1805=DIRECTION('ref_axis',(-0.707106781186546,0.707106781186549,0.));
#1806=DIRECTION('',(0.,0.,1.));
#1807=DIRECTION('',(0.,0.,-1.));
#1808=DIRECTION('center_axis',(0.,-1.,0.));
#1809=DIRECTION('ref_axis',(-0.707106781186544,0.,0.707106781186551));
#1810=DIRECTION('',(0.,-1.,0.));
#1811=DIRECTION('center_axis',(0.408248290463862,0.40824829046386,-0.816496580927728));
#1812=DIRECTION('ref_axis',(0.577350269189627,0.577350269189623,0.577350269189627));
#1813=DIRECTION('center_axis',(0.,1.,0.));
#1814=DIRECTION('ref_axis',(1.,0.,0.));
#1815=DIRECTION('center_axis',(0.,0.,1.));
#1816=DIRECTION('ref_axis',(0.,1.,0.));
#1817=DIRECTION('center_axis',(1.,0.,0.));
#1818=DIRECTION('ref_axis',(0.,0.,1.));
#1819=DIRECTION('center_axis',(0.,0.,1.));
#1820=DIRECTION('ref_axis',(0.707106781186554,0.707106781186541,0.));
#1821=DIRECTION('center_axis',(0.,0.,1.));
#1822=DIRECTION('ref_axis',(0.707106781186554,0.707106781186541,0.));
#1823=DIRECTION('',(0.,0.,1.));
#1824=DIRECTION('',(0.,0.,-1.));
#1825=DIRECTION('center_axis',(-1.,0.,0.));
#1826=DIRECTION('ref_axis',(0.,0.707106781186544,0.707106781186551));
#1827=DIRECTION('',(-1.,0.,0.));
#1828=DIRECTION('center_axis',(0.,1.,0.));
#1829=DIRECTION('ref_axis',(0.707106781186551,0.,0.707106781186544));
#1830=DIRECTION('',(0.,1.,0.));
#1831=DIRECTION('center_axis',(1.,0.,0.));
#1832=DIRECTION('ref_axis',(0.,-0.707106781186551,0.707106781186544));
#1833=DIRECTION('',(1.,0.,0.));
#1834=DIRECTION('center_axis',(-1.,0.,0.));
#1835=DIRECTION('ref_axis',(0.,-1.,0.));
#1836=DIRECTION('',(0.,1.,0.));
#1837=DIRECTION('center_axis',(0.,1.,0.));
#1838=DIRECTION('ref_axis',(-1.,0.,0.));
#1839=DIRECTION('',(1.,0.,0.));
#1840=DIRECTION('center_axis',(-1.,0.,0.));
#1841=DIRECTION('ref_axis',(0.,1.,0.));
#1842=DIRECTION('center_axis',(0.,1.,0.));
#1843=DIRECTION('ref_axis',(-1.,0.,0.));
#1844=DIRECTION('',(0.,0.,-1.));
#1845=DIRECTION('',(-1.,0.,0.));
#1846=DIRECTION('',(0.,0.,-1.));
#1847=DIRECTION('center_axis',(-1.,0.,0.));
#1848=DIRECTION('ref_axis',(0.,-1.,0.));
#1849=DIRECTION('',(0.,0.,1.));
#1850=DIRECTION('',(0.,-1.,0.));
#1851=DIRECTION('center_axis',(1.,0.,0.));
#1852=DIRECTION('ref_axis',(0.,1.,0.));
#1853=DIRECTION('',(0.,1.,0.));
#1854=DIRECTION('',(0.,0.,-1.));
#1855=DIRECTION('center_axis',(0.,-1.,0.));
#1856=DIRECTION('ref_axis',(1.,0.,0.));
#1857=DIRECTION('',(1.,0.,0.));
#1858=DIRECTION('center_axis',(1.,0.,0.));
#1859=DIRECTION('ref_axis',(0.,1.,0.));
#1860=DIRECTION('',(0.,-1.,0.));
#1861=DIRECTION('center_axis',(0.,-1.,0.));
#1862=DIRECTION('ref_axis',(1.,0.,0.));
#1863=DIRECTION('',(-1.,0.,0.));
#1864=DIRECTION('center_axis',(0.,0.,1.));
#1865=DIRECTION('ref_axis',(1.,0.,0.));
#1866=CARTESIAN_POINT('',(0.,0.,0.));
#1867=CARTESIAN_POINT('Origin',(5.00000007450581,-91.0000013560057,3.5));
#1868=CARTESIAN_POINT('',(2.65000007450581,-90.0000013411045,3.5));
#1869=CARTESIAN_POINT('Origin',(5.00000007450581,-90.0000013411045,3.5));
#1870=CARTESIAN_POINT('',(3.40000007450581,-90.0000013411045,3.5));
#1871=CARTESIAN_POINT('Origin',(5.00000007450581,-90.0000013411045,3.5));
#1872=CARTESIAN_POINT('Origin',(90.0000013411045,-6.00000008940697,3.5));
#1873=CARTESIAN_POINT('',(87.6500013411045,-6.00000008940697,3.5));
#1874=CARTESIAN_POINT('Origin',(90.0000013411045,-6.00000008940697,3.5));
#1875=CARTESIAN_POINT('',(88.4000013411045,-6.00000008940697,3.5));
#1876=CARTESIAN_POINT('Origin',(90.0000013411045,-6.00000008940697,3.5));
#1877=CARTESIAN_POINT('Origin',(5.00000007450581,-6.00000008940697,3.5));
#1878=CARTESIAN_POINT('',(2.65000007450581,-6.00000008940697,3.5));
#1879=CARTESIAN_POINT('Origin',(5.00000007450581,-6.00000008940697,3.5));
#1880=CARTESIAN_POINT('',(3.4000000745058,-6.00000008940697,3.5));
#1881=CARTESIAN_POINT('Origin',(5.00000007450581,-6.00000008940697,3.5));
#1882=CARTESIAN_POINT('Origin',(5.00000007450581,-91.0000013560057,3.5));
#1883=CARTESIAN_POINT('',(87.6500013411045,-90.0000013411045,3.5));
#1884=CARTESIAN_POINT('Origin',(90.0000013411045,-90.0000013411045,3.5));
#1885=CARTESIAN_POINT('',(88.4000013411045,-90.0000013411045,3.5));
#1886=CARTESIAN_POINT('Origin',(90.0000013411045,-90.0000013411045,3.5));
#1887=CARTESIAN_POINT('Origin',(5.00000007450581,-6.00000008940697,10.));
#1888=CARTESIAN_POINT('',(3.4000000745058,-6.00000008940697,10.));
#1889=CARTESIAN_POINT('',(3.4000000745058,-6.00000008940697,10.));
#1890=CARTESIAN_POINT('Origin',(5.00000007450581,-6.00000008940697,10.));
#1891=CARTESIAN_POINT('Origin',(90.0000013411045,-90.0000013411045,10.));
#1892=CARTESIAN_POINT('',(88.4000013411045,-90.0000013411045,10.));
#1893=CARTESIAN_POINT('Origin',(90.0000013411045,-90.0000013411045,10.));
#1894=CARTESIAN_POINT('',(88.4000013411045,-90.0000013411045,10.));
#1895=CARTESIAN_POINT('Origin',(90.0000013411045,-90.0000013411045,10.));
#1896=CARTESIAN_POINT('Origin',(90.0000013411045,-6.00000008940697,10.));
#1897=CARTESIAN_POINT('',(88.4000013411045,-6.00000008940697,10.));
#1898=CARTESIAN_POINT('Origin',(90.0000013411045,-6.00000008940697,10.));
#1899=CARTESIAN_POINT('',(88.4000013411045,-6.00000008940697,10.));
#1900=CARTESIAN_POINT('Origin',(90.0000013411045,-6.00000008940697,10.));
#1901=CARTESIAN_POINT('Origin',(5.00000007450581,-90.0000013411045,10.));
#1902=CARTESIAN_POINT('',(3.40000007450581,-90.0000013411045,10.));
#1903=CARTESIAN_POINT('Origin',(5.00000007450581,-90.0000013411045,10.));
#1904=CARTESIAN_POINT('',(3.40000007450581,-90.0000013411045,10.));
#1905=CARTESIAN_POINT('Origin',(5.00000007450581,-90.0000013411045,10.));
#1906=CARTESIAN_POINT('Origin',(4.98205096595568,-90.0000013411045,-1.));
#1907=CARTESIAN_POINT('',(8.46410170254835,-89.5000014305115,-1.));
#1908=CARTESIAN_POINT('',(8.46410185740556,-90.5000001788139,-1.));
#1909=CARTESIAN_POINT('',(8.46410170254835,-14.5,-1.));
#1910=CARTESIAN_POINT('Origin',(5.00000007450581,-90.0000013411045,-1.));
#1911=CARTESIAN_POINT('',(2.65000007450581,-90.0000013411045,-1.));
#1912=CARTESIAN_POINT('Origin',(5.00000007450581,-90.0000013411045,-1.));
#1913=CARTESIAN_POINT('Origin',(90.0000013411045,-90.0000013411045,-1.));
#1914=CARTESIAN_POINT('',(86.5000013411045,-90.0000013411045,-1.));
#1915=CARTESIAN_POINT('Origin',(90.0000013411045,-90.0000013411045,-1.));
#1916=CARTESIAN_POINT('',(87.6500013411045,-90.0000013411045,-1.));
#1917=CARTESIAN_POINT('Origin',(90.0000013411045,-90.0000013411045,-1.));
#1918=CARTESIAN_POINT('Origin',(90.0000013411045,-90.0000013411045,10.));
#1919=CARTESIAN_POINT('',(87.6500013411045,-90.0000013411045,10.));
#1920=CARTESIAN_POINT('Origin',(90.0000013411045,-90.0000013411045,10.));
#1921=CARTESIAN_POINT('',(86.5,-90.0000013411045,0.999999999999999));
#1922=CARTESIAN_POINT('',(86.5000013411045,-90.0000013411045,10.));
#1923=CARTESIAN_POINT('',(86.5000013411045,-90.0000013411045,10.));
#1924=CARTESIAN_POINT('',(86.5,-90.0000013411045,10.));
#1925=CARTESIAN_POINT('Origin',(90.0000013411045,-90.0000013411045,10.));
#1926=CARTESIAN_POINT('Origin',(86.5,-15.5,10.));
#1927=CARTESIAN_POINT('',(86.5,-90.0000013411045,10.));
#1928=CARTESIAN_POINT('',(86.5000012889504,-92.5000013783574,10.));
#1929=CARTESIAN_POINT('',(86.5,-31.5,10.));
#1930=CARTESIAN_POINT('',(86.5000012889504,-92.5000013783574,0.999999999999999));
#1931=CARTESIAN_POINT('',(86.5000012889504,-92.5000013783574,10.));
#1932=CARTESIAN_POINT('',(86.5,-91.5,0.999999999999999));
#1933=CARTESIAN_POINT('Origin',(5.00000007450581,-91.0000013560057,10.));
#1934=CARTESIAN_POINT('',(-1.5,-96.5,10.));
#1935=CARTESIAN_POINT('',(96.5,-96.5,10.));
#1936=CARTESIAN_POINT('',(22.5,-96.5,10.));
#1937=CARTESIAN_POINT('',(-1.5,1.5,10.));
#1938=CARTESIAN_POINT('',(-1.5,-22.5,10.));
#1939=CARTESIAN_POINT('',(96.5,1.5,10.));
#1940=CARTESIAN_POINT('',(72.5,1.5,10.));
#1941=CARTESIAN_POINT('',(96.5,-72.5,10.));
#1942=CARTESIAN_POINT('',(1.50000007450581,-6.00000008940697,10.));
#1943=CARTESIAN_POINT('Origin',(5.00000007450581,-6.00000008940697,10.));
#1944=CARTESIAN_POINT('',(86.5000000745058,-6.00000008940697,10.));
#1945=CARTESIAN_POINT('Origin',(90.0000000745058,-6.00000008940697,10.));
#1946=CARTESIAN_POINT('',(8.46410170254835,-89.5000014305115,10.));
#1947=CARTESIAN_POINT('',(8.46410170254835,-90.5000001788139,10.));
#1948=CARTESIAN_POINT('Origin',(5.00000007450581,-90.0000013411045,10.));
#1949=CARTESIAN_POINT('',(8.46410170254835,-91.5,10.));
#1950=CARTESIAN_POINT('Origin',(5.00000007450581,-91.000000089407,10.));
#1951=CARTESIAN_POINT('',(8.50000012665987,-91.5000013634562,10.));
#1952=CARTESIAN_POINT('',(28.0000000633299,-91.5,10.));
#1953=CARTESIAN_POINT('',(8.50000012665987,-92.5000013783574,10.));
#1954=CARTESIAN_POINT('',(8.50000012665987,-70.0000006891787,10.));
#1955=CARTESIAN_POINT('',(67.0000006444752,-92.5000013783574,10.));
#1956=CARTESIAN_POINT('',(86.5,-15.5,10.));
#1957=CARTESIAN_POINT('',(86.5,-31.5,10.));
#1958=CARTESIAN_POINT('',(86.5029488878923,-15.5,10.));
#1959=CARTESIAN_POINT('',(67.0014744439461,-15.5,10.));
#1960=CARTESIAN_POINT('',(86.5029488878923,-14.5,10.));
#1961=CARTESIAN_POINT('',(86.5029488878923,-31.,10.));
#1962=CARTESIAN_POINT('',(62.4996730031188,-14.5,10.));
#1963=CARTESIAN_POINT('',(27.9820508512742,-14.5,10.));
#1964=CARTESIAN_POINT('',(62.4996730031188,-1.20000000000001,10.));
#1965=CARTESIAN_POINT('',(62.4996730031188,-24.35,10.));
#1966=CARTESIAN_POINT('',(32.4996730031188,-1.20000000000001,10.));
#1967=CARTESIAN_POINT('',(39.9998365015594,-1.20000000000001,10.));
#1968=CARTESIAN_POINT('',(32.4996730031188,-14.5,10.));
#1969=CARTESIAN_POINT('',(32.4996730031188,-31.,10.));
#1970=CARTESIAN_POINT('',(8.46410170254835,-14.5,10.));
#1971=CARTESIAN_POINT('',(27.9820508512742,-14.5,10.));
#1972=CARTESIAN_POINT('',(8.46410170254835,-69.000000089407,10.));
#1973=CARTESIAN_POINT('Origin',(5.00000007450581,-90.0000013411045,10.));
#1974=CARTESIAN_POINT('',(2.65000007450581,-90.0000013411045,10.));
#1975=CARTESIAN_POINT('Origin',(5.00000007450581,-90.0000013411045,10.));
#1976=CARTESIAN_POINT('',(8.46410170254835,-89.5000014305115,0.999999999999999));
#1977=CARTESIAN_POINT('',(8.46410170254835,-89.5000014305115,10.));
#1978=CARTESIAN_POINT('',(8.46410170254835,-89.5000014305115,10.));
#1979=CARTESIAN_POINT('',(8.46410170254835,-90.5000001788139,0.999999999999999));
#1980=CARTESIAN_POINT('',(8.46410185740556,-90.5000001788139,10.));
#1981=CARTESIAN_POINT('',(8.46410170254835,-90.5000001788139,10.));
#1982=CARTESIAN_POINT('Origin',(8.46410170254835,-89.5000014305115,10.));
#1983=CARTESIAN_POINT('',(8.46410170254835,-15.5,0.999999999999999));
#1984=CARTESIAN_POINT('Origin',(5.00000007450581,-91.000000089407,-1.));
#1985=CARTESIAN_POINT('',(8.46410170254835,-91.5,0.999999999999999));
#1986=CARTESIAN_POINT('',(8.46410170254835,-91.5,10.));
#1987=CARTESIAN_POINT('Origin',(5.00000007450581,-91.000000089407,0.999999999999999));
#1988=CARTESIAN_POINT('Origin',(60.6000009089708,-3.20000002980232,6.));
#1989=CARTESIAN_POINT('',(33.5000009089708,-3.20000002980232,6.));
#1990=CARTESIAN_POINT('',(61.7000009089708,-3.20000002980232,6.));
#1991=CARTESIAN_POINT('',(41.0498369560448,-3.20000002980232,6.));
#1992=CARTESIAN_POINT('',(61.7000009089708,-3.20000002980232,12.));
#1993=CARTESIAN_POINT('',(61.7000009089708,-3.20000002980232,6.));
#1994=CARTESIAN_POINT('',(33.5000009089708,-3.20000002980232,12.));
#1995=CARTESIAN_POINT('',(41.0500004544854,-3.20000002980232,12.));
#1996=CARTESIAN_POINT('',(33.5000009089708,-3.20000002980232,6.));
#1997=CARTESIAN_POINT('Origin',(61.7000009089708,-13.5000000298023,6.));
#1998=CARTESIAN_POINT('',(61.7000009089708,-13.5000000298023,6.));
#1999=CARTESIAN_POINT('',(61.7000009089708,-10.6750000149012,6.));
#2000=CARTESIAN_POINT('',(61.7000009089708,-13.5000000298023,12.));
#2001=CARTESIAN_POINT('',(61.7000009089708,-13.5000000298023,6.));
#2002=CARTESIAN_POINT('',(61.7000009089708,-30.5000000149012,12.));
#2003=CARTESIAN_POINT('Origin',(33.5000009089708,-2.20000002980232,6.));
#2004=CARTESIAN_POINT('',(33.5000009089708,-13.5000000298023,12.));
#2005=CARTESIAN_POINT('',(33.5000009089708,-24.8500000149012,12.));
#2006=CARTESIAN_POINT('',(33.5000009089708,-13.5000000298023,6.));
#2007=CARTESIAN_POINT('',(33.5000009089708,-13.5000000298023,6.));
#2008=CARTESIAN_POINT('',(33.5000009089708,-5.02500001490116,6.));
#2009=CARTESIAN_POINT('Origin',(47.4996730031188,-7.85000000000001,6.));
#2010=CARTESIAN_POINT('',(32.4996730031188,-1.20000000000001,6.));
#2011=CARTESIAN_POINT('',(62.4996730031188,-1.20000000000001,6.));
#2012=CARTESIAN_POINT('',(33.4996730031188,-1.20000000000001,6.));
#2013=CARTESIAN_POINT('',(62.4996730031188,-14.5,6.));
#2014=CARTESIAN_POINT('',(62.4996730031188,-1.20000000000001,6.));
#2015=CARTESIAN_POINT('',(67.0000009685755,-14.5000002160668,6.));
#2016=CARTESIAN_POINT('',(36.7320513355619,-14.5,6.));
#2017=CARTESIAN_POINT('',(67.0000009685755,-15.5,6.));
#2018=CARTESIAN_POINT('',(67.0000009685755,-15.5,6.));
#2019=CARTESIAN_POINT('',(27.9450893347494,-15.5,6.));
#2020=CARTESIAN_POINT('',(37.2500004842877,-15.5,6.));
#2021=CARTESIAN_POINT('',(27.9450893347494,-14.5000002160668,6.));
#2022=CARTESIAN_POINT('',(27.9450893347494,-14.5000002160668,6.));
#2023=CARTESIAN_POINT('',(32.4996730031188,-14.5,6.));
#2024=CARTESIAN_POINT('',(19.2045955186489,-14.5,6.));
#2025=CARTESIAN_POINT('',(32.4996730031188,-1.20000000000001,6.));
#2026=CARTESIAN_POINT('',(40.4998369560448,-13.5000000298023,6.));
#2027=CARTESIAN_POINT('Origin',(32.4996730031188,-14.5,10.));
#2028=CARTESIAN_POINT('',(32.4996730031188,-1.20000000000001,10.));
#2029=CARTESIAN_POINT('',(32.4996730031188,-14.5,10.));
#2030=CARTESIAN_POINT('Origin',(62.4996730031188,-1.20000000000001,10.));
#2031=CARTESIAN_POINT('',(62.4996730031188,-14.5,10.));
#2032=CARTESIAN_POINT('',(62.4996730031188,-1.20000000000001,10.));
#2033=CARTESIAN_POINT('Origin',(8.46410170254835,-14.5,10.));
#2034=CARTESIAN_POINT('',(86.5029488878923,-14.5,0.999999999999999));
#2035=CARTESIAN_POINT('',(86.5029488878923,-14.5,10.));
#2036=CARTESIAN_POINT('',(67.0000009685755,-14.5000002160668,0.999999999999999));
#2037=CARTESIAN_POINT('',(86.5029488878923,-14.5,0.999999999999999));
#2038=CARTESIAN_POINT('',(67.0000009685755,-14.5,5.5));
#2039=CARTESIAN_POINT('Origin',(67.0000009685755,-15.5,0.999999999999999));
#2040=CARTESIAN_POINT('',(67.0000009685755,-15.5,0.999999999999999));
#2041=CARTESIAN_POINT('',(67.0000009685755,-31.4250003632158,0.999999999999999));
#2042=CARTESIAN_POINT('',(67.0000009685755,-15.5,6.5));
#2043=CARTESIAN_POINT('Origin',(47.4835252952203,-47.3500007264316,0.999999999999999));
#2044=CARTESIAN_POINT('',(86.5029488878923,-15.5,0.999999999999999));
#2045=CARTESIAN_POINT('',(86.5029488878923,-15.5,0.999999999999999));
#2046=CARTESIAN_POINT('',(86.5,-15.5,0.999999999999999));
#2047=CARTESIAN_POINT('',(8.46410170254835,-15.5,0.999999999999999));
#2048=CARTESIAN_POINT('',(86.5,-91.5,0.999999999999999));
#2049=CARTESIAN_POINT('',(8.50000012665987,-92.5000013783574,0.999999999999999));
#2050=CARTESIAN_POINT('',(8.50000012665987,-92.5000013783574,0.999999999999999));
#2051=CARTESIAN_POINT('',(8.50000012665987,-91.5000013634562,0.999999999999999));
#2052=CARTESIAN_POINT('',(8.50000012665987,-91.5000013634562,0.999999999999999));
#2053=CARTESIAN_POINT('',(8.46410170254835,-91.5,0.999999999999999));
#2054=CARTESIAN_POINT('',(8.46410170254835,-14.5,0.999999999999999));
#2055=CARTESIAN_POINT('',(8.46410170254835,-15.5,0.999999999999999));
#2056=CARTESIAN_POINT('',(27.9450893347494,-14.5000002160668,0.999999999999999));
#2057=CARTESIAN_POINT('',(86.5029488878923,-14.5,0.999999999999999));
#2058=CARTESIAN_POINT('',(27.9450893347494,-15.5,0.999999999999999));
#2059=CARTESIAN_POINT('',(27.9450893347494,-30.9250004712492,0.999999999999999));
#2060=CARTESIAN_POINT('',(9.46410170254835,-15.5,0.999999999999999));
#2061=CARTESIAN_POINT('',(71.500001065433,-15.499999653548,0.999999999999999));
#2062=CARTESIAN_POINT('',(9.46410170254834,-91.5000013634562,0.999999999999999));
#2063=CARTESIAN_POINT('',(9.46410170254835,-91.5,0.999999999999999));
#2064=CARTESIAN_POINT('',(85.5,-91.5,0.999999999999999));
#2065=CARTESIAN_POINT('',(86.5000012889504,-91.5000013634562,0.999999999999999));
#2066=CARTESIAN_POINT('',(85.5,-15.5,0.999999999999999));
#2067=CARTESIAN_POINT('',(85.5,-15.5,0.999999999999999));
#2068=CARTESIAN_POINT('',(71.500001065433,-15.499999653548,0.999999999999999));
#2069=CARTESIAN_POINT('Origin',(27.9450893347494,-14.5000002160668,0.999999999999999));
#2070=CARTESIAN_POINT('',(27.9450893347494,-14.5,5.5));
#2071=CARTESIAN_POINT('',(27.9450893347494,-15.5,6.5));
#2072=CARTESIAN_POINT('Origin',(9.5,-15.5,12.));
#2073=CARTESIAN_POINT('',(85.5,-15.5,11.5));
#2074=CARTESIAN_POINT('',(85.5,-15.5,12.));
#2075=CARTESIAN_POINT('',(9.5,-15.5,11.5));
#2076=CARTESIAN_POINT('',(28.5,-15.5,11.5));
#2077=CARTESIAN_POINT('',(9.5,-15.5,10.));
#2078=CARTESIAN_POINT('',(9.5,-15.5,12.));
#2079=CARTESIAN_POINT('',(9.46410170254835,-15.5,10.));
#2080=CARTESIAN_POINT('',(66.5,-15.5,10.));
#2081=CARTESIAN_POINT('',(9.46410170254835,-15.5,10.));
#2082=CARTESIAN_POINT('Origin',(8.46410170254835,-14.5,10.));
#2083=CARTESIAN_POINT('',(8.46410170254835,-14.5,10.));
#2084=CARTESIAN_POINT('Origin',(34.6000009089708,-13.5000000298023,6.));
#2085=CARTESIAN_POINT('',(40.5000004544854,-13.5000000298023,12.));
#2086=CARTESIAN_POINT('Origin',(33.4996730031188,-1.20000000000001,10.));
#2087=CARTESIAN_POINT('Origin',(86.5,-15.5,10.));
#2088=CARTESIAN_POINT('',(86.5,-15.5,10.));
#2089=CARTESIAN_POINT('Origin',(9.46410170254835,-15.5,10.));
#2090=CARTESIAN_POINT('',(9.46410170254834,-91.5000013634562,10.));
#2091=CARTESIAN_POINT('',(9.46410170254834,-31.5,10.));
#2092=CARTESIAN_POINT('',(9.46410170254834,-91.5000013634562,10.));
#2093=CARTESIAN_POINT('Origin',(8.46410170254835,-90.5000001788139,10.));
#2094=CARTESIAN_POINT('Origin',(8.50000012665987,-91.5,10.));
#2095=CARTESIAN_POINT('',(8.50000012665987,-91.5000013634562,10.));
#2096=CARTESIAN_POINT('Origin',(8.50000012665987,-92.5000013783574,10.));
#2097=CARTESIAN_POINT('',(8.50000012665987,-92.5000013783574,10.));
#2098=CARTESIAN_POINT('Origin',(86.5000012889504,-92.5000013783574,10.));
#2099=CARTESIAN_POINT('Origin',(86.5029488878923,-15.5,10.));
#2100=CARTESIAN_POINT('',(86.5029488878923,-15.5,10.));
#2101=CARTESIAN_POINT('Origin',(86.5029488878923,-14.5,10.));
#2102=CARTESIAN_POINT('Origin',(47.5,-47.5,10.));
#2103=CARTESIAN_POINT('',(9.5,-91.5,10.));
#2104=CARTESIAN_POINT('',(28.4820508512742,-91.5000013634562,10.));
#2105=CARTESIAN_POINT('',(9.5,-69.,10.));
#2106=CARTESIAN_POINT('Origin',(90.0000013411045,-6.00000008940697,10.));
#2107=CARTESIAN_POINT('',(87.6500013411045,-6.00000008940697,-1.));
#2108=CARTESIAN_POINT('',(87.6500013411045,-6.00000008940697,10.));
#2109=CARTESIAN_POINT('Origin',(90.0000013411045,-6.00000008940697,-1.));
#2110=CARTESIAN_POINT('Origin',(5.00000007450581,-6.00000008940697,10.));
#2111=CARTESIAN_POINT('',(2.65000007450581,-6.00000008940697,-1.));
#2112=CARTESIAN_POINT('',(2.65000007450581,-6.00000008940697,10.));
#2113=CARTESIAN_POINT('Origin',(5.00000007450581,-6.00000008940697,-1.));
#2114=CARTESIAN_POINT('Origin',(5.00000007450581,-6.00000008940697,10.));
#2115=CARTESIAN_POINT('Origin',(5.00000007450581,-6.00000008940697,10.));
#2116=CARTESIAN_POINT('',(1.50000007450581,-6.00000008940697,-1.));
#2117=CARTESIAN_POINT('Origin',(5.00000007450581,-6.00000008940697,-1.));
#2118=CARTESIAN_POINT('',(1.50000007450581,-6.00000008940697,10.));
#2119=CARTESIAN_POINT('Origin',(5.00000007450581,-6.00000008940697,-1.));
#2120=CARTESIAN_POINT('Origin',(90.0000000745058,-6.00000008940697,10.));
#2121=CARTESIAN_POINT('',(86.5000000745058,-6.00000008940697,-1.));
#2122=CARTESIAN_POINT('Origin',(90.0000000745058,-6.00000008940697,-1.));
#2123=CARTESIAN_POINT('',(86.5000000745058,-6.00000008940697,10.));
#2124=CARTESIAN_POINT('Origin',(90.0000000745058,-6.00000008940697,-1.));
#2125=CARTESIAN_POINT('Origin',(86.,-31.,11.5));
#2126=CARTESIAN_POINT('',(86.,-92.,12.));
#2127=CARTESIAN_POINT('',(86.,-15.,12.));
#2128=CARTESIAN_POINT('',(86.,-31.,12.));
#2129=CARTESIAN_POINT('Origin',(86.,-15.,11.5));
#2130=CARTESIAN_POINT('',(85.5,-91.5,11.5));
#2131=CARTESIAN_POINT('',(85.5,-31.,11.5));
#2132=CARTESIAN_POINT('Origin',(86.,-92.,11.5));
#2133=CARTESIAN_POINT('Origin',(28.5,-15.,11.5));
#2134=CARTESIAN_POINT('',(9.,-15.,12.));
#2135=CARTESIAN_POINT('',(28.5,-15.,12.));
#2136=CARTESIAN_POINT('Origin',(9.,-15.,11.5));
#2137=CARTESIAN_POINT('Origin',(9.,-69.,11.5));
#2138=CARTESIAN_POINT('',(9.5,-91.5,11.5));
#2139=CARTESIAN_POINT('',(9.5,-69.,11.5));
#2140=CARTESIAN_POINT('',(9.,-92.,12.));
#2141=CARTESIAN_POINT('',(9.,-69.,12.));
#2142=CARTESIAN_POINT('Origin',(9.,-92.,11.5));
#2143=CARTESIAN_POINT('Origin',(66.5,-92.,11.5));
#2144=CARTESIAN_POINT('',(66.5,-92.,12.));
#2145=CARTESIAN_POINT('',(66.5,-91.5,11.5));
#2146=CARTESIAN_POINT('Origin',(85.5,-91.5,12.));
#2147=CARTESIAN_POINT('',(85.5,-91.5,12.));
#2148=CARTESIAN_POINT('',(9.5,-91.5,11.));
#2149=CARTESIAN_POINT('Origin',(85.5,-14.5,12.));
#2150=CARTESIAN_POINT('Origin',(47.5,-47.5,12.));
#2151=CARTESIAN_POINT('',(-2.,-97.,12.));
#2152=CARTESIAN_POINT('',(-2.,2.,12.));
#2153=CARTESIAN_POINT('',(-2.,-22.5,12.));
#2154=CARTESIAN_POINT('',(97.,-97.,12.));
#2155=CARTESIAN_POINT('',(22.5,-97.,12.));
#2156=CARTESIAN_POINT('',(97.,2.,12.));
#2157=CARTESIAN_POINT('',(97.,-72.5,12.));
#2158=CARTESIAN_POINT('',(72.5,2.,12.));
#2159=CARTESIAN_POINT('Origin',(-2.,-97.,11.5));
#2160=CARTESIAN_POINT('',(-2.5,-97.,11.5));
#2161=CARTESIAN_POINT('Origin',(-2.,-97.,11.5));
#2162=CARTESIAN_POINT('',(-2.,-97.5,11.5));
#2163=CARTESIAN_POINT('Origin',(-2.,-97.,11.5));
#2164=CARTESIAN_POINT('Origin',(-2.,-97.,11.5));
#2165=CARTESIAN_POINT('Origin',(-2.,-97.,0.));
#2166=CARTESIAN_POINT('',(-2.5,-97.,0.));
#2167=CARTESIAN_POINT('',(-1.99999999999999,-97.5,0.));
#2168=CARTESIAN_POINT('Origin',(-2.,-97.,0.));
#2169=CARTESIAN_POINT('',(-2.,-97.5,0.));
#2170=CARTESIAN_POINT('',(-2.5,-97.,0.));
#2171=CARTESIAN_POINT('Origin',(97.,-97.,11.5));
#2172=CARTESIAN_POINT('',(97.,-97.5,11.5));
#2173=CARTESIAN_POINT('Origin',(97.,-97.,11.5));
#2174=CARTESIAN_POINT('',(97.5,-97.,11.5));
#2175=CARTESIAN_POINT('Origin',(97.,-97.,11.5));
#2176=CARTESIAN_POINT('Origin',(97.,-97.,11.5));
#2177=CARTESIAN_POINT('Origin',(97.,-97.,0.));
#2178=CARTESIAN_POINT('',(97.,-97.5,0.));
#2179=CARTESIAN_POINT('',(97.5,-97.,0.));
#2180=CARTESIAN_POINT('Origin',(97.,-97.,0.));
#2181=CARTESIAN_POINT('',(97.5,-97.,0.));
#2182=CARTESIAN_POINT('',(97.,-97.5,0.));
#2183=CARTESIAN_POINT('Origin',(-2.,2.,11.5));
#2184=CARTESIAN_POINT('',(-2.,2.5,11.5));
#2185=CARTESIAN_POINT('Origin',(-2.,2.,11.5));
#2186=CARTESIAN_POINT('',(-2.5,2.,11.5));
#2187=CARTESIAN_POINT('Origin',(-2.,2.,11.5));
#2188=CARTESIAN_POINT('Origin',(-2.,2.,11.5));
#2189=CARTESIAN_POINT('Origin',(-2.,2.,0.));
#2190=CARTESIAN_POINT('',(-2.,2.5,0.));
#2191=CARTESIAN_POINT('',(-2.5,1.99999999999999,0.));
#2192=CARTESIAN_POINT('Origin',(-2.,2.,0.));
#2193=CARTESIAN_POINT('',(-2.5,2.,0.));
#2194=CARTESIAN_POINT('',(-2.,2.5,0.));
#2195=CARTESIAN_POINT('Origin',(-2.,-22.5,11.5));
#2196=CARTESIAN_POINT('',(-2.5,-22.5,11.5));
#2197=CARTESIAN_POINT('Origin',(97.,2.,11.5));
#2198=CARTESIAN_POINT('',(97.5,2.,11.5));
#2199=CARTESIAN_POINT('Origin',(97.,2.,11.5));
#2200=CARTESIAN_POINT('',(97.,2.5,11.5));
#2201=CARTESIAN_POINT('Origin',(97.,2.,11.5));
#2202=CARTESIAN_POINT('Origin',(97.,2.,11.5));
#2203=CARTESIAN_POINT('Origin',(97.,2.,0.));
#2204=CARTESIAN_POINT('',(97.5,2.,0.));
#2205=CARTESIAN_POINT('',(97.,2.5,0.));
#2206=CARTESIAN_POINT('Origin',(97.,2.,0.));
#2207=CARTESIAN_POINT('',(97.,2.5,0.));
#2208=CARTESIAN_POINT('',(97.5,2.,0.));
#2209=CARTESIAN_POINT('Origin',(72.5,2.,11.5));
#2210=CARTESIAN_POINT('',(72.5,2.5,11.5));
#2211=CARTESIAN_POINT('Origin',(97.,-72.5,11.5));
#2212=CARTESIAN_POINT('',(97.5,-72.5,11.5));
#2213=CARTESIAN_POINT('Origin',(22.5,-97.,11.5));
#2214=CARTESIAN_POINT('',(22.5,-97.5,11.5));
#2215=CARTESIAN_POINT('Origin',(-2.5,2.5,0.));
#2216=CARTESIAN_POINT('',(-2.5,-97.5,0.));
#2217=CARTESIAN_POINT('Origin',(97.5,2.5,0.));
#2218=CARTESIAN_POINT('',(-2.5,2.5,0.));
#2219=CARTESIAN_POINT('Origin',(9.5,-90.5,12.));
#2220=CARTESIAN_POINT('Origin',(97.5,1.5,0.));
#2221=CARTESIAN_POINT('',(-1.5,1.5,0.));
#2222=CARTESIAN_POINT('',(-1.5,1.5,0.));
#2223=CARTESIAN_POINT('',(96.5,1.5,0.));
#2224=CARTESIAN_POINT('',(72.5,1.5,0.));
#2225=CARTESIAN_POINT('',(96.5,1.5,0.));
#2226=CARTESIAN_POINT('Origin',(-1.5,2.5,0.));
#2227=CARTESIAN_POINT('',(-1.5,-96.5,0.));
#2228=CARTESIAN_POINT('',(-1.5,-96.5,0.));
#2229=CARTESIAN_POINT('',(-1.5,-22.5,0.));
#2230=CARTESIAN_POINT('Origin',(96.5,-97.5,0.));
#2231=CARTESIAN_POINT('',(96.5,-96.5,0.));
#2232=CARTESIAN_POINT('',(96.5,-72.5,0.));
#2233=CARTESIAN_POINT('',(96.5,-96.5,0.));
#2234=CARTESIAN_POINT('Origin',(-2.5,-96.5,0.));
#2235=CARTESIAN_POINT('',(22.5,-96.5,0.));
#2236=CARTESIAN_POINT('Origin',(97.5,-97.5,0.));
#2237=CARTESIAN_POINT('',(97.5,2.5,0.));
#2238=CARTESIAN_POINT('Origin',(-2.5,-97.5,0.));
#2239=CARTESIAN_POINT('',(97.5,-97.5,0.));
#2240=CARTESIAN_POINT('Origin',(47.5,-47.5,0.));
#2241=UNCERTAINTY_MEASURE_WITH_UNIT(LENGTH_MEASURE(0.01),#2245,
'DISTANCE_ACCURACY_VALUE',
'Maximum model space distance between geometric entities at asserted c
onnectivities');
#2242=UNCERTAINTY_MEASURE_WITH_UNIT(LENGTH_MEASURE(0.01),#2245,
'DISTANCE_ACCURACY_VALUE',
'Maximum model space distance between geometric entities at asserted c
onnectivities');
#2243=(
GEOMETRIC_REPRESENTATION_CONTEXT(3)
GLOBAL_UNCERTAINTY_ASSIGNED_CONTEXT((#2241))
GLOBAL_UNIT_ASSIGNED_CONTEXT((#2245,#2247,#2248))
REPRESENTATION_CONTEXT('','3D')
);
#2244=(
GEOMETRIC_REPRESENTATION_CONTEXT(3)
GLOBAL_UNCERTAINTY_ASSIGNED_CONTEXT((#2242))
GLOBAL_UNIT_ASSIGNED_CONTEXT((#2245,#2247,#2248))
REPRESENTATION_CONTEXT('','3D')
);
#2245=(
LENGTH_UNIT()
NAMED_UNIT(*)
SI_UNIT(.MILLI.,.METRE.)
);
#2246=(
LENGTH_UNIT()
NAMED_UNIT(*)
SI_UNIT($,.METRE.)
);
#2247=(
NAMED_UNIT(*)
PLANE_ANGLE_UNIT()
SI_UNIT($,.RADIAN.)
);
#2248=(
NAMED_UNIT(*)
SI_UNIT($,.STERADIAN.)
SOLID_ANGLE_UNIT()
);
#2249=SHAPE_DEFINITION_REPRESENTATION(#2250,#2251);
#2250=PRODUCT_DEFINITION_SHAPE('',$,#2253);
#2251=SHAPE_REPRESENTATION('',(#1350),#2243);
#2252=PRODUCT_DEFINITION_CONTEXT('part definition',#2257,'design');
#2253=PRODUCT_DEFINITION('2026-09-19-09-52-41-600','CASE TOP',#2254,#2252);
#2254=PRODUCT_DEFINITION_FORMATION('',$,#2259);
#2255=PRODUCT_RELATED_PRODUCT_CATEGORY('CASE TOP','CASE TOP',(#2259));
#2256=APPLICATION_PROTOCOL_DEFINITION('international standard',
'automotive_design',2009,#2257);
#2257=APPLICATION_CONTEXT(
'Core Data for Automotive Mechanical Design Process');
#2258=PRODUCT_CONTEXT('part definition',#2257,'mechanical');
#2259=PRODUCT('2026-09-19-09-52-41-600','CASE TOP',$,(#2258));
#2260=PRESENTATION_STYLE_ASSIGNMENT((#2262));
#2261=PRESENTATION_STYLE_ASSIGNMENT((#2263));
#2262=SURFACE_STYLE_USAGE(.BOTH.,#2264);
#2263=SURFACE_STYLE_USAGE(.BOTH.,#2265);
#2264=SURFACE_SIDE_STYLE('',(#2266));
#2265=SURFACE_SIDE_STYLE('',(#2267));
#2266=SURFACE_STYLE_FILL_AREA(#2268);
#2267=SURFACE_STYLE_FILL_AREA(#2269);
#2268=FILL_AREA_STYLE('Steel - Satin',(#2270));
#2269=FILL_AREA_STYLE('EPX 82 (with Carbon M2 M3 L1 3D Printers)',(#2271));
#2270=FILL_AREA_STYLE_COLOUR('Steel - Satin',#2272);
#2271=FILL_AREA_STYLE_COLOUR(
'EPX 82 (with Carbon M2 M3 L1 3D Printers)',#2273);
#2272=COLOUR_RGB('Steel - Satin',0.627450980392157,0.627450980392157,0.627450980392157);
#2273=COLOUR_RGB('EPX 82 (with Carbon M2 M3 L1 3D Printers)',0.247058823529412,
0.247058823529412,0.247058823529412);
ENDSEC;
END-ISO-10303-21;
