%TF.GenerationSoftware,KiCad,Pcbnew,10.0.3*%
%TF.CreationDate,2026-09-18T20:42:14+05:30*%
%TF.ProjectId,IK_DEXK,494b5f44-4558-44b2-9e6b-696361645f70,rev?*%
%TF.SameCoordinates,Original*%
%TF.FileFunction,Legend,Top*%
%TF.FilePolarity,Positive*%
%FSLAX46Y46*%
G04 Gerber Fmt 4.6, Leading zero omitted, Abs format (unit mm)*
G04 Created by KiCad (PCBNEW 10.0.3) date 2026-09-18 20:42:14*
%MOMM*%
%LPD*%
G01*
G04 APERTURE LIST*
%ADD10C,0.150000*%
%ADD11C,0.120000*%
G04 APERTURE END LIST*
D10*
X17492371Y-37695669D02*
X17635228Y-37743288D01*
X17635228Y-37743288D02*
X17873323Y-37743288D01*
X17873323Y-37743288D02*
X17968561Y-37695669D01*
X17968561Y-37695669D02*
X18016180Y-37648049D01*
X18016180Y-37648049D02*
X18063799Y-37552811D01*
X18063799Y-37552811D02*
X18063799Y-37457573D01*
X18063799Y-37457573D02*
X18016180Y-37362335D01*
X18016180Y-37362335D02*
X17968561Y-37314716D01*
X17968561Y-37314716D02*
X17873323Y-37267097D01*
X17873323Y-37267097D02*
X17682847Y-37219478D01*
X17682847Y-37219478D02*
X17587609Y-37171859D01*
X17587609Y-37171859D02*
X17539990Y-37124240D01*
X17539990Y-37124240D02*
X17492371Y-37029002D01*
X17492371Y-37029002D02*
X17492371Y-36933764D01*
X17492371Y-36933764D02*
X17539990Y-36838526D01*
X17539990Y-36838526D02*
X17587609Y-36790907D01*
X17587609Y-36790907D02*
X17682847Y-36743288D01*
X17682847Y-36743288D02*
X17920942Y-36743288D01*
X17920942Y-36743288D02*
X18063799Y-36790907D01*
X18397133Y-36743288D02*
X18635228Y-37743288D01*
X18635228Y-37743288D02*
X18825704Y-37029002D01*
X18825704Y-37029002D02*
X19016180Y-37743288D01*
X19016180Y-37743288D02*
X19254276Y-36743288D01*
X20111418Y-36743288D02*
X19635228Y-36743288D01*
X19635228Y-36743288D02*
X19587609Y-37219478D01*
X19587609Y-37219478D02*
X19635228Y-37171859D01*
X19635228Y-37171859D02*
X19730466Y-37124240D01*
X19730466Y-37124240D02*
X19968561Y-37124240D01*
X19968561Y-37124240D02*
X20063799Y-37171859D01*
X20063799Y-37171859D02*
X20111418Y-37219478D01*
X20111418Y-37219478D02*
X20159037Y-37314716D01*
X20159037Y-37314716D02*
X20159037Y-37552811D01*
X20159037Y-37552811D02*
X20111418Y-37648049D01*
X20111418Y-37648049D02*
X20063799Y-37695669D01*
X20063799Y-37695669D02*
X19968561Y-37743288D01*
X19968561Y-37743288D02*
X19730466Y-37743288D01*
X19730466Y-37743288D02*
X19635228Y-37695669D01*
X19635228Y-37695669D02*
X19587609Y-37648049D01*
X55116171Y-56745696D02*
X55259028Y-56793315D01*
X55259028Y-56793315D02*
X55497123Y-56793315D01*
X55497123Y-56793315D02*
X55592361Y-56745696D01*
X55592361Y-56745696D02*
X55639980Y-56698076D01*
X55639980Y-56698076D02*
X55687599Y-56602838D01*
X55687599Y-56602838D02*
X55687599Y-56507600D01*
X55687599Y-56507600D02*
X55639980Y-56412362D01*
X55639980Y-56412362D02*
X55592361Y-56364743D01*
X55592361Y-56364743D02*
X55497123Y-56317124D01*
X55497123Y-56317124D02*
X55306647Y-56269505D01*
X55306647Y-56269505D02*
X55211409Y-56221886D01*
X55211409Y-56221886D02*
X55163790Y-56174267D01*
X55163790Y-56174267D02*
X55116171Y-56079029D01*
X55116171Y-56079029D02*
X55116171Y-55983791D01*
X55116171Y-55983791D02*
X55163790Y-55888553D01*
X55163790Y-55888553D02*
X55211409Y-55840934D01*
X55211409Y-55840934D02*
X55306647Y-55793315D01*
X55306647Y-55793315D02*
X55544742Y-55793315D01*
X55544742Y-55793315D02*
X55687599Y-55840934D01*
X56020933Y-55793315D02*
X56259028Y-56793315D01*
X56259028Y-56793315D02*
X56449504Y-56079029D01*
X56449504Y-56079029D02*
X56639980Y-56793315D01*
X56639980Y-56793315D02*
X56878076Y-55793315D01*
X57782837Y-56793315D02*
X57211409Y-56793315D01*
X57497123Y-56793315D02*
X57497123Y-55793315D01*
X57497123Y-55793315D02*
X57401885Y-55936172D01*
X57401885Y-55936172D02*
X57306647Y-56031410D01*
X57306647Y-56031410D02*
X57211409Y-56079029D01*
X58735218Y-56793315D02*
X58163790Y-56793315D01*
X58449504Y-56793315D02*
X58449504Y-55793315D01*
X58449504Y-55793315D02*
X58354266Y-55936172D01*
X58354266Y-55936172D02*
X58259028Y-56031410D01*
X58259028Y-56031410D02*
X58163790Y-56079029D01*
X55592368Y-18645678D02*
X55735225Y-18693297D01*
X55735225Y-18693297D02*
X55973320Y-18693297D01*
X55973320Y-18693297D02*
X56068558Y-18645678D01*
X56068558Y-18645678D02*
X56116177Y-18598058D01*
X56116177Y-18598058D02*
X56163796Y-18502820D01*
X56163796Y-18502820D02*
X56163796Y-18407582D01*
X56163796Y-18407582D02*
X56116177Y-18312344D01*
X56116177Y-18312344D02*
X56068558Y-18264725D01*
X56068558Y-18264725D02*
X55973320Y-18217106D01*
X55973320Y-18217106D02*
X55782844Y-18169487D01*
X55782844Y-18169487D02*
X55687606Y-18121868D01*
X55687606Y-18121868D02*
X55639987Y-18074249D01*
X55639987Y-18074249D02*
X55592368Y-17979011D01*
X55592368Y-17979011D02*
X55592368Y-17883773D01*
X55592368Y-17883773D02*
X55639987Y-17788535D01*
X55639987Y-17788535D02*
X55687606Y-17740916D01*
X55687606Y-17740916D02*
X55782844Y-17693297D01*
X55782844Y-17693297D02*
X56020939Y-17693297D01*
X56020939Y-17693297D02*
X56163796Y-17740916D01*
X56497130Y-17693297D02*
X56735225Y-18693297D01*
X56735225Y-18693297D02*
X56925701Y-17979011D01*
X56925701Y-17979011D02*
X57116177Y-18693297D01*
X57116177Y-18693297D02*
X57354273Y-17693297D01*
X57639987Y-17693297D02*
X58259034Y-17693297D01*
X58259034Y-17693297D02*
X57925701Y-18074249D01*
X57925701Y-18074249D02*
X58068558Y-18074249D01*
X58068558Y-18074249D02*
X58163796Y-18121868D01*
X58163796Y-18121868D02*
X58211415Y-18169487D01*
X58211415Y-18169487D02*
X58259034Y-18264725D01*
X58259034Y-18264725D02*
X58259034Y-18502820D01*
X58259034Y-18502820D02*
X58211415Y-18598058D01*
X58211415Y-18598058D02*
X58163796Y-18645678D01*
X58163796Y-18645678D02*
X58068558Y-18693297D01*
X58068558Y-18693297D02*
X57782844Y-18693297D01*
X57782844Y-18693297D02*
X57687606Y-18645678D01*
X57687606Y-18645678D02*
X57639987Y-18598058D01*
X74166168Y-75795705D02*
X74309025Y-75843324D01*
X74309025Y-75843324D02*
X74547120Y-75843324D01*
X74547120Y-75843324D02*
X74642358Y-75795705D01*
X74642358Y-75795705D02*
X74689977Y-75748085D01*
X74689977Y-75748085D02*
X74737596Y-75652847D01*
X74737596Y-75652847D02*
X74737596Y-75557609D01*
X74737596Y-75557609D02*
X74689977Y-75462371D01*
X74689977Y-75462371D02*
X74642358Y-75414752D01*
X74642358Y-75414752D02*
X74547120Y-75367133D01*
X74547120Y-75367133D02*
X74356644Y-75319514D01*
X74356644Y-75319514D02*
X74261406Y-75271895D01*
X74261406Y-75271895D02*
X74213787Y-75224276D01*
X74213787Y-75224276D02*
X74166168Y-75129038D01*
X74166168Y-75129038D02*
X74166168Y-75033800D01*
X74166168Y-75033800D02*
X74213787Y-74938562D01*
X74213787Y-74938562D02*
X74261406Y-74890943D01*
X74261406Y-74890943D02*
X74356644Y-74843324D01*
X74356644Y-74843324D02*
X74594739Y-74843324D01*
X74594739Y-74843324D02*
X74737596Y-74890943D01*
X75070930Y-74843324D02*
X75309025Y-75843324D01*
X75309025Y-75843324D02*
X75499501Y-75129038D01*
X75499501Y-75129038D02*
X75689977Y-75843324D01*
X75689977Y-75843324D02*
X75928073Y-74843324D01*
X76832834Y-75843324D02*
X76261406Y-75843324D01*
X76547120Y-75843324D02*
X76547120Y-74843324D01*
X76547120Y-74843324D02*
X76451882Y-74986181D01*
X76451882Y-74986181D02*
X76356644Y-75081419D01*
X76356644Y-75081419D02*
X76261406Y-75129038D01*
X77689977Y-74843324D02*
X77499501Y-74843324D01*
X77499501Y-74843324D02*
X77404263Y-74890943D01*
X77404263Y-74890943D02*
X77356644Y-74938562D01*
X77356644Y-74938562D02*
X77261406Y-75081419D01*
X77261406Y-75081419D02*
X77213787Y-75271895D01*
X77213787Y-75271895D02*
X77213787Y-75652847D01*
X77213787Y-75652847D02*
X77261406Y-75748085D01*
X77261406Y-75748085D02*
X77309025Y-75795705D01*
X77309025Y-75795705D02*
X77404263Y-75843324D01*
X77404263Y-75843324D02*
X77594739Y-75843324D01*
X77594739Y-75843324D02*
X77689977Y-75795705D01*
X77689977Y-75795705D02*
X77737596Y-75748085D01*
X77737596Y-75748085D02*
X77785215Y-75652847D01*
X77785215Y-75652847D02*
X77785215Y-75414752D01*
X77785215Y-75414752D02*
X77737596Y-75319514D01*
X77737596Y-75319514D02*
X77689977Y-75271895D01*
X77689977Y-75271895D02*
X77594739Y-75224276D01*
X77594739Y-75224276D02*
X77404263Y-75224276D01*
X77404263Y-75224276D02*
X77309025Y-75271895D01*
X77309025Y-75271895D02*
X77261406Y-75319514D01*
X77261406Y-75319514D02*
X77213787Y-75414752D01*
X74642365Y-18645687D02*
X74785222Y-18693306D01*
X74785222Y-18693306D02*
X75023317Y-18693306D01*
X75023317Y-18693306D02*
X75118555Y-18645687D01*
X75118555Y-18645687D02*
X75166174Y-18598067D01*
X75166174Y-18598067D02*
X75213793Y-18502829D01*
X75213793Y-18502829D02*
X75213793Y-18407591D01*
X75213793Y-18407591D02*
X75166174Y-18312353D01*
X75166174Y-18312353D02*
X75118555Y-18264734D01*
X75118555Y-18264734D02*
X75023317Y-18217115D01*
X75023317Y-18217115D02*
X74832841Y-18169496D01*
X74832841Y-18169496D02*
X74737603Y-18121877D01*
X74737603Y-18121877D02*
X74689984Y-18074258D01*
X74689984Y-18074258D02*
X74642365Y-17979020D01*
X74642365Y-17979020D02*
X74642365Y-17883782D01*
X74642365Y-17883782D02*
X74689984Y-17788544D01*
X74689984Y-17788544D02*
X74737603Y-17740925D01*
X74737603Y-17740925D02*
X74832841Y-17693306D01*
X74832841Y-17693306D02*
X75070936Y-17693306D01*
X75070936Y-17693306D02*
X75213793Y-17740925D01*
X75547127Y-17693306D02*
X75785222Y-18693306D01*
X75785222Y-18693306D02*
X75975698Y-17979020D01*
X75975698Y-17979020D02*
X76166174Y-18693306D01*
X76166174Y-18693306D02*
X76404270Y-17693306D01*
X77213793Y-18026639D02*
X77213793Y-18693306D01*
X76975698Y-17645687D02*
X76737603Y-18359972D01*
X76737603Y-18359972D02*
X77356650Y-18359972D01*
X17492374Y-18645660D02*
X17635231Y-18693279D01*
X17635231Y-18693279D02*
X17873326Y-18693279D01*
X17873326Y-18693279D02*
X17968564Y-18645660D01*
X17968564Y-18645660D02*
X18016183Y-18598040D01*
X18016183Y-18598040D02*
X18063802Y-18502802D01*
X18063802Y-18502802D02*
X18063802Y-18407564D01*
X18063802Y-18407564D02*
X18016183Y-18312326D01*
X18016183Y-18312326D02*
X17968564Y-18264707D01*
X17968564Y-18264707D02*
X17873326Y-18217088D01*
X17873326Y-18217088D02*
X17682850Y-18169469D01*
X17682850Y-18169469D02*
X17587612Y-18121850D01*
X17587612Y-18121850D02*
X17539993Y-18074231D01*
X17539993Y-18074231D02*
X17492374Y-17978993D01*
X17492374Y-17978993D02*
X17492374Y-17883755D01*
X17492374Y-17883755D02*
X17539993Y-17788517D01*
X17539993Y-17788517D02*
X17587612Y-17740898D01*
X17587612Y-17740898D02*
X17682850Y-17693279D01*
X17682850Y-17693279D02*
X17920945Y-17693279D01*
X17920945Y-17693279D02*
X18063802Y-17740898D01*
X18397136Y-17693279D02*
X18635231Y-18693279D01*
X18635231Y-18693279D02*
X18825707Y-17978993D01*
X18825707Y-17978993D02*
X19016183Y-18693279D01*
X19016183Y-18693279D02*
X19254279Y-17693279D01*
X20159040Y-18693279D02*
X19587612Y-18693279D01*
X19873326Y-18693279D02*
X19873326Y-17693279D01*
X19873326Y-17693279D02*
X19778088Y-17836136D01*
X19778088Y-17836136D02*
X19682850Y-17931374D01*
X19682850Y-17931374D02*
X19587612Y-17978993D01*
X17016174Y-75795687D02*
X17159031Y-75843306D01*
X17159031Y-75843306D02*
X17397126Y-75843306D01*
X17397126Y-75843306D02*
X17492364Y-75795687D01*
X17492364Y-75795687D02*
X17539983Y-75748067D01*
X17539983Y-75748067D02*
X17587602Y-75652829D01*
X17587602Y-75652829D02*
X17587602Y-75557591D01*
X17587602Y-75557591D02*
X17539983Y-75462353D01*
X17539983Y-75462353D02*
X17492364Y-75414734D01*
X17492364Y-75414734D02*
X17397126Y-75367115D01*
X17397126Y-75367115D02*
X17206650Y-75319496D01*
X17206650Y-75319496D02*
X17111412Y-75271877D01*
X17111412Y-75271877D02*
X17063793Y-75224258D01*
X17063793Y-75224258D02*
X17016174Y-75129020D01*
X17016174Y-75129020D02*
X17016174Y-75033782D01*
X17016174Y-75033782D02*
X17063793Y-74938544D01*
X17063793Y-74938544D02*
X17111412Y-74890925D01*
X17111412Y-74890925D02*
X17206650Y-74843306D01*
X17206650Y-74843306D02*
X17444745Y-74843306D01*
X17444745Y-74843306D02*
X17587602Y-74890925D01*
X17920936Y-74843306D02*
X18159031Y-75843306D01*
X18159031Y-75843306D02*
X18349507Y-75129020D01*
X18349507Y-75129020D02*
X18539983Y-75843306D01*
X18539983Y-75843306D02*
X18778079Y-74843306D01*
X19682840Y-75843306D02*
X19111412Y-75843306D01*
X19397126Y-75843306D02*
X19397126Y-74843306D01*
X19397126Y-74843306D02*
X19301888Y-74986163D01*
X19301888Y-74986163D02*
X19206650Y-75081401D01*
X19206650Y-75081401D02*
X19111412Y-75129020D01*
X20016174Y-74843306D02*
X20635221Y-74843306D01*
X20635221Y-74843306D02*
X20301888Y-75224258D01*
X20301888Y-75224258D02*
X20444745Y-75224258D01*
X20444745Y-75224258D02*
X20539983Y-75271877D01*
X20539983Y-75271877D02*
X20587602Y-75319496D01*
X20587602Y-75319496D02*
X20635221Y-75414734D01*
X20635221Y-75414734D02*
X20635221Y-75652829D01*
X20635221Y-75652829D02*
X20587602Y-75748067D01*
X20587602Y-75748067D02*
X20539983Y-75795687D01*
X20539983Y-75795687D02*
X20444745Y-75843306D01*
X20444745Y-75843306D02*
X20159031Y-75843306D01*
X20159031Y-75843306D02*
X20063793Y-75795687D01*
X20063793Y-75795687D02*
X20016174Y-75748067D01*
X36066174Y-75795687D02*
X36209031Y-75843306D01*
X36209031Y-75843306D02*
X36447126Y-75843306D01*
X36447126Y-75843306D02*
X36542364Y-75795687D01*
X36542364Y-75795687D02*
X36589983Y-75748067D01*
X36589983Y-75748067D02*
X36637602Y-75652829D01*
X36637602Y-75652829D02*
X36637602Y-75557591D01*
X36637602Y-75557591D02*
X36589983Y-75462353D01*
X36589983Y-75462353D02*
X36542364Y-75414734D01*
X36542364Y-75414734D02*
X36447126Y-75367115D01*
X36447126Y-75367115D02*
X36256650Y-75319496D01*
X36256650Y-75319496D02*
X36161412Y-75271877D01*
X36161412Y-75271877D02*
X36113793Y-75224258D01*
X36113793Y-75224258D02*
X36066174Y-75129020D01*
X36066174Y-75129020D02*
X36066174Y-75033782D01*
X36066174Y-75033782D02*
X36113793Y-74938544D01*
X36113793Y-74938544D02*
X36161412Y-74890925D01*
X36161412Y-74890925D02*
X36256650Y-74843306D01*
X36256650Y-74843306D02*
X36494745Y-74843306D01*
X36494745Y-74843306D02*
X36637602Y-74890925D01*
X36970936Y-74843306D02*
X37209031Y-75843306D01*
X37209031Y-75843306D02*
X37399507Y-75129020D01*
X37399507Y-75129020D02*
X37589983Y-75843306D01*
X37589983Y-75843306D02*
X37828079Y-74843306D01*
X38732840Y-75843306D02*
X38161412Y-75843306D01*
X38447126Y-75843306D02*
X38447126Y-74843306D01*
X38447126Y-74843306D02*
X38351888Y-74986163D01*
X38351888Y-74986163D02*
X38256650Y-75081401D01*
X38256650Y-75081401D02*
X38161412Y-75129020D01*
X39589983Y-75176639D02*
X39589983Y-75843306D01*
X39351888Y-74795687D02*
X39113793Y-75509972D01*
X39113793Y-75509972D02*
X39732840Y-75509972D01*
X36066177Y-56745678D02*
X36209034Y-56793297D01*
X36209034Y-56793297D02*
X36447129Y-56793297D01*
X36447129Y-56793297D02*
X36542367Y-56745678D01*
X36542367Y-56745678D02*
X36589986Y-56698058D01*
X36589986Y-56698058D02*
X36637605Y-56602820D01*
X36637605Y-56602820D02*
X36637605Y-56507582D01*
X36637605Y-56507582D02*
X36589986Y-56412344D01*
X36589986Y-56412344D02*
X36542367Y-56364725D01*
X36542367Y-56364725D02*
X36447129Y-56317106D01*
X36447129Y-56317106D02*
X36256653Y-56269487D01*
X36256653Y-56269487D02*
X36161415Y-56221868D01*
X36161415Y-56221868D02*
X36113796Y-56174249D01*
X36113796Y-56174249D02*
X36066177Y-56079011D01*
X36066177Y-56079011D02*
X36066177Y-55983773D01*
X36066177Y-55983773D02*
X36113796Y-55888535D01*
X36113796Y-55888535D02*
X36161415Y-55840916D01*
X36161415Y-55840916D02*
X36256653Y-55793297D01*
X36256653Y-55793297D02*
X36494748Y-55793297D01*
X36494748Y-55793297D02*
X36637605Y-55840916D01*
X36970939Y-55793297D02*
X37209034Y-56793297D01*
X37209034Y-56793297D02*
X37399510Y-56079011D01*
X37399510Y-56079011D02*
X37589986Y-56793297D01*
X37589986Y-56793297D02*
X37828082Y-55793297D01*
X38732843Y-56793297D02*
X38161415Y-56793297D01*
X38447129Y-56793297D02*
X38447129Y-55793297D01*
X38447129Y-55793297D02*
X38351891Y-55936154D01*
X38351891Y-55936154D02*
X38256653Y-56031392D01*
X38256653Y-56031392D02*
X38161415Y-56079011D01*
X39351891Y-55793297D02*
X39447129Y-55793297D01*
X39447129Y-55793297D02*
X39542367Y-55840916D01*
X39542367Y-55840916D02*
X39589986Y-55888535D01*
X39589986Y-55888535D02*
X39637605Y-55983773D01*
X39637605Y-55983773D02*
X39685224Y-56174249D01*
X39685224Y-56174249D02*
X39685224Y-56412344D01*
X39685224Y-56412344D02*
X39637605Y-56602820D01*
X39637605Y-56602820D02*
X39589986Y-56698058D01*
X39589986Y-56698058D02*
X39542367Y-56745678D01*
X39542367Y-56745678D02*
X39447129Y-56793297D01*
X39447129Y-56793297D02*
X39351891Y-56793297D01*
X39351891Y-56793297D02*
X39256653Y-56745678D01*
X39256653Y-56745678D02*
X39209034Y-56698058D01*
X39209034Y-56698058D02*
X39161415Y-56602820D01*
X39161415Y-56602820D02*
X39113796Y-56412344D01*
X39113796Y-56412344D02*
X39113796Y-56174249D01*
X39113796Y-56174249D02*
X39161415Y-55983773D01*
X39161415Y-55983773D02*
X39209034Y-55888535D01*
X39209034Y-55888535D02*
X39256653Y-55840916D01*
X39256653Y-55840916D02*
X39351891Y-55793297D01*
X17492368Y-56745678D02*
X17635225Y-56793297D01*
X17635225Y-56793297D02*
X17873320Y-56793297D01*
X17873320Y-56793297D02*
X17968558Y-56745678D01*
X17968558Y-56745678D02*
X18016177Y-56698058D01*
X18016177Y-56698058D02*
X18063796Y-56602820D01*
X18063796Y-56602820D02*
X18063796Y-56507582D01*
X18063796Y-56507582D02*
X18016177Y-56412344D01*
X18016177Y-56412344D02*
X17968558Y-56364725D01*
X17968558Y-56364725D02*
X17873320Y-56317106D01*
X17873320Y-56317106D02*
X17682844Y-56269487D01*
X17682844Y-56269487D02*
X17587606Y-56221868D01*
X17587606Y-56221868D02*
X17539987Y-56174249D01*
X17539987Y-56174249D02*
X17492368Y-56079011D01*
X17492368Y-56079011D02*
X17492368Y-55983773D01*
X17492368Y-55983773D02*
X17539987Y-55888535D01*
X17539987Y-55888535D02*
X17587606Y-55840916D01*
X17587606Y-55840916D02*
X17682844Y-55793297D01*
X17682844Y-55793297D02*
X17920939Y-55793297D01*
X17920939Y-55793297D02*
X18063796Y-55840916D01*
X18397130Y-55793297D02*
X18635225Y-56793297D01*
X18635225Y-56793297D02*
X18825701Y-56079011D01*
X18825701Y-56079011D02*
X19016177Y-56793297D01*
X19016177Y-56793297D02*
X19254273Y-55793297D01*
X19682844Y-56793297D02*
X19873320Y-56793297D01*
X19873320Y-56793297D02*
X19968558Y-56745678D01*
X19968558Y-56745678D02*
X20016177Y-56698058D01*
X20016177Y-56698058D02*
X20111415Y-56555201D01*
X20111415Y-56555201D02*
X20159034Y-56364725D01*
X20159034Y-56364725D02*
X20159034Y-55983773D01*
X20159034Y-55983773D02*
X20111415Y-55888535D01*
X20111415Y-55888535D02*
X20063796Y-55840916D01*
X20063796Y-55840916D02*
X19968558Y-55793297D01*
X19968558Y-55793297D02*
X19778082Y-55793297D01*
X19778082Y-55793297D02*
X19682844Y-55840916D01*
X19682844Y-55840916D02*
X19635225Y-55888535D01*
X19635225Y-55888535D02*
X19587606Y-55983773D01*
X19587606Y-55983773D02*
X19587606Y-56221868D01*
X19587606Y-56221868D02*
X19635225Y-56317106D01*
X19635225Y-56317106D02*
X19682844Y-56364725D01*
X19682844Y-56364725D02*
X19778082Y-56412344D01*
X19778082Y-56412344D02*
X19968558Y-56412344D01*
X19968558Y-56412344D02*
X20063796Y-56364725D01*
X20063796Y-56364725D02*
X20111415Y-56317106D01*
X20111415Y-56317106D02*
X20159034Y-56221868D01*
X36542371Y-18645669D02*
X36685228Y-18693288D01*
X36685228Y-18693288D02*
X36923323Y-18693288D01*
X36923323Y-18693288D02*
X37018561Y-18645669D01*
X37018561Y-18645669D02*
X37066180Y-18598049D01*
X37066180Y-18598049D02*
X37113799Y-18502811D01*
X37113799Y-18502811D02*
X37113799Y-18407573D01*
X37113799Y-18407573D02*
X37066180Y-18312335D01*
X37066180Y-18312335D02*
X37018561Y-18264716D01*
X37018561Y-18264716D02*
X36923323Y-18217097D01*
X36923323Y-18217097D02*
X36732847Y-18169478D01*
X36732847Y-18169478D02*
X36637609Y-18121859D01*
X36637609Y-18121859D02*
X36589990Y-18074240D01*
X36589990Y-18074240D02*
X36542371Y-17979002D01*
X36542371Y-17979002D02*
X36542371Y-17883764D01*
X36542371Y-17883764D02*
X36589990Y-17788526D01*
X36589990Y-17788526D02*
X36637609Y-17740907D01*
X36637609Y-17740907D02*
X36732847Y-17693288D01*
X36732847Y-17693288D02*
X36970942Y-17693288D01*
X36970942Y-17693288D02*
X37113799Y-17740907D01*
X37447133Y-17693288D02*
X37685228Y-18693288D01*
X37685228Y-18693288D02*
X37875704Y-17979002D01*
X37875704Y-17979002D02*
X38066180Y-18693288D01*
X38066180Y-18693288D02*
X38304276Y-17693288D01*
X38637609Y-17788526D02*
X38685228Y-17740907D01*
X38685228Y-17740907D02*
X38780466Y-17693288D01*
X38780466Y-17693288D02*
X39018561Y-17693288D01*
X39018561Y-17693288D02*
X39113799Y-17740907D01*
X39113799Y-17740907D02*
X39161418Y-17788526D01*
X39161418Y-17788526D02*
X39209037Y-17883764D01*
X39209037Y-17883764D02*
X39209037Y-17979002D01*
X39209037Y-17979002D02*
X39161418Y-18121859D01*
X39161418Y-18121859D02*
X38589990Y-18693288D01*
X38589990Y-18693288D02*
X39209037Y-18693288D01*
X36542371Y-37695669D02*
X36685228Y-37743288D01*
X36685228Y-37743288D02*
X36923323Y-37743288D01*
X36923323Y-37743288D02*
X37018561Y-37695669D01*
X37018561Y-37695669D02*
X37066180Y-37648049D01*
X37066180Y-37648049D02*
X37113799Y-37552811D01*
X37113799Y-37552811D02*
X37113799Y-37457573D01*
X37113799Y-37457573D02*
X37066180Y-37362335D01*
X37066180Y-37362335D02*
X37018561Y-37314716D01*
X37018561Y-37314716D02*
X36923323Y-37267097D01*
X36923323Y-37267097D02*
X36732847Y-37219478D01*
X36732847Y-37219478D02*
X36637609Y-37171859D01*
X36637609Y-37171859D02*
X36589990Y-37124240D01*
X36589990Y-37124240D02*
X36542371Y-37029002D01*
X36542371Y-37029002D02*
X36542371Y-36933764D01*
X36542371Y-36933764D02*
X36589990Y-36838526D01*
X36589990Y-36838526D02*
X36637609Y-36790907D01*
X36637609Y-36790907D02*
X36732847Y-36743288D01*
X36732847Y-36743288D02*
X36970942Y-36743288D01*
X36970942Y-36743288D02*
X37113799Y-36790907D01*
X37447133Y-36743288D02*
X37685228Y-37743288D01*
X37685228Y-37743288D02*
X37875704Y-37029002D01*
X37875704Y-37029002D02*
X38066180Y-37743288D01*
X38066180Y-37743288D02*
X38304276Y-36743288D01*
X39113799Y-36743288D02*
X38923323Y-36743288D01*
X38923323Y-36743288D02*
X38828085Y-36790907D01*
X38828085Y-36790907D02*
X38780466Y-36838526D01*
X38780466Y-36838526D02*
X38685228Y-36981383D01*
X38685228Y-36981383D02*
X38637609Y-37171859D01*
X38637609Y-37171859D02*
X38637609Y-37552811D01*
X38637609Y-37552811D02*
X38685228Y-37648049D01*
X38685228Y-37648049D02*
X38732847Y-37695669D01*
X38732847Y-37695669D02*
X38828085Y-37743288D01*
X38828085Y-37743288D02*
X39018561Y-37743288D01*
X39018561Y-37743288D02*
X39113799Y-37695669D01*
X39113799Y-37695669D02*
X39161418Y-37648049D01*
X39161418Y-37648049D02*
X39209037Y-37552811D01*
X39209037Y-37552811D02*
X39209037Y-37314716D01*
X39209037Y-37314716D02*
X39161418Y-37219478D01*
X39161418Y-37219478D02*
X39113799Y-37171859D01*
X39113799Y-37171859D02*
X39018561Y-37124240D01*
X39018561Y-37124240D02*
X38828085Y-37124240D01*
X38828085Y-37124240D02*
X38732847Y-37171859D01*
X38732847Y-37171859D02*
X38685228Y-37219478D01*
X38685228Y-37219478D02*
X38637609Y-37314716D01*
X74166171Y-56745696D02*
X74309028Y-56793315D01*
X74309028Y-56793315D02*
X74547123Y-56793315D01*
X74547123Y-56793315D02*
X74642361Y-56745696D01*
X74642361Y-56745696D02*
X74689980Y-56698076D01*
X74689980Y-56698076D02*
X74737599Y-56602838D01*
X74737599Y-56602838D02*
X74737599Y-56507600D01*
X74737599Y-56507600D02*
X74689980Y-56412362D01*
X74689980Y-56412362D02*
X74642361Y-56364743D01*
X74642361Y-56364743D02*
X74547123Y-56317124D01*
X74547123Y-56317124D02*
X74356647Y-56269505D01*
X74356647Y-56269505D02*
X74261409Y-56221886D01*
X74261409Y-56221886D02*
X74213790Y-56174267D01*
X74213790Y-56174267D02*
X74166171Y-56079029D01*
X74166171Y-56079029D02*
X74166171Y-55983791D01*
X74166171Y-55983791D02*
X74213790Y-55888553D01*
X74213790Y-55888553D02*
X74261409Y-55840934D01*
X74261409Y-55840934D02*
X74356647Y-55793315D01*
X74356647Y-55793315D02*
X74594742Y-55793315D01*
X74594742Y-55793315D02*
X74737599Y-55840934D01*
X75070933Y-55793315D02*
X75309028Y-56793315D01*
X75309028Y-56793315D02*
X75499504Y-56079029D01*
X75499504Y-56079029D02*
X75689980Y-56793315D01*
X75689980Y-56793315D02*
X75928076Y-55793315D01*
X76832837Y-56793315D02*
X76261409Y-56793315D01*
X76547123Y-56793315D02*
X76547123Y-55793315D01*
X76547123Y-55793315D02*
X76451885Y-55936172D01*
X76451885Y-55936172D02*
X76356647Y-56031410D01*
X76356647Y-56031410D02*
X76261409Y-56079029D01*
X77213790Y-55888553D02*
X77261409Y-55840934D01*
X77261409Y-55840934D02*
X77356647Y-55793315D01*
X77356647Y-55793315D02*
X77594742Y-55793315D01*
X77594742Y-55793315D02*
X77689980Y-55840934D01*
X77689980Y-55840934D02*
X77737599Y-55888553D01*
X77737599Y-55888553D02*
X77785218Y-55983791D01*
X77785218Y-55983791D02*
X77785218Y-56079029D01*
X77785218Y-56079029D02*
X77737599Y-56221886D01*
X77737599Y-56221886D02*
X77166171Y-56793315D01*
X77166171Y-56793315D02*
X77785218Y-56793315D01*
X55592365Y-37695687D02*
X55735222Y-37743306D01*
X55735222Y-37743306D02*
X55973317Y-37743306D01*
X55973317Y-37743306D02*
X56068555Y-37695687D01*
X56068555Y-37695687D02*
X56116174Y-37648067D01*
X56116174Y-37648067D02*
X56163793Y-37552829D01*
X56163793Y-37552829D02*
X56163793Y-37457591D01*
X56163793Y-37457591D02*
X56116174Y-37362353D01*
X56116174Y-37362353D02*
X56068555Y-37314734D01*
X56068555Y-37314734D02*
X55973317Y-37267115D01*
X55973317Y-37267115D02*
X55782841Y-37219496D01*
X55782841Y-37219496D02*
X55687603Y-37171877D01*
X55687603Y-37171877D02*
X55639984Y-37124258D01*
X55639984Y-37124258D02*
X55592365Y-37029020D01*
X55592365Y-37029020D02*
X55592365Y-36933782D01*
X55592365Y-36933782D02*
X55639984Y-36838544D01*
X55639984Y-36838544D02*
X55687603Y-36790925D01*
X55687603Y-36790925D02*
X55782841Y-36743306D01*
X55782841Y-36743306D02*
X56020936Y-36743306D01*
X56020936Y-36743306D02*
X56163793Y-36790925D01*
X56497127Y-36743306D02*
X56735222Y-37743306D01*
X56735222Y-37743306D02*
X56925698Y-37029020D01*
X56925698Y-37029020D02*
X57116174Y-37743306D01*
X57116174Y-37743306D02*
X57354270Y-36743306D01*
X57639984Y-36743306D02*
X58306650Y-36743306D01*
X58306650Y-36743306D02*
X57878079Y-37743306D01*
X55116174Y-75795687D02*
X55259031Y-75843306D01*
X55259031Y-75843306D02*
X55497126Y-75843306D01*
X55497126Y-75843306D02*
X55592364Y-75795687D01*
X55592364Y-75795687D02*
X55639983Y-75748067D01*
X55639983Y-75748067D02*
X55687602Y-75652829D01*
X55687602Y-75652829D02*
X55687602Y-75557591D01*
X55687602Y-75557591D02*
X55639983Y-75462353D01*
X55639983Y-75462353D02*
X55592364Y-75414734D01*
X55592364Y-75414734D02*
X55497126Y-75367115D01*
X55497126Y-75367115D02*
X55306650Y-75319496D01*
X55306650Y-75319496D02*
X55211412Y-75271877D01*
X55211412Y-75271877D02*
X55163793Y-75224258D01*
X55163793Y-75224258D02*
X55116174Y-75129020D01*
X55116174Y-75129020D02*
X55116174Y-75033782D01*
X55116174Y-75033782D02*
X55163793Y-74938544D01*
X55163793Y-74938544D02*
X55211412Y-74890925D01*
X55211412Y-74890925D02*
X55306650Y-74843306D01*
X55306650Y-74843306D02*
X55544745Y-74843306D01*
X55544745Y-74843306D02*
X55687602Y-74890925D01*
X56020936Y-74843306D02*
X56259031Y-75843306D01*
X56259031Y-75843306D02*
X56449507Y-75129020D01*
X56449507Y-75129020D02*
X56639983Y-75843306D01*
X56639983Y-75843306D02*
X56878079Y-74843306D01*
X57782840Y-75843306D02*
X57211412Y-75843306D01*
X57497126Y-75843306D02*
X57497126Y-74843306D01*
X57497126Y-74843306D02*
X57401888Y-74986163D01*
X57401888Y-74986163D02*
X57306650Y-75081401D01*
X57306650Y-75081401D02*
X57211412Y-75129020D01*
X58687602Y-74843306D02*
X58211412Y-74843306D01*
X58211412Y-74843306D02*
X58163793Y-75319496D01*
X58163793Y-75319496D02*
X58211412Y-75271877D01*
X58211412Y-75271877D02*
X58306650Y-75224258D01*
X58306650Y-75224258D02*
X58544745Y-75224258D01*
X58544745Y-75224258D02*
X58639983Y-75271877D01*
X58639983Y-75271877D02*
X58687602Y-75319496D01*
X58687602Y-75319496D02*
X58735221Y-75414734D01*
X58735221Y-75414734D02*
X58735221Y-75652829D01*
X58735221Y-75652829D02*
X58687602Y-75748067D01*
X58687602Y-75748067D02*
X58639983Y-75795687D01*
X58639983Y-75795687D02*
X58544745Y-75843306D01*
X58544745Y-75843306D02*
X58306650Y-75843306D01*
X58306650Y-75843306D02*
X58211412Y-75795687D01*
X58211412Y-75795687D02*
X58163793Y-75748067D01*
X26920517Y-10254391D02*
X27730040Y-10254391D01*
X27730040Y-10254391D02*
X27825278Y-10206772D01*
X27825278Y-10206772D02*
X27872898Y-10159153D01*
X27872898Y-10159153D02*
X27920517Y-10063915D01*
X27920517Y-10063915D02*
X27920517Y-9873439D01*
X27920517Y-9873439D02*
X27872898Y-9778201D01*
X27872898Y-9778201D02*
X27825278Y-9730582D01*
X27825278Y-9730582D02*
X27730040Y-9682963D01*
X27730040Y-9682963D02*
X26920517Y-9682963D01*
X27015755Y-9254391D02*
X26968136Y-9206772D01*
X26968136Y-9206772D02*
X26920517Y-9111534D01*
X26920517Y-9111534D02*
X26920517Y-8873439D01*
X26920517Y-8873439D02*
X26968136Y-8778201D01*
X26968136Y-8778201D02*
X27015755Y-8730582D01*
X27015755Y-8730582D02*
X27110993Y-8682963D01*
X27110993Y-8682963D02*
X27206231Y-8682963D01*
X27206231Y-8682963D02*
X27349088Y-8730582D01*
X27349088Y-8730582D02*
X27920517Y-9302010D01*
X27920517Y-9302010D02*
X27920517Y-8682963D01*
X74642362Y-37695696D02*
X74785219Y-37743315D01*
X74785219Y-37743315D02*
X75023314Y-37743315D01*
X75023314Y-37743315D02*
X75118552Y-37695696D01*
X75118552Y-37695696D02*
X75166171Y-37648076D01*
X75166171Y-37648076D02*
X75213790Y-37552838D01*
X75213790Y-37552838D02*
X75213790Y-37457600D01*
X75213790Y-37457600D02*
X75166171Y-37362362D01*
X75166171Y-37362362D02*
X75118552Y-37314743D01*
X75118552Y-37314743D02*
X75023314Y-37267124D01*
X75023314Y-37267124D02*
X74832838Y-37219505D01*
X74832838Y-37219505D02*
X74737600Y-37171886D01*
X74737600Y-37171886D02*
X74689981Y-37124267D01*
X74689981Y-37124267D02*
X74642362Y-37029029D01*
X74642362Y-37029029D02*
X74642362Y-36933791D01*
X74642362Y-36933791D02*
X74689981Y-36838553D01*
X74689981Y-36838553D02*
X74737600Y-36790934D01*
X74737600Y-36790934D02*
X74832838Y-36743315D01*
X74832838Y-36743315D02*
X75070933Y-36743315D01*
X75070933Y-36743315D02*
X75213790Y-36790934D01*
X75547124Y-36743315D02*
X75785219Y-37743315D01*
X75785219Y-37743315D02*
X75975695Y-37029029D01*
X75975695Y-37029029D02*
X76166171Y-37743315D01*
X76166171Y-37743315D02*
X76404267Y-36743315D01*
X76928076Y-37171886D02*
X76832838Y-37124267D01*
X76832838Y-37124267D02*
X76785219Y-37076648D01*
X76785219Y-37076648D02*
X76737600Y-36981410D01*
X76737600Y-36981410D02*
X76737600Y-36933791D01*
X76737600Y-36933791D02*
X76785219Y-36838553D01*
X76785219Y-36838553D02*
X76832838Y-36790934D01*
X76832838Y-36790934D02*
X76928076Y-36743315D01*
X76928076Y-36743315D02*
X77118552Y-36743315D01*
X77118552Y-36743315D02*
X77213790Y-36790934D01*
X77213790Y-36790934D02*
X77261409Y-36838553D01*
X77261409Y-36838553D02*
X77309028Y-36933791D01*
X77309028Y-36933791D02*
X77309028Y-36981410D01*
X77309028Y-36981410D02*
X77261409Y-37076648D01*
X77261409Y-37076648D02*
X77213790Y-37124267D01*
X77213790Y-37124267D02*
X77118552Y-37171886D01*
X77118552Y-37171886D02*
X76928076Y-37171886D01*
X76928076Y-37171886D02*
X76832838Y-37219505D01*
X76832838Y-37219505D02*
X76785219Y-37267124D01*
X76785219Y-37267124D02*
X76737600Y-37362362D01*
X76737600Y-37362362D02*
X76737600Y-37552838D01*
X76737600Y-37552838D02*
X76785219Y-37648076D01*
X76785219Y-37648076D02*
X76832838Y-37695696D01*
X76832838Y-37695696D02*
X76928076Y-37743315D01*
X76928076Y-37743315D02*
X77118552Y-37743315D01*
X77118552Y-37743315D02*
X77213790Y-37695696D01*
X77213790Y-37695696D02*
X77261409Y-37648076D01*
X77261409Y-37648076D02*
X77309028Y-37552838D01*
X77309028Y-37552838D02*
X77309028Y-37362362D01*
X77309028Y-37362362D02*
X77261409Y-37267124D01*
X77261409Y-37267124D02*
X77213790Y-37219505D01*
X77213790Y-37219505D02*
X77118552Y-37171886D01*
%TO.C,SW5*%
D11*
X11840704Y-38177469D02*
X25810704Y-38177469D01*
X11840704Y-52147469D02*
X11840704Y-38177469D01*
X25810704Y-38177469D02*
X25810704Y-52147469D01*
X25810704Y-52147469D02*
X11840704Y-52147469D01*
%TO.C,SW11*%
X49940695Y-57227496D02*
X63910695Y-57227496D01*
X49940695Y-71197496D02*
X49940695Y-57227496D01*
X63910695Y-57227496D02*
X63910695Y-71197496D01*
X63910695Y-71197496D02*
X49940695Y-71197496D01*
%TO.C,SW3*%
X49940701Y-19127478D02*
X63910701Y-19127478D01*
X49940701Y-33097478D02*
X49940701Y-19127478D01*
X63910701Y-19127478D02*
X63910701Y-33097478D01*
X63910701Y-33097478D02*
X49940701Y-33097478D01*
%TO.C,SW16*%
X68990692Y-76277505D02*
X82960692Y-76277505D01*
X68990692Y-90247505D02*
X68990692Y-76277505D01*
X82960692Y-76277505D02*
X82960692Y-90247505D01*
X82960692Y-90247505D02*
X68990692Y-90247505D01*
%TO.C,SW4*%
X68990698Y-19127487D02*
X82960698Y-19127487D01*
X68990698Y-33097487D02*
X68990698Y-19127487D01*
X82960698Y-19127487D02*
X82960698Y-33097487D01*
X82960698Y-33097487D02*
X68990698Y-33097487D01*
%TO.C,SW1*%
X11840707Y-19127460D02*
X25810707Y-19127460D01*
X11840707Y-33097460D02*
X11840707Y-19127460D01*
X25810707Y-19127460D02*
X25810707Y-33097460D01*
X25810707Y-33097460D02*
X11840707Y-33097460D01*
%TO.C,SW13*%
X11840698Y-76277487D02*
X25810698Y-76277487D01*
X11840698Y-90247487D02*
X11840698Y-76277487D01*
X25810698Y-76277487D02*
X25810698Y-90247487D01*
X25810698Y-90247487D02*
X11840698Y-90247487D01*
%TO.C,SW14*%
X30890698Y-76277487D02*
X44860698Y-76277487D01*
X30890698Y-90247487D02*
X30890698Y-76277487D01*
X44860698Y-76277487D02*
X44860698Y-90247487D01*
X44860698Y-90247487D02*
X30890698Y-90247487D01*
%TO.C,SW10*%
X30890701Y-57227478D02*
X44860701Y-57227478D01*
X30890701Y-71197478D02*
X30890701Y-57227478D01*
X44860701Y-57227478D02*
X44860701Y-71197478D01*
X44860701Y-71197478D02*
X30890701Y-71197478D01*
%TO.C,SW9*%
X11840701Y-57227478D02*
X25810701Y-57227478D01*
X11840701Y-71197478D02*
X11840701Y-57227478D01*
X25810701Y-57227478D02*
X25810701Y-71197478D01*
X25810701Y-71197478D02*
X11840701Y-71197478D01*
%TO.C,SW2*%
X30890704Y-19127469D02*
X44860704Y-19127469D01*
X30890704Y-33097469D02*
X30890704Y-19127469D01*
X44860704Y-19127469D02*
X44860704Y-33097469D01*
X44860704Y-33097469D02*
X30890704Y-33097469D01*
%TO.C,SW6*%
X30890704Y-38177469D02*
X44860704Y-38177469D01*
X30890704Y-52147469D02*
X30890704Y-38177469D01*
X44860704Y-38177469D02*
X44860704Y-52147469D01*
X44860704Y-52147469D02*
X30890704Y-52147469D01*
%TO.C,SW12*%
X68990695Y-57227496D02*
X82960695Y-57227496D01*
X68990695Y-71197496D02*
X68990695Y-57227496D01*
X82960695Y-57227496D02*
X82960695Y-71197496D01*
X82960695Y-71197496D02*
X68990695Y-71197496D01*
%TO.C,SW7*%
X49940698Y-38177487D02*
X63910698Y-38177487D01*
X49940698Y-52147487D02*
X49940698Y-38177487D01*
X63910698Y-38177487D02*
X63910698Y-52147487D01*
X63910698Y-52147487D02*
X49940698Y-52147487D01*
%TO.C,SW15*%
X49940698Y-76277487D02*
X63910698Y-76277487D01*
X49940698Y-90247487D02*
X49940698Y-76277487D01*
X63910698Y-76277487D02*
X63910698Y-90247487D01*
X63910698Y-90247487D02*
X49940698Y-90247487D01*
%TO.C,U2*%
X29965698Y-14872487D02*
X31345698Y-14872487D01*
X31345698Y-13492487D02*
X31345698Y-14872487D01*
X28465698Y-3682487D02*
X66465698Y-3682487D01*
X66465698Y-15682487D01*
X28465698Y-15682487D01*
X28465698Y-3682487D01*
%TO.C,SW8*%
X68990695Y-38177496D02*
X82960695Y-38177496D01*
X68990695Y-52147496D02*
X68990695Y-38177496D01*
X82960695Y-38177496D02*
X82960695Y-52147496D01*
X82960695Y-52147496D02*
X68990695Y-52147496D01*
%TD*%
M02*
