%TF.GenerationSoftware,KiCad,Pcbnew,10.0.3*%
%TF.CreationDate,2026-09-18T20:42:14+05:30*%
%TF.ProjectId,IK_DEXK,494b5f44-4558-44b2-9e6b-696361645f70,rev?*%
%TF.SameCoordinates,Original*%
%TF.FileFunction,Copper,L2,Bot*%
%TF.FilePolarity,Positive*%
%FSLAX46Y46*%
G04 Gerber Fmt 4.6, Leading zero omitted, Abs format (unit mm)*
G04 Created by KiCad (PCBNEW 10.0.3) date 2026-09-18 20:42:14*
%MOMM*%
%LPD*%
G01*
G04 APERTURE LIST*
G04 Aperture macros list*
%AMRoundRect*
0 Rectangle with rounded corners*
0 $1 Rounding radius*
0 $2 $3 $4 $5 $6 $7 $8 $9 X,Y pos of 4 corners*
0 Add a 4 corners polygon primitive as box body*
4,1,4,$2,$3,$4,$5,$6,$7,$8,$9,$2,$3,0*
0 Add four circle primitives for the rounded corners*
1,1,$1+$1,$2,$3*
1,1,$1+$1,$4,$5*
1,1,$1+$1,$6,$7*
1,1,$1+$1,$8,$9*
0 Add four rect primitives between the rounded corners*
20,1,$1+$1,$2,$3,$4,$5,0*
20,1,$1+$1,$4,$5,$6,$7,0*
20,1,$1+$1,$6,$7,$8,$9,0*
20,1,$1+$1,$8,$9,$2,$3,0*%
G04 Aperture macros list end*
%TA.AperFunction,ComponentPad*%
%ADD10C,2.200000*%
%TD*%
%TA.AperFunction,ComponentPad*%
%ADD11RoundRect,0.170000X0.680000X-0.680000X0.680000X0.680000X-0.680000X0.680000X-0.680000X-0.680000X0*%
%TD*%
%TA.AperFunction,ComponentPad*%
%ADD12C,1.700000*%
%TD*%
%TA.AperFunction,ComponentPad*%
%ADD13RoundRect,0.250000X-0.550000X0.550000X-0.550000X-0.550000X0.550000X-0.550000X0.550000X0.550000X0*%
%TD*%
%TA.AperFunction,ComponentPad*%
%ADD14C,1.600000*%
%TD*%
%TA.AperFunction,ComponentPad*%
%ADD15R,3.500000X1.700000*%
%TD*%
%TA.AperFunction,ComponentPad*%
%ADD16O,3.600000X1.700000*%
%TD*%
%TA.AperFunction,ComponentPad*%
%ADD17O,3.700000X1.700000*%
%TD*%
%TA.AperFunction,Conductor*%
%ADD18C,0.200000*%
%TD*%
G04 APERTURE END LIST*
D10*
%TO.P,SW5,1,1_1*%
%TO.N,/Column0*%
X21365704Y-40082469D03*
%TO.P,SW5,2,2_2*%
%TO.N,Net-(D5-A)*%
X15015704Y-42622469D03*
%TD*%
%TO.P,SW11,1,1_1*%
%TO.N,/Column2*%
X59465695Y-59132496D03*
%TO.P,SW11,2,2_2*%
%TO.N,Net-(D11-A)*%
X53115695Y-61672496D03*
%TD*%
%TO.P,SW3,1,1_1*%
%TO.N,/Column2*%
X59465701Y-21032478D03*
%TO.P,SW3,2,2_2*%
%TO.N,Net-(D3-A)*%
X53115701Y-23572478D03*
%TD*%
%TO.P,SW16,1,1_1*%
%TO.N,/Column3*%
X78515692Y-78182505D03*
%TO.P,SW16,2,2_2*%
%TO.N,Net-(D16-A)*%
X72165692Y-80722505D03*
%TD*%
%TO.P,SW4,1,1_1*%
%TO.N,/Column3*%
X78515698Y-21032487D03*
%TO.P,SW4,2,2_2*%
%TO.N,Net-(D4-A)*%
X72165698Y-23572487D03*
%TD*%
%TO.P,SW1,1,1_1*%
%TO.N,/Column0*%
X21365707Y-21032460D03*
%TO.P,SW1,2,2_2*%
%TO.N,Net-(D1-A)*%
X15015707Y-23572460D03*
%TD*%
%TO.P,SW13,1,1_1*%
%TO.N,/Column0*%
X21365698Y-78182487D03*
%TO.P,SW13,2,2_2*%
%TO.N,Net-(D13-A)*%
X15015698Y-80722487D03*
%TD*%
%TO.P,SW14,1,1_1*%
%TO.N,/Column1*%
X40415698Y-78182487D03*
%TO.P,SW14,2,2_2*%
%TO.N,Net-(D14-A)*%
X34065698Y-80722487D03*
%TD*%
%TO.P,SW10,1,1_1*%
%TO.N,/Column1*%
X40415701Y-59132478D03*
%TO.P,SW10,2,2_2*%
%TO.N,Net-(D10-A)*%
X34065701Y-61672478D03*
%TD*%
%TO.P,SW9,1,1_1*%
%TO.N,/Column0*%
X21365701Y-59132478D03*
%TO.P,SW9,2,2_2*%
%TO.N,Net-(D9-A)*%
X15015701Y-61672478D03*
%TD*%
%TO.P,SW2,1,1_1*%
%TO.N,/Column1*%
X40415704Y-21032469D03*
%TO.P,SW2,2,2_2*%
%TO.N,Net-(D2-A)*%
X34065704Y-23572469D03*
%TD*%
%TO.P,SW6,1,1_1*%
%TO.N,/Column1*%
X40415704Y-40082469D03*
%TO.P,SW6,2,2_2*%
%TO.N,Net-(D6-A)*%
X34065704Y-42622469D03*
%TD*%
%TO.P,SW12,1,1_1*%
%TO.N,/Column3*%
X78515695Y-59132496D03*
%TO.P,SW12,2,2_2*%
%TO.N,Net-(D12-A)*%
X72165695Y-61672496D03*
%TD*%
%TO.P,SW7,1,1_1*%
%TO.N,/Column2*%
X59465698Y-40082487D03*
%TO.P,SW7,2,2_2*%
%TO.N,Net-(D7-A)*%
X53115698Y-42622487D03*
%TD*%
%TO.P,SW15,1,1_1*%
%TO.N,/Column2*%
X59465698Y-78182487D03*
%TO.P,SW15,2,2_2*%
%TO.N,Net-(D15-A)*%
X53115698Y-80722487D03*
%TD*%
D11*
%TO.P,U2,1,GND_1*%
%TO.N,GND*%
X29965698Y-13492487D03*
D12*
%TO.P,U2,2,VCC_2*%
%TO.N,VCC*%
X29965698Y-10952487D03*
%TO.P,U2,3,SCL_3*%
%TO.N,Net-(U1-PA9_A5_D5_SCL)*%
X29965698Y-8412487D03*
%TO.P,U2,4,SDA_4*%
%TO.N,Net-(U1-PA8_A4_D4_SDA)*%
X29965698Y-5872487D03*
%TD*%
D10*
%TO.P,SW8,1,1_1*%
%TO.N,/Column3*%
X78515695Y-40082496D03*
%TO.P,SW8,2,2_2*%
%TO.N,Net-(D8-A)*%
X72165695Y-42622496D03*
%TD*%
D13*
%TO.P,D16,1,K_1*%
%TO.N,/Row3*%
X85345698Y-79162487D03*
D14*
%TO.P,D16,2,A_2*%
%TO.N,Net-(D16-A)*%
X85345698Y-86782487D03*
%TD*%
D13*
%TO.P,D2,1,K_1*%
%TO.N,/Row0*%
X47345698Y-23352487D03*
D14*
%TO.P,D2,2,A_2*%
%TO.N,Net-(D2-A)*%
X47345698Y-30972487D03*
%TD*%
D13*
%TO.P,D6,1,K_1*%
%TO.N,/Row1*%
X47345698Y-41852487D03*
D14*
%TO.P,D6,2,A_2*%
%TO.N,Net-(D6-A)*%
X47345698Y-49472487D03*
%TD*%
D13*
%TO.P,D3,1,K_1*%
%TO.N,/Row0*%
X66345698Y-23352487D03*
D14*
%TO.P,D3,2,A_2*%
%TO.N,Net-(D3-A)*%
X66345698Y-30972487D03*
%TD*%
D13*
%TO.P,D14,1,K_1*%
%TO.N,/Row3*%
X47345698Y-79162487D03*
D14*
%TO.P,D14,2,A_2*%
%TO.N,Net-(D14-A)*%
X47345698Y-86782487D03*
%TD*%
D13*
%TO.P,D13,1,K_1*%
%TO.N,/Row3*%
X28345698Y-79162487D03*
D14*
%TO.P,D13,2,A_2*%
%TO.N,Net-(D13-A)*%
X28345698Y-86782487D03*
%TD*%
D13*
%TO.P,D5,1,K_1*%
%TO.N,/Row1*%
X28345698Y-41662487D03*
D14*
%TO.P,D5,2,A_2*%
%TO.N,Net-(D5-A)*%
X28345698Y-49282487D03*
%TD*%
D13*
%TO.P,D4,1,K_1*%
%TO.N,/Row0*%
X85845698Y-23352487D03*
D14*
%TO.P,D4,2,A_2*%
%TO.N,Net-(D4-A)*%
X85845698Y-30972487D03*
%TD*%
D13*
%TO.P,D1,1,K_1*%
%TO.N,/Row0*%
X28345698Y-23352487D03*
D14*
%TO.P,D1,2,A_2*%
%TO.N,Net-(D1-A)*%
X28345698Y-30972487D03*
%TD*%
D13*
%TO.P,D7,1,K_1*%
%TO.N,/Row1*%
X66345698Y-41852487D03*
D14*
%TO.P,D7,2,A_2*%
%TO.N,Net-(D7-A)*%
X66345698Y-49472487D03*
%TD*%
D13*
%TO.P,D11,1,K_1*%
%TO.N,/Row2*%
X66345698Y-60852487D03*
D14*
%TO.P,D11,2,A_2*%
%TO.N,Net-(D11-A)*%
X66345698Y-68472487D03*
%TD*%
D13*
%TO.P,D9,1,K_1*%
%TO.N,/Row2*%
X28345698Y-60852487D03*
D14*
%TO.P,D9,2,A_2*%
%TO.N,Net-(D9-A)*%
X28345698Y-68472487D03*
%TD*%
D15*
%TO.P,U1,1,PA02_A0_D0_1*%
%TO.N,/Row0*%
X55465698Y-3182487D03*
D16*
%TO.P,U1,2,PA4_A1_D1_2*%
%TO.N,/Row1*%
X55465698Y-5722487D03*
%TO.P,U1,3,PA10_A2_D2_3*%
%TO.N,/Row2*%
X55465698Y-8262487D03*
%TO.P,U1,4,PA11_A3_D3_4*%
%TO.N,/Row3*%
X55465698Y-10802487D03*
%TO.P,U1,5,PA8_A4_D4_SDA_5*%
%TO.N,Net-(U1-PA8_A4_D4_SDA)*%
X55465698Y-13342487D03*
%TO.P,U1,6,PA9_A5_D5_SCL_6*%
%TO.N,Net-(U1-PA9_A5_D5_SCL)*%
X55465698Y-15882487D03*
%TO.P,U1,7,PB08_A6_D6_TX_7*%
%TO.N,unconnected-(U1-PB08_A6_D6_TX-Pad7)*%
X55465698Y-18422487D03*
%TO.P,U1,8,PB09_A7_D7_RX_8*%
%TO.N,/Column3*%
X38215698Y-18422487D03*
%TO.P,U1,9,PA7_A8_D8_SCK_9*%
%TO.N,/Column2*%
X38215698Y-15882487D03*
%TO.P,U1,10,PA5_A9_D9_MISO_10*%
%TO.N,/Column1*%
X38215698Y-13342487D03*
D17*
%TO.P,U1,11,PA6_A10_D10_MOSI_11*%
%TO.N,/Column0*%
X38215698Y-10802487D03*
%TO.P,U1,12,3V3_12*%
%TO.N,unconnected-(U1-3V3-Pad12)*%
X38215698Y-8262487D03*
%TO.P,U1,13,GND_13*%
%TO.N,GND*%
X38215698Y-5722487D03*
%TO.P,U1,14,5V_14*%
%TO.N,VCC*%
X38215698Y-3182487D03*
%TD*%
D13*
%TO.P,D10,1,K_1*%
%TO.N,/Row2*%
X47345698Y-60852487D03*
D14*
%TO.P,D10,2,A_2*%
%TO.N,Net-(D10-A)*%
X47345698Y-68472487D03*
%TD*%
D13*
%TO.P,D8,1,K_1*%
%TO.N,/Row1*%
X85845698Y-41852487D03*
D14*
%TO.P,D8,2,A_2*%
%TO.N,Net-(D8-A)*%
X85845698Y-49472487D03*
%TD*%
D13*
%TO.P,D15,1,K_1*%
%TO.N,/Row3*%
X66345698Y-79162487D03*
D14*
%TO.P,D15,2,A_2*%
%TO.N,Net-(D15-A)*%
X66345698Y-86782487D03*
%TD*%
D13*
%TO.P,D12,1,K_1*%
%TO.N,/Row2*%
X85345698Y-60852487D03*
D14*
%TO.P,D12,2,A_2*%
%TO.N,Net-(D12-A)*%
X85345698Y-68472487D03*
%TD*%
%TO.N,/Column0*%
D18*
X21365707Y-78182478D02*
X21365698Y-78182487D01*
X21365707Y-21032460D02*
X21365707Y-78182478D01*
%TO.N,/Column2*%
X59465701Y-21032478D02*
X59465701Y-78182484D01*
X59465701Y-78182484D02*
X59465698Y-78182487D01*
%TO.N,/Column3*%
X78515698Y-21032487D02*
X78515698Y-78182499D01*
X78515698Y-78182499D02*
X78515692Y-78182505D01*
%TO.N,/Column1*%
X40415704Y-66721091D02*
X40415698Y-66721097D01*
X40415704Y-21032469D02*
X40415704Y-66721091D01*
X40415698Y-66721097D02*
X40415698Y-78182487D01*
%TO.N,/Row3*%
X35465704Y-15816135D02*
X36789352Y-14492487D01*
X50775698Y-14492487D02*
X54465698Y-10802487D01*
X36789352Y-14492487D02*
X50775698Y-14492487D01*
X28345698Y-79162487D02*
X35465704Y-72042481D01*
X35465704Y-72042481D02*
X35465704Y-15816135D01*
%TO.N,/Row0*%
X28345698Y-13083097D02*
X29088795Y-12340000D01*
X28345698Y-23352487D02*
X28345698Y-13083097D01*
X36979352Y-6872487D02*
X50775698Y-6872487D01*
X29088795Y-12340000D02*
X31511839Y-12340000D01*
X31511839Y-12340000D02*
X36979352Y-6872487D01*
X50775698Y-6872487D02*
X54465698Y-3182487D01*
%TO.N,/Row1*%
X29445698Y-16946141D02*
X36979352Y-9412487D01*
X50775698Y-9412487D02*
X54465698Y-5722487D01*
X28345698Y-41662487D02*
X29445698Y-40562487D01*
X36979352Y-9412487D02*
X50775698Y-9412487D01*
X29445698Y-40562487D02*
X29445698Y-16946141D01*
%TO.N,/Row2*%
X28345698Y-60852487D02*
X31240000Y-57958185D01*
X37029352Y-11952487D02*
X50775698Y-11952487D01*
X31240000Y-57958185D02*
X31240000Y-17741839D01*
X31240000Y-17741839D02*
X37029352Y-11952487D01*
X50775698Y-11952487D02*
X54465698Y-8262487D01*
%TD*%
M02*
