%TF.GenerationSoftware,KiCad,Pcbnew,10.0.3*%
%TF.CreationDate,2026-09-13T17:55:03+05:30*%
%TF.ProjectId,IK_DEXK,494b5f44-4558-44b2-9e6b-696361645f70,rev?*%
%TF.SameCoordinates,Original*%
%TF.FileFunction,Legend,Top*%
%TF.FilePolarity,Positive*%
%FSLAX46Y46*%
G04 Gerber Fmt 4.6, Leading zero omitted, Abs format (unit mm)*
G04 Created by KiCad (PCBNEW 10.0.3) date 2026-09-13 17:55:03*
%MOMM*%
%LPD*%
G01*
G04 APERTURE LIST*
%ADD10C,0.150000*%
%ADD11C,0.120000*%
G04 APERTURE END LIST*
D10*
X148776779Y-105119819D02*
X148776779Y-104119819D01*
X148776779Y-104119819D02*
X149014874Y-104119819D01*
X149014874Y-104119819D02*
X149157731Y-104167438D01*
X149157731Y-104167438D02*
X149252969Y-104262676D01*
X149252969Y-104262676D02*
X149300588Y-104357914D01*
X149300588Y-104357914D02*
X149348207Y-104548390D01*
X149348207Y-104548390D02*
X149348207Y-104691247D01*
X149348207Y-104691247D02*
X149300588Y-104881723D01*
X149300588Y-104881723D02*
X149252969Y-104976961D01*
X149252969Y-104976961D02*
X149157731Y-105072200D01*
X149157731Y-105072200D02*
X149014874Y-105119819D01*
X149014874Y-105119819D02*
X148776779Y-105119819D01*
X149776779Y-104596009D02*
X150110112Y-104596009D01*
X150252969Y-105119819D02*
X149776779Y-105119819D01*
X149776779Y-105119819D02*
X149776779Y-104119819D01*
X149776779Y-104119819D02*
X150252969Y-104119819D01*
X150633922Y-105072200D02*
X150776779Y-105119819D01*
X150776779Y-105119819D02*
X151014874Y-105119819D01*
X151014874Y-105119819D02*
X151110112Y-105072200D01*
X151110112Y-105072200D02*
X151157731Y-105024580D01*
X151157731Y-105024580D02*
X151205350Y-104929342D01*
X151205350Y-104929342D02*
X151205350Y-104834104D01*
X151205350Y-104834104D02*
X151157731Y-104738866D01*
X151157731Y-104738866D02*
X151110112Y-104691247D01*
X151110112Y-104691247D02*
X151014874Y-104643628D01*
X151014874Y-104643628D02*
X150824398Y-104596009D01*
X150824398Y-104596009D02*
X150729160Y-104548390D01*
X150729160Y-104548390D02*
X150681541Y-104500771D01*
X150681541Y-104500771D02*
X150633922Y-104405533D01*
X150633922Y-104405533D02*
X150633922Y-104310295D01*
X150633922Y-104310295D02*
X150681541Y-104215057D01*
X150681541Y-104215057D02*
X150729160Y-104167438D01*
X150729160Y-104167438D02*
X150824398Y-104119819D01*
X150824398Y-104119819D02*
X151062493Y-104119819D01*
X151062493Y-104119819D02*
X151205350Y-104167438D01*
X151633922Y-105119819D02*
X151633922Y-104119819D01*
X152633921Y-104167438D02*
X152538683Y-104119819D01*
X152538683Y-104119819D02*
X152395826Y-104119819D01*
X152395826Y-104119819D02*
X152252969Y-104167438D01*
X152252969Y-104167438D02*
X152157731Y-104262676D01*
X152157731Y-104262676D02*
X152110112Y-104357914D01*
X152110112Y-104357914D02*
X152062493Y-104548390D01*
X152062493Y-104548390D02*
X152062493Y-104691247D01*
X152062493Y-104691247D02*
X152110112Y-104881723D01*
X152110112Y-104881723D02*
X152157731Y-104976961D01*
X152157731Y-104976961D02*
X152252969Y-105072200D01*
X152252969Y-105072200D02*
X152395826Y-105119819D01*
X152395826Y-105119819D02*
X152491064Y-105119819D01*
X152491064Y-105119819D02*
X152633921Y-105072200D01*
X152633921Y-105072200D02*
X152681540Y-105024580D01*
X152681540Y-105024580D02*
X152681540Y-104691247D01*
X152681540Y-104691247D02*
X152491064Y-104691247D01*
X153110112Y-105119819D02*
X153110112Y-104119819D01*
X153110112Y-104119819D02*
X153681540Y-105119819D01*
X153681540Y-105119819D02*
X153681540Y-104119819D01*
X154157731Y-104596009D02*
X154491064Y-104596009D01*
X154633921Y-105119819D02*
X154157731Y-105119819D01*
X154157731Y-105119819D02*
X154157731Y-104119819D01*
X154157731Y-104119819D02*
X154633921Y-104119819D01*
X155062493Y-105119819D02*
X155062493Y-104119819D01*
X155062493Y-104119819D02*
X155300588Y-104119819D01*
X155300588Y-104119819D02*
X155443445Y-104167438D01*
X155443445Y-104167438D02*
X155538683Y-104262676D01*
X155538683Y-104262676D02*
X155586302Y-104357914D01*
X155586302Y-104357914D02*
X155633921Y-104548390D01*
X155633921Y-104548390D02*
X155633921Y-104691247D01*
X155633921Y-104691247D02*
X155586302Y-104881723D01*
X155586302Y-104881723D02*
X155538683Y-104976961D01*
X155538683Y-104976961D02*
X155443445Y-105072200D01*
X155443445Y-105072200D02*
X155300588Y-105119819D01*
X155300588Y-105119819D02*
X155062493Y-105119819D01*
X157157731Y-104596009D02*
X157300588Y-104643628D01*
X157300588Y-104643628D02*
X157348207Y-104691247D01*
X157348207Y-104691247D02*
X157395826Y-104786485D01*
X157395826Y-104786485D02*
X157395826Y-104929342D01*
X157395826Y-104929342D02*
X157348207Y-105024580D01*
X157348207Y-105024580D02*
X157300588Y-105072200D01*
X157300588Y-105072200D02*
X157205350Y-105119819D01*
X157205350Y-105119819D02*
X156824398Y-105119819D01*
X156824398Y-105119819D02*
X156824398Y-104119819D01*
X156824398Y-104119819D02*
X157157731Y-104119819D01*
X157157731Y-104119819D02*
X157252969Y-104167438D01*
X157252969Y-104167438D02*
X157300588Y-104215057D01*
X157300588Y-104215057D02*
X157348207Y-104310295D01*
X157348207Y-104310295D02*
X157348207Y-104405533D01*
X157348207Y-104405533D02*
X157300588Y-104500771D01*
X157300588Y-104500771D02*
X157252969Y-104548390D01*
X157252969Y-104548390D02*
X157157731Y-104596009D01*
X157157731Y-104596009D02*
X156824398Y-104596009D01*
X158014874Y-104643628D02*
X158014874Y-105119819D01*
X157681541Y-104119819D02*
X158014874Y-104643628D01*
X158014874Y-104643628D02*
X158348207Y-104119819D01*
X159443446Y-105119819D02*
X159443446Y-104119819D01*
X159872017Y-105072200D02*
X160014874Y-105119819D01*
X160014874Y-105119819D02*
X160252969Y-105119819D01*
X160252969Y-105119819D02*
X160348207Y-105072200D01*
X160348207Y-105072200D02*
X160395826Y-105024580D01*
X160395826Y-105024580D02*
X160443445Y-104929342D01*
X160443445Y-104929342D02*
X160443445Y-104834104D01*
X160443445Y-104834104D02*
X160395826Y-104738866D01*
X160395826Y-104738866D02*
X160348207Y-104691247D01*
X160348207Y-104691247D02*
X160252969Y-104643628D01*
X160252969Y-104643628D02*
X160062493Y-104596009D01*
X160062493Y-104596009D02*
X159967255Y-104548390D01*
X159967255Y-104548390D02*
X159919636Y-104500771D01*
X159919636Y-104500771D02*
X159872017Y-104405533D01*
X159872017Y-104405533D02*
X159872017Y-104310295D01*
X159872017Y-104310295D02*
X159919636Y-104215057D01*
X159919636Y-104215057D02*
X159967255Y-104167438D01*
X159967255Y-104167438D02*
X160062493Y-104119819D01*
X160062493Y-104119819D02*
X160300588Y-104119819D01*
X160300588Y-104119819D02*
X160443445Y-104167438D01*
X160872017Y-105119819D02*
X160872017Y-104119819D01*
X160872017Y-104596009D02*
X161443445Y-104596009D01*
X161443445Y-105119819D02*
X161443445Y-104119819D01*
X161872017Y-104834104D02*
X162348207Y-104834104D01*
X161776779Y-105119819D02*
X162110112Y-104119819D01*
X162110112Y-104119819D02*
X162443445Y-105119819D01*
X162776779Y-105119819D02*
X162776779Y-104119819D01*
X162776779Y-104119819D02*
X163348207Y-105119819D01*
X163348207Y-105119819D02*
X163348207Y-104119819D01*
X164586303Y-105119819D02*
X164586303Y-104119819D01*
X165157731Y-105119819D02*
X164729160Y-104548390D01*
X165157731Y-104119819D02*
X164586303Y-104691247D01*
X165538684Y-104834104D02*
X166014874Y-104834104D01*
X165443446Y-105119819D02*
X165776779Y-104119819D01*
X165776779Y-104119819D02*
X166110112Y-105119819D01*
X167014874Y-105119819D02*
X166681541Y-104643628D01*
X166443446Y-105119819D02*
X166443446Y-104119819D01*
X166443446Y-104119819D02*
X166824398Y-104119819D01*
X166824398Y-104119819D02*
X166919636Y-104167438D01*
X166919636Y-104167438D02*
X166967255Y-104215057D01*
X166967255Y-104215057D02*
X167014874Y-104310295D01*
X167014874Y-104310295D02*
X167014874Y-104453152D01*
X167014874Y-104453152D02*
X166967255Y-104548390D01*
X166967255Y-104548390D02*
X166919636Y-104596009D01*
X166919636Y-104596009D02*
X166824398Y-104643628D01*
X166824398Y-104643628D02*
X166443446Y-104643628D01*
X167395827Y-104834104D02*
X167872017Y-104834104D01*
X167300589Y-105119819D02*
X167633922Y-104119819D01*
X167633922Y-104119819D02*
X167967255Y-105119819D01*
X168872017Y-105119819D02*
X168538684Y-104643628D01*
X168300589Y-105119819D02*
X168300589Y-104119819D01*
X168300589Y-104119819D02*
X168681541Y-104119819D01*
X168681541Y-104119819D02*
X168776779Y-104167438D01*
X168776779Y-104167438D02*
X168824398Y-104215057D01*
X168824398Y-104215057D02*
X168872017Y-104310295D01*
X168872017Y-104310295D02*
X168872017Y-104453152D01*
X168872017Y-104453152D02*
X168824398Y-104548390D01*
X168824398Y-104548390D02*
X168776779Y-104596009D01*
X168776779Y-104596009D02*
X168681541Y-104643628D01*
X168681541Y-104643628D02*
X168300589Y-104643628D01*
G36*
X164163541Y-85025268D02*
G01*
X164163541Y-84305057D01*
X164185088Y-84236226D01*
X164247500Y-84214077D01*
X168976041Y-84214077D01*
X169038453Y-84236226D01*
X169060000Y-84305057D01*
X169060000Y-85025268D01*
X169035575Y-85084802D01*
X168976041Y-85109227D01*
X164247500Y-85109227D01*
X164187965Y-85084802D01*
X164163541Y-85025268D01*
G37*
G36*
X166562616Y-82033904D02*
G01*
X164275282Y-80278103D01*
X164191255Y-80174452D01*
X164163541Y-80047294D01*
X164163541Y-79158860D01*
X164194987Y-79099631D01*
X164261238Y-79102990D01*
X166611770Y-80907639D01*
X168961997Y-79110012D01*
X168997242Y-79093220D01*
X169028553Y-79099631D01*
X169060000Y-79158860D01*
X169060000Y-80047294D01*
X169032222Y-80174427D01*
X168947953Y-80278103D01*
X166667641Y-82033904D01*
X166612785Y-82051456D01*
X166562616Y-82033904D01*
G37*
G36*
X164247500Y-83209017D02*
G01*
X164187965Y-83184593D01*
X164163541Y-83125059D01*
X164163541Y-82404848D01*
X164185088Y-82336017D01*
X164247500Y-82313867D01*
X168976041Y-82313867D01*
X169038453Y-82336017D01*
X169060000Y-82404848D01*
X169060000Y-83125059D01*
X169035575Y-83184593D01*
X168976041Y-83209017D01*
X164247500Y-83209017D01*
G37*
G36*
X166900308Y-72512733D02*
G01*
X167223825Y-72574620D01*
X167532871Y-72683372D01*
X167825174Y-72833206D01*
X168089385Y-73013636D01*
X168327882Y-73225591D01*
X168537693Y-73465796D01*
X168716112Y-73731922D01*
X168863995Y-74026402D01*
X168972484Y-74337020D01*
X169037892Y-74661239D01*
X169060000Y-75002152D01*
X169060000Y-76506078D01*
X169035575Y-76565612D01*
X168976041Y-76590036D01*
X164239562Y-76590036D01*
X164180333Y-76565612D01*
X164155603Y-76506078D01*
X164155603Y-74946282D01*
X165034877Y-74946282D01*
X165034877Y-75694886D01*
X168180725Y-75694886D01*
X168180725Y-74946282D01*
X168149578Y-74632661D01*
X168057383Y-74341475D01*
X167910495Y-74075019D01*
X167718801Y-73844747D01*
X167486748Y-73654581D01*
X167218103Y-73508913D01*
X166924239Y-73417413D01*
X166607801Y-73386486D01*
X166291407Y-73417420D01*
X165997805Y-73508913D01*
X165728959Y-73654614D01*
X165497107Y-73844747D01*
X165305237Y-74075053D01*
X165158525Y-74341475D01*
X165066099Y-74632676D01*
X165034877Y-74946282D01*
X164155603Y-74946282D01*
X164177036Y-74614422D01*
X164240281Y-74300696D01*
X164344891Y-74001978D01*
X164487187Y-73718649D01*
X164658511Y-73462987D01*
X164859633Y-73232613D01*
X165088046Y-73028767D01*
X165341912Y-72852942D01*
X165623503Y-72704438D01*
X165920805Y-72593250D01*
X166231496Y-72524435D01*
X166558647Y-72498053D01*
X166900308Y-72512733D01*
G37*
G36*
X164155603Y-71601681D02*
G01*
X164155603Y-68363021D01*
X164186744Y-68303792D01*
X164217699Y-68297382D01*
X164252384Y-68314173D01*
X164924052Y-68831662D01*
X165007354Y-68935237D01*
X165034877Y-69062472D01*
X165034877Y-70790490D01*
X166168164Y-70790490D01*
X166168164Y-69041711D01*
X166189000Y-68978667D01*
X166251207Y-68957752D01*
X166957374Y-68957752D01*
X167025438Y-68979229D01*
X167047438Y-69041711D01*
X167047438Y-70790490D01*
X168180725Y-70790490D01*
X168180725Y-68579787D01*
X168205150Y-68520558D01*
X168263768Y-68496133D01*
X168976957Y-68496133D01*
X169039189Y-68516997D01*
X169060000Y-68579787D01*
X169060000Y-71601681D01*
X169035575Y-71661215D01*
X168976041Y-71685640D01*
X164239562Y-71685640D01*
X164180333Y-71661215D01*
X164155603Y-71601681D01*
G37*
G36*
X168954059Y-67742034D02*
G01*
X166603832Y-65937079D01*
X164253606Y-67742034D01*
X164223958Y-67757667D01*
X164190713Y-67749056D01*
X164155603Y-67692880D01*
X164155603Y-66804752D01*
X164183333Y-66677331D01*
X164267344Y-66573637D01*
X165848206Y-65356697D01*
X164267344Y-64146474D01*
X164183317Y-64042823D01*
X164155603Y-63915664D01*
X164155603Y-63027231D01*
X164164542Y-62991240D01*
X164190713Y-62968002D01*
X164223760Y-62961730D01*
X164253606Y-62978382D01*
X166603832Y-64783032D01*
X168954059Y-62978382D01*
X168989304Y-62961591D01*
X169020615Y-62968002D01*
X169052062Y-63027231D01*
X169052062Y-63915664D01*
X169024348Y-64042823D01*
X168940321Y-64146474D01*
X167359153Y-65356697D01*
X168940321Y-66573637D01*
X169024332Y-66677331D01*
X169052062Y-66804752D01*
X169052062Y-67692880D01*
X169020615Y-67749056D01*
X168989094Y-67757761D01*
X168954059Y-67742034D01*
G37*
G36*
X166562616Y-61243953D02*
G01*
X164275282Y-59488152D01*
X164191255Y-59384501D01*
X164163541Y-59257342D01*
X164163541Y-58368909D01*
X164194987Y-58309680D01*
X164261238Y-58313039D01*
X166611770Y-60117688D01*
X168961997Y-58320061D01*
X168997242Y-58303269D01*
X169028553Y-58309680D01*
X169060000Y-58368909D01*
X169060000Y-59257342D01*
X169032222Y-59384476D01*
X168947953Y-59488152D01*
X166667641Y-61243953D01*
X166612785Y-61261505D01*
X166562616Y-61243953D01*
G37*
G36*
X164247500Y-62419066D02*
G01*
X164187965Y-62394642D01*
X164163541Y-62335108D01*
X164163541Y-61614897D01*
X164185088Y-61546066D01*
X164247500Y-61523916D01*
X168976041Y-61523916D01*
X169038453Y-61546066D01*
X169060000Y-61614897D01*
X169060000Y-62335108D01*
X169035575Y-62394642D01*
X168976041Y-62419066D01*
X164247500Y-62419066D01*
G37*
X155420955Y-47633200D02*
X155563812Y-47680819D01*
X155563812Y-47680819D02*
X155801907Y-47680819D01*
X155801907Y-47680819D02*
X155897145Y-47633200D01*
X155897145Y-47633200D02*
X155944764Y-47585580D01*
X155944764Y-47585580D02*
X155992383Y-47490342D01*
X155992383Y-47490342D02*
X155992383Y-47395104D01*
X155992383Y-47395104D02*
X155944764Y-47299866D01*
X155944764Y-47299866D02*
X155897145Y-47252247D01*
X155897145Y-47252247D02*
X155801907Y-47204628D01*
X155801907Y-47204628D02*
X155611431Y-47157009D01*
X155611431Y-47157009D02*
X155516193Y-47109390D01*
X155516193Y-47109390D02*
X155468574Y-47061771D01*
X155468574Y-47061771D02*
X155420955Y-46966533D01*
X155420955Y-46966533D02*
X155420955Y-46871295D01*
X155420955Y-46871295D02*
X155468574Y-46776057D01*
X155468574Y-46776057D02*
X155516193Y-46728438D01*
X155516193Y-46728438D02*
X155611431Y-46680819D01*
X155611431Y-46680819D02*
X155849526Y-46680819D01*
X155849526Y-46680819D02*
X155992383Y-46728438D01*
X156325717Y-46680819D02*
X156563812Y-47680819D01*
X156563812Y-47680819D02*
X156754288Y-46966533D01*
X156754288Y-46966533D02*
X156944764Y-47680819D01*
X156944764Y-47680819D02*
X157182860Y-46680819D01*
X157468574Y-46680819D02*
X158087621Y-46680819D01*
X158087621Y-46680819D02*
X157754288Y-47061771D01*
X157754288Y-47061771D02*
X157897145Y-47061771D01*
X157897145Y-47061771D02*
X157992383Y-47109390D01*
X157992383Y-47109390D02*
X158040002Y-47157009D01*
X158040002Y-47157009D02*
X158087621Y-47252247D01*
X158087621Y-47252247D02*
X158087621Y-47490342D01*
X158087621Y-47490342D02*
X158040002Y-47585580D01*
X158040002Y-47585580D02*
X157992383Y-47633200D01*
X157992383Y-47633200D02*
X157897145Y-47680819D01*
X157897145Y-47680819D02*
X157611431Y-47680819D01*
X157611431Y-47680819D02*
X157516193Y-47633200D01*
X157516193Y-47633200D02*
X157468574Y-47585580D01*
X136370955Y-47603200D02*
X136513812Y-47650819D01*
X136513812Y-47650819D02*
X136751907Y-47650819D01*
X136751907Y-47650819D02*
X136847145Y-47603200D01*
X136847145Y-47603200D02*
X136894764Y-47555580D01*
X136894764Y-47555580D02*
X136942383Y-47460342D01*
X136942383Y-47460342D02*
X136942383Y-47365104D01*
X136942383Y-47365104D02*
X136894764Y-47269866D01*
X136894764Y-47269866D02*
X136847145Y-47222247D01*
X136847145Y-47222247D02*
X136751907Y-47174628D01*
X136751907Y-47174628D02*
X136561431Y-47127009D01*
X136561431Y-47127009D02*
X136466193Y-47079390D01*
X136466193Y-47079390D02*
X136418574Y-47031771D01*
X136418574Y-47031771D02*
X136370955Y-46936533D01*
X136370955Y-46936533D02*
X136370955Y-46841295D01*
X136370955Y-46841295D02*
X136418574Y-46746057D01*
X136418574Y-46746057D02*
X136466193Y-46698438D01*
X136466193Y-46698438D02*
X136561431Y-46650819D01*
X136561431Y-46650819D02*
X136799526Y-46650819D01*
X136799526Y-46650819D02*
X136942383Y-46698438D01*
X137275717Y-46650819D02*
X137513812Y-47650819D01*
X137513812Y-47650819D02*
X137704288Y-46936533D01*
X137704288Y-46936533D02*
X137894764Y-47650819D01*
X137894764Y-47650819D02*
X138132860Y-46650819D01*
X138466193Y-46746057D02*
X138513812Y-46698438D01*
X138513812Y-46698438D02*
X138609050Y-46650819D01*
X138609050Y-46650819D02*
X138847145Y-46650819D01*
X138847145Y-46650819D02*
X138942383Y-46698438D01*
X138942383Y-46698438D02*
X138990002Y-46746057D01*
X138990002Y-46746057D02*
X139037621Y-46841295D01*
X139037621Y-46841295D02*
X139037621Y-46936533D01*
X139037621Y-46936533D02*
X138990002Y-47079390D01*
X138990002Y-47079390D02*
X138418574Y-47650819D01*
X138418574Y-47650819D02*
X139037621Y-47650819D01*
X155420955Y-85733200D02*
X155563812Y-85780819D01*
X155563812Y-85780819D02*
X155801907Y-85780819D01*
X155801907Y-85780819D02*
X155897145Y-85733200D01*
X155897145Y-85733200D02*
X155944764Y-85685580D01*
X155944764Y-85685580D02*
X155992383Y-85590342D01*
X155992383Y-85590342D02*
X155992383Y-85495104D01*
X155992383Y-85495104D02*
X155944764Y-85399866D01*
X155944764Y-85399866D02*
X155897145Y-85352247D01*
X155897145Y-85352247D02*
X155801907Y-85304628D01*
X155801907Y-85304628D02*
X155611431Y-85257009D01*
X155611431Y-85257009D02*
X155516193Y-85209390D01*
X155516193Y-85209390D02*
X155468574Y-85161771D01*
X155468574Y-85161771D02*
X155420955Y-85066533D01*
X155420955Y-85066533D02*
X155420955Y-84971295D01*
X155420955Y-84971295D02*
X155468574Y-84876057D01*
X155468574Y-84876057D02*
X155516193Y-84828438D01*
X155516193Y-84828438D02*
X155611431Y-84780819D01*
X155611431Y-84780819D02*
X155849526Y-84780819D01*
X155849526Y-84780819D02*
X155992383Y-84828438D01*
X156325717Y-84780819D02*
X156563812Y-85780819D01*
X156563812Y-85780819D02*
X156754288Y-85066533D01*
X156754288Y-85066533D02*
X156944764Y-85780819D01*
X156944764Y-85780819D02*
X157182860Y-84780819D01*
X157611431Y-85780819D02*
X157801907Y-85780819D01*
X157801907Y-85780819D02*
X157897145Y-85733200D01*
X157897145Y-85733200D02*
X157944764Y-85685580D01*
X157944764Y-85685580D02*
X158040002Y-85542723D01*
X158040002Y-85542723D02*
X158087621Y-85352247D01*
X158087621Y-85352247D02*
X158087621Y-84971295D01*
X158087621Y-84971295D02*
X158040002Y-84876057D01*
X158040002Y-84876057D02*
X157992383Y-84828438D01*
X157992383Y-84828438D02*
X157897145Y-84780819D01*
X157897145Y-84780819D02*
X157706669Y-84780819D01*
X157706669Y-84780819D02*
X157611431Y-84828438D01*
X157611431Y-84828438D02*
X157563812Y-84876057D01*
X157563812Y-84876057D02*
X157516193Y-84971295D01*
X157516193Y-84971295D02*
X157516193Y-85209390D01*
X157516193Y-85209390D02*
X157563812Y-85304628D01*
X157563812Y-85304628D02*
X157611431Y-85352247D01*
X157611431Y-85352247D02*
X157706669Y-85399866D01*
X157706669Y-85399866D02*
X157897145Y-85399866D01*
X157897145Y-85399866D02*
X157992383Y-85352247D01*
X157992383Y-85352247D02*
X158040002Y-85304628D01*
X158040002Y-85304628D02*
X158087621Y-85209390D01*
X136410955Y-85743200D02*
X136553812Y-85790819D01*
X136553812Y-85790819D02*
X136791907Y-85790819D01*
X136791907Y-85790819D02*
X136887145Y-85743200D01*
X136887145Y-85743200D02*
X136934764Y-85695580D01*
X136934764Y-85695580D02*
X136982383Y-85600342D01*
X136982383Y-85600342D02*
X136982383Y-85505104D01*
X136982383Y-85505104D02*
X136934764Y-85409866D01*
X136934764Y-85409866D02*
X136887145Y-85362247D01*
X136887145Y-85362247D02*
X136791907Y-85314628D01*
X136791907Y-85314628D02*
X136601431Y-85267009D01*
X136601431Y-85267009D02*
X136506193Y-85219390D01*
X136506193Y-85219390D02*
X136458574Y-85171771D01*
X136458574Y-85171771D02*
X136410955Y-85076533D01*
X136410955Y-85076533D02*
X136410955Y-84981295D01*
X136410955Y-84981295D02*
X136458574Y-84886057D01*
X136458574Y-84886057D02*
X136506193Y-84838438D01*
X136506193Y-84838438D02*
X136601431Y-84790819D01*
X136601431Y-84790819D02*
X136839526Y-84790819D01*
X136839526Y-84790819D02*
X136982383Y-84838438D01*
X137315717Y-84790819D02*
X137553812Y-85790819D01*
X137553812Y-85790819D02*
X137744288Y-85076533D01*
X137744288Y-85076533D02*
X137934764Y-85790819D01*
X137934764Y-85790819D02*
X138172860Y-84790819D01*
X138696669Y-85219390D02*
X138601431Y-85171771D01*
X138601431Y-85171771D02*
X138553812Y-85124152D01*
X138553812Y-85124152D02*
X138506193Y-85028914D01*
X138506193Y-85028914D02*
X138506193Y-84981295D01*
X138506193Y-84981295D02*
X138553812Y-84886057D01*
X138553812Y-84886057D02*
X138601431Y-84838438D01*
X138601431Y-84838438D02*
X138696669Y-84790819D01*
X138696669Y-84790819D02*
X138887145Y-84790819D01*
X138887145Y-84790819D02*
X138982383Y-84838438D01*
X138982383Y-84838438D02*
X139030002Y-84886057D01*
X139030002Y-84886057D02*
X139077621Y-84981295D01*
X139077621Y-84981295D02*
X139077621Y-85028914D01*
X139077621Y-85028914D02*
X139030002Y-85124152D01*
X139030002Y-85124152D02*
X138982383Y-85171771D01*
X138982383Y-85171771D02*
X138887145Y-85219390D01*
X138887145Y-85219390D02*
X138696669Y-85219390D01*
X138696669Y-85219390D02*
X138601431Y-85267009D01*
X138601431Y-85267009D02*
X138553812Y-85314628D01*
X138553812Y-85314628D02*
X138506193Y-85409866D01*
X138506193Y-85409866D02*
X138506193Y-85600342D01*
X138506193Y-85600342D02*
X138553812Y-85695580D01*
X138553812Y-85695580D02*
X138601431Y-85743200D01*
X138601431Y-85743200D02*
X138696669Y-85790819D01*
X138696669Y-85790819D02*
X138887145Y-85790819D01*
X138887145Y-85790819D02*
X138982383Y-85743200D01*
X138982383Y-85743200D02*
X139030002Y-85695580D01*
X139030002Y-85695580D02*
X139077621Y-85600342D01*
X139077621Y-85600342D02*
X139077621Y-85409866D01*
X139077621Y-85409866D02*
X139030002Y-85314628D01*
X139030002Y-85314628D02*
X138982383Y-85267009D01*
X138982383Y-85267009D02*
X138887145Y-85219390D01*
X117350955Y-66683200D02*
X117493812Y-66730819D01*
X117493812Y-66730819D02*
X117731907Y-66730819D01*
X117731907Y-66730819D02*
X117827145Y-66683200D01*
X117827145Y-66683200D02*
X117874764Y-66635580D01*
X117874764Y-66635580D02*
X117922383Y-66540342D01*
X117922383Y-66540342D02*
X117922383Y-66445104D01*
X117922383Y-66445104D02*
X117874764Y-66349866D01*
X117874764Y-66349866D02*
X117827145Y-66302247D01*
X117827145Y-66302247D02*
X117731907Y-66254628D01*
X117731907Y-66254628D02*
X117541431Y-66207009D01*
X117541431Y-66207009D02*
X117446193Y-66159390D01*
X117446193Y-66159390D02*
X117398574Y-66111771D01*
X117398574Y-66111771D02*
X117350955Y-66016533D01*
X117350955Y-66016533D02*
X117350955Y-65921295D01*
X117350955Y-65921295D02*
X117398574Y-65826057D01*
X117398574Y-65826057D02*
X117446193Y-65778438D01*
X117446193Y-65778438D02*
X117541431Y-65730819D01*
X117541431Y-65730819D02*
X117779526Y-65730819D01*
X117779526Y-65730819D02*
X117922383Y-65778438D01*
X118255717Y-65730819D02*
X118493812Y-66730819D01*
X118493812Y-66730819D02*
X118684288Y-66016533D01*
X118684288Y-66016533D02*
X118874764Y-66730819D01*
X118874764Y-66730819D02*
X119112860Y-65730819D01*
X119922383Y-66064152D02*
X119922383Y-66730819D01*
X119684288Y-65683200D02*
X119446193Y-66397485D01*
X119446193Y-66397485D02*
X120065240Y-66397485D01*
X155430955Y-66693200D02*
X155573812Y-66740819D01*
X155573812Y-66740819D02*
X155811907Y-66740819D01*
X155811907Y-66740819D02*
X155907145Y-66693200D01*
X155907145Y-66693200D02*
X155954764Y-66645580D01*
X155954764Y-66645580D02*
X156002383Y-66550342D01*
X156002383Y-66550342D02*
X156002383Y-66455104D01*
X156002383Y-66455104D02*
X155954764Y-66359866D01*
X155954764Y-66359866D02*
X155907145Y-66312247D01*
X155907145Y-66312247D02*
X155811907Y-66264628D01*
X155811907Y-66264628D02*
X155621431Y-66217009D01*
X155621431Y-66217009D02*
X155526193Y-66169390D01*
X155526193Y-66169390D02*
X155478574Y-66121771D01*
X155478574Y-66121771D02*
X155430955Y-66026533D01*
X155430955Y-66026533D02*
X155430955Y-65931295D01*
X155430955Y-65931295D02*
X155478574Y-65836057D01*
X155478574Y-65836057D02*
X155526193Y-65788438D01*
X155526193Y-65788438D02*
X155621431Y-65740819D01*
X155621431Y-65740819D02*
X155859526Y-65740819D01*
X155859526Y-65740819D02*
X156002383Y-65788438D01*
X156335717Y-65740819D02*
X156573812Y-66740819D01*
X156573812Y-66740819D02*
X156764288Y-66026533D01*
X156764288Y-66026533D02*
X156954764Y-66740819D01*
X156954764Y-66740819D02*
X157192860Y-65740819D01*
X158002383Y-65740819D02*
X157811907Y-65740819D01*
X157811907Y-65740819D02*
X157716669Y-65788438D01*
X157716669Y-65788438D02*
X157669050Y-65836057D01*
X157669050Y-65836057D02*
X157573812Y-65978914D01*
X157573812Y-65978914D02*
X157526193Y-66169390D01*
X157526193Y-66169390D02*
X157526193Y-66550342D01*
X157526193Y-66550342D02*
X157573812Y-66645580D01*
X157573812Y-66645580D02*
X157621431Y-66693200D01*
X157621431Y-66693200D02*
X157716669Y-66740819D01*
X157716669Y-66740819D02*
X157907145Y-66740819D01*
X157907145Y-66740819D02*
X158002383Y-66693200D01*
X158002383Y-66693200D02*
X158050002Y-66645580D01*
X158050002Y-66645580D02*
X158097621Y-66550342D01*
X158097621Y-66550342D02*
X158097621Y-66312247D01*
X158097621Y-66312247D02*
X158050002Y-66217009D01*
X158050002Y-66217009D02*
X158002383Y-66169390D01*
X158002383Y-66169390D02*
X157907145Y-66121771D01*
X157907145Y-66121771D02*
X157716669Y-66121771D01*
X157716669Y-66121771D02*
X157621431Y-66169390D01*
X157621431Y-66169390D02*
X157573812Y-66217009D01*
X157573812Y-66217009D02*
X157526193Y-66312247D01*
X136430955Y-66693200D02*
X136573812Y-66740819D01*
X136573812Y-66740819D02*
X136811907Y-66740819D01*
X136811907Y-66740819D02*
X136907145Y-66693200D01*
X136907145Y-66693200D02*
X136954764Y-66645580D01*
X136954764Y-66645580D02*
X137002383Y-66550342D01*
X137002383Y-66550342D02*
X137002383Y-66455104D01*
X137002383Y-66455104D02*
X136954764Y-66359866D01*
X136954764Y-66359866D02*
X136907145Y-66312247D01*
X136907145Y-66312247D02*
X136811907Y-66264628D01*
X136811907Y-66264628D02*
X136621431Y-66217009D01*
X136621431Y-66217009D02*
X136526193Y-66169390D01*
X136526193Y-66169390D02*
X136478574Y-66121771D01*
X136478574Y-66121771D02*
X136430955Y-66026533D01*
X136430955Y-66026533D02*
X136430955Y-65931295D01*
X136430955Y-65931295D02*
X136478574Y-65836057D01*
X136478574Y-65836057D02*
X136526193Y-65788438D01*
X136526193Y-65788438D02*
X136621431Y-65740819D01*
X136621431Y-65740819D02*
X136859526Y-65740819D01*
X136859526Y-65740819D02*
X137002383Y-65788438D01*
X137335717Y-65740819D02*
X137573812Y-66740819D01*
X137573812Y-66740819D02*
X137764288Y-66026533D01*
X137764288Y-66026533D02*
X137954764Y-66740819D01*
X137954764Y-66740819D02*
X138192860Y-65740819D01*
X139050002Y-65740819D02*
X138573812Y-65740819D01*
X138573812Y-65740819D02*
X138526193Y-66217009D01*
X138526193Y-66217009D02*
X138573812Y-66169390D01*
X138573812Y-66169390D02*
X138669050Y-66121771D01*
X138669050Y-66121771D02*
X138907145Y-66121771D01*
X138907145Y-66121771D02*
X139002383Y-66169390D01*
X139002383Y-66169390D02*
X139050002Y-66217009D01*
X139050002Y-66217009D02*
X139097621Y-66312247D01*
X139097621Y-66312247D02*
X139097621Y-66550342D01*
X139097621Y-66550342D02*
X139050002Y-66645580D01*
X139050002Y-66645580D02*
X139002383Y-66693200D01*
X139002383Y-66693200D02*
X138907145Y-66740819D01*
X138907145Y-66740819D02*
X138669050Y-66740819D01*
X138669050Y-66740819D02*
X138573812Y-66693200D01*
X138573812Y-66693200D02*
X138526193Y-66645580D01*
X159414607Y-43323919D02*
X160224130Y-43323919D01*
X160224130Y-43323919D02*
X160319368Y-43276300D01*
X160319368Y-43276300D02*
X160366988Y-43228681D01*
X160366988Y-43228681D02*
X160414607Y-43133443D01*
X160414607Y-43133443D02*
X160414607Y-42942967D01*
X160414607Y-42942967D02*
X160366988Y-42847729D01*
X160366988Y-42847729D02*
X160319368Y-42800110D01*
X160319368Y-42800110D02*
X160224130Y-42752491D01*
X160224130Y-42752491D02*
X159414607Y-42752491D01*
X159509845Y-42323919D02*
X159462226Y-42276300D01*
X159462226Y-42276300D02*
X159414607Y-42181062D01*
X159414607Y-42181062D02*
X159414607Y-41942967D01*
X159414607Y-41942967D02*
X159462226Y-41847729D01*
X159462226Y-41847729D02*
X159509845Y-41800110D01*
X159509845Y-41800110D02*
X159605083Y-41752491D01*
X159605083Y-41752491D02*
X159700321Y-41752491D01*
X159700321Y-41752491D02*
X159843178Y-41800110D01*
X159843178Y-41800110D02*
X160414607Y-42371538D01*
X160414607Y-42371538D02*
X160414607Y-41752491D01*
X117350955Y-47603200D02*
X117493812Y-47650819D01*
X117493812Y-47650819D02*
X117731907Y-47650819D01*
X117731907Y-47650819D02*
X117827145Y-47603200D01*
X117827145Y-47603200D02*
X117874764Y-47555580D01*
X117874764Y-47555580D02*
X117922383Y-47460342D01*
X117922383Y-47460342D02*
X117922383Y-47365104D01*
X117922383Y-47365104D02*
X117874764Y-47269866D01*
X117874764Y-47269866D02*
X117827145Y-47222247D01*
X117827145Y-47222247D02*
X117731907Y-47174628D01*
X117731907Y-47174628D02*
X117541431Y-47127009D01*
X117541431Y-47127009D02*
X117446193Y-47079390D01*
X117446193Y-47079390D02*
X117398574Y-47031771D01*
X117398574Y-47031771D02*
X117350955Y-46936533D01*
X117350955Y-46936533D02*
X117350955Y-46841295D01*
X117350955Y-46841295D02*
X117398574Y-46746057D01*
X117398574Y-46746057D02*
X117446193Y-46698438D01*
X117446193Y-46698438D02*
X117541431Y-46650819D01*
X117541431Y-46650819D02*
X117779526Y-46650819D01*
X117779526Y-46650819D02*
X117922383Y-46698438D01*
X118255717Y-46650819D02*
X118493812Y-47650819D01*
X118493812Y-47650819D02*
X118684288Y-46936533D01*
X118684288Y-46936533D02*
X118874764Y-47650819D01*
X118874764Y-47650819D02*
X119112860Y-46650819D01*
X120017621Y-47650819D02*
X119446193Y-47650819D01*
X119731907Y-47650819D02*
X119731907Y-46650819D01*
X119731907Y-46650819D02*
X119636669Y-46793676D01*
X119636669Y-46793676D02*
X119541431Y-46888914D01*
X119541431Y-46888914D02*
X119446193Y-46936533D01*
X117390955Y-85743200D02*
X117533812Y-85790819D01*
X117533812Y-85790819D02*
X117771907Y-85790819D01*
X117771907Y-85790819D02*
X117867145Y-85743200D01*
X117867145Y-85743200D02*
X117914764Y-85695580D01*
X117914764Y-85695580D02*
X117962383Y-85600342D01*
X117962383Y-85600342D02*
X117962383Y-85505104D01*
X117962383Y-85505104D02*
X117914764Y-85409866D01*
X117914764Y-85409866D02*
X117867145Y-85362247D01*
X117867145Y-85362247D02*
X117771907Y-85314628D01*
X117771907Y-85314628D02*
X117581431Y-85267009D01*
X117581431Y-85267009D02*
X117486193Y-85219390D01*
X117486193Y-85219390D02*
X117438574Y-85171771D01*
X117438574Y-85171771D02*
X117390955Y-85076533D01*
X117390955Y-85076533D02*
X117390955Y-84981295D01*
X117390955Y-84981295D02*
X117438574Y-84886057D01*
X117438574Y-84886057D02*
X117486193Y-84838438D01*
X117486193Y-84838438D02*
X117581431Y-84790819D01*
X117581431Y-84790819D02*
X117819526Y-84790819D01*
X117819526Y-84790819D02*
X117962383Y-84838438D01*
X118295717Y-84790819D02*
X118533812Y-85790819D01*
X118533812Y-85790819D02*
X118724288Y-85076533D01*
X118724288Y-85076533D02*
X118914764Y-85790819D01*
X118914764Y-85790819D02*
X119152860Y-84790819D01*
X119438574Y-84790819D02*
X120105240Y-84790819D01*
X120105240Y-84790819D02*
X119676669Y-85790819D01*
%TO.C,SW3*%
D11*
X149769288Y-48115000D02*
X163739288Y-48115000D01*
X149769288Y-62085000D02*
X149769288Y-48115000D01*
X163739288Y-48115000D02*
X163739288Y-62085000D01*
X163739288Y-62085000D02*
X149769288Y-62085000D01*
%TO.C,SW2*%
X130719288Y-48085000D02*
X144689288Y-48085000D01*
X130719288Y-62055000D02*
X130719288Y-48085000D01*
X144689288Y-48085000D02*
X144689288Y-62055000D01*
X144689288Y-62055000D02*
X130719288Y-62055000D01*
%TO.C,SW9*%
X149769288Y-86215000D02*
X163739288Y-86215000D01*
X149769288Y-100185000D02*
X149769288Y-86215000D01*
X163739288Y-86215000D02*
X163739288Y-100185000D01*
X163739288Y-100185000D02*
X149769288Y-100185000D01*
%TO.C,SW8*%
X130759288Y-86225000D02*
X144729288Y-86225000D01*
X130759288Y-100195000D02*
X130759288Y-86225000D01*
X144729288Y-86225000D02*
X144729288Y-100195000D01*
X144729288Y-100195000D02*
X130759288Y-100195000D01*
%TO.C,SW4*%
X111699288Y-67165000D02*
X125669288Y-67165000D01*
X111699288Y-81135000D02*
X111699288Y-67165000D01*
X125669288Y-67165000D02*
X125669288Y-81135000D01*
X125669288Y-81135000D02*
X111699288Y-81135000D01*
%TO.C,SW6*%
X149779288Y-67175000D02*
X163749288Y-67175000D01*
X149779288Y-81145000D02*
X149779288Y-67175000D01*
X163749288Y-67175000D02*
X163749288Y-81145000D01*
X163749288Y-81145000D02*
X149779288Y-81145000D01*
%TO.C,SW5*%
X130779288Y-67175000D02*
X144749288Y-67175000D01*
X130779288Y-81145000D02*
X130779288Y-67175000D01*
X144749288Y-67175000D02*
X144749288Y-81145000D01*
X144749288Y-81145000D02*
X130779288Y-81145000D01*
%TO.C,U2*%
X119384288Y-44350000D02*
X120764288Y-44350000D01*
X120764288Y-42970000D02*
X120764288Y-44350000D01*
X117884288Y-33160000D02*
X155884288Y-33160000D01*
X155884288Y-45160000D01*
X117884288Y-45160000D01*
X117884288Y-33160000D01*
%TO.C,SW1*%
X111699288Y-48085000D02*
X125669288Y-48085000D01*
X111699288Y-62055000D02*
X111699288Y-48085000D01*
X125669288Y-48085000D02*
X125669288Y-62055000D01*
X125669288Y-62055000D02*
X111699288Y-62055000D01*
%TO.C,SW7*%
X111739288Y-86225000D02*
X125709288Y-86225000D01*
X111739288Y-100195000D02*
X111739288Y-86225000D01*
X125709288Y-86225000D02*
X125709288Y-100195000D01*
X125709288Y-100195000D02*
X111739288Y-100195000D01*
%TD*%
M02*
