%TF.GenerationSoftware,KiCad,Pcbnew,10.0.3*%
%TF.CreationDate,2026-09-09T22:50:22+05:30*%
%TF.ProjectId,IK_DEXK,494b5f44-4558-44b2-9e6b-696361645f70,rev?*%
%TF.SameCoordinates,Original*%
%TF.FileFunction,Soldermask,Top*%
%TF.FilePolarity,Negative*%
%FSLAX46Y46*%
G04 Gerber Fmt 4.6, Leading zero omitted, Abs format (unit mm)*
G04 Created by KiCad (PCBNEW 10.0.3) date 2026-09-09 22:50:22*
%MOMM*%
%LPD*%
G01*
G04 APERTURE LIST*
G04 Aperture macros list*
%AMRoundRect*
0 Rectangle with rounded corners*
0 $1 Rounding radius*
0 $2 $3 $4 $5 $6 $7 $8 $9 X,Y pos of 4 corners*
0 Add a 4 corners polygon primitive as box body*
4,1,4,$2,$3,$4,$5,$6,$7,$8,$9,$2,$3,0*
0 Add four circle primitives for the rounded corners*
1,1,$1+$1,$2,$3*
1,1,$1+$1,$4,$5*
1,1,$1+$1,$6,$7*
1,1,$1+$1,$8,$9*
0 Add four rect primitives between the rounded corners*
20,1,$1+$1,$2,$3,$4,$5,0*
20,1,$1+$1,$4,$5,$6,$7,0*
20,1,$1+$1,$6,$7,$8,$9,0*
20,1,$1+$1,$8,$9,$2,$3,0*%
G04 Aperture macros list end*
%ADD10C,1.700000*%
%ADD11C,4.000000*%
%ADD12C,2.200000*%
%ADD13RoundRect,0.170000X0.680000X-0.680000X0.680000X0.680000X-0.680000X0.680000X-0.680000X-0.680000X0*%
%ADD14R,3.500000X1.700000*%
%ADD15O,3.600000X1.700000*%
%ADD16O,3.700000X1.700000*%
G04 APERTURE END LIST*
D10*
%TO.C,SW3*%
X151674288Y-55100000D03*
D11*
X156754288Y-55100000D03*
D10*
X161834288Y-55100000D03*
D12*
X159294288Y-50020000D03*
X152944288Y-52560000D03*
%TD*%
D10*
%TO.C,SW2*%
X132624288Y-55070000D03*
D11*
X137704288Y-55070000D03*
D10*
X142784288Y-55070000D03*
D12*
X140244288Y-49990000D03*
X133894288Y-52530000D03*
%TD*%
D10*
%TO.C,SW9*%
X151674288Y-93200000D03*
D11*
X156754288Y-93200000D03*
D10*
X161834288Y-93200000D03*
D12*
X159294288Y-88120000D03*
X152944288Y-90660000D03*
%TD*%
D10*
%TO.C,SW8*%
X132664288Y-93210000D03*
D11*
X137744288Y-93210000D03*
D10*
X142824288Y-93210000D03*
D12*
X140284288Y-88130000D03*
X133934288Y-90670000D03*
%TD*%
D10*
%TO.C,SW4*%
X113604288Y-74150000D03*
D11*
X118684288Y-74150000D03*
D10*
X123764288Y-74150000D03*
D12*
X121224288Y-69070000D03*
X114874288Y-71610000D03*
%TD*%
D10*
%TO.C,SW6*%
X151684288Y-74160000D03*
D11*
X156764288Y-74160000D03*
D10*
X161844288Y-74160000D03*
D12*
X159304288Y-69080000D03*
X152954288Y-71620000D03*
%TD*%
D10*
%TO.C,SW5*%
X132684288Y-74160000D03*
D11*
X137764288Y-74160000D03*
D10*
X142844288Y-74160000D03*
D12*
X140304288Y-69080000D03*
X133954288Y-71620000D03*
%TD*%
D13*
%TO.C,U2*%
X119384288Y-42970000D03*
D10*
X119384288Y-40430000D03*
X119384288Y-37890000D03*
X119384288Y-35350000D03*
%TD*%
%TO.C,SW1*%
X113604288Y-55070000D03*
D11*
X118684288Y-55070000D03*
D10*
X123764288Y-55070000D03*
D12*
X121224288Y-49990000D03*
X114874288Y-52530000D03*
%TD*%
D10*
%TO.C,SW7*%
X113644288Y-93210000D03*
D11*
X118724288Y-93210000D03*
D10*
X123804288Y-93210000D03*
D12*
X121264288Y-88130000D03*
X114914288Y-90670000D03*
%TD*%
D14*
%TO.C,U1*%
X146189788Y-34622015D03*
D15*
X146189788Y-37162015D03*
X146189788Y-39702015D03*
X146189788Y-42242015D03*
X146189788Y-44782015D03*
X146189788Y-47322015D03*
X146189788Y-49862015D03*
X128939788Y-49862015D03*
X128939788Y-47322015D03*
X128939788Y-44782015D03*
D16*
X128939788Y-42242015D03*
X128939788Y-39702015D03*
X128939788Y-37162015D03*
X128939788Y-34622015D03*
%TD*%
M02*
