%TF.GenerationSoftware,KiCad,Pcbnew,10.0.3*%
%TF.CreationDate,2026-09-18T20:42:14+05:30*%
%TF.ProjectId,IK_DEXK,494b5f44-4558-44b2-9e6b-696361645f70,rev?*%
%TF.SameCoordinates,Original*%
%TF.FileFunction,Legend,Bot*%
%TF.FilePolarity,Positive*%
%FSLAX46Y46*%
G04 Gerber Fmt 4.6, Leading zero omitted, Abs format (unit mm)*
G04 Created by KiCad (PCBNEW 10.0.3) date 2026-09-18 20:42:14*
%MOMM*%
%LPD*%
G01*
G04 APERTURE LIST*
%ADD10C,0.150000*%
%ADD11C,0.101600*%
%ADD12C,0.120000*%
%ADD13C,0.127000*%
%ADD14C,0.025400*%
G04 APERTURE END LIST*
D10*
X83680517Y-81758201D02*
X82680517Y-81758201D01*
X82680517Y-81758201D02*
X82680517Y-81996296D01*
X82680517Y-81996296D02*
X82728136Y-82139153D01*
X82728136Y-82139153D02*
X82823374Y-82234391D01*
X82823374Y-82234391D02*
X82918612Y-82282010D01*
X82918612Y-82282010D02*
X83109088Y-82329629D01*
X83109088Y-82329629D02*
X83251945Y-82329629D01*
X83251945Y-82329629D02*
X83442421Y-82282010D01*
X83442421Y-82282010D02*
X83537659Y-82234391D01*
X83537659Y-82234391D02*
X83632898Y-82139153D01*
X83632898Y-82139153D02*
X83680517Y-81996296D01*
X83680517Y-81996296D02*
X83680517Y-81758201D01*
X83680517Y-83282010D02*
X83680517Y-82710582D01*
X83680517Y-82996296D02*
X82680517Y-82996296D01*
X82680517Y-82996296D02*
X82823374Y-82901058D01*
X82823374Y-82901058D02*
X82918612Y-82805820D01*
X82918612Y-82805820D02*
X82966231Y-82710582D01*
X82680517Y-84139153D02*
X82680517Y-83948677D01*
X82680517Y-83948677D02*
X82728136Y-83853439D01*
X82728136Y-83853439D02*
X82775755Y-83805820D01*
X82775755Y-83805820D02*
X82918612Y-83710582D01*
X82918612Y-83710582D02*
X83109088Y-83662963D01*
X83109088Y-83662963D02*
X83490040Y-83662963D01*
X83490040Y-83662963D02*
X83585278Y-83710582D01*
X83585278Y-83710582D02*
X83632898Y-83758201D01*
X83632898Y-83758201D02*
X83680517Y-83853439D01*
X83680517Y-83853439D02*
X83680517Y-84043915D01*
X83680517Y-84043915D02*
X83632898Y-84139153D01*
X83632898Y-84139153D02*
X83585278Y-84186772D01*
X83585278Y-84186772D02*
X83490040Y-84234391D01*
X83490040Y-84234391D02*
X83251945Y-84234391D01*
X83251945Y-84234391D02*
X83156707Y-84186772D01*
X83156707Y-84186772D02*
X83109088Y-84139153D01*
X83109088Y-84139153D02*
X83061469Y-84043915D01*
X83061469Y-84043915D02*
X83061469Y-83853439D01*
X83061469Y-83853439D02*
X83109088Y-83758201D01*
X83109088Y-83758201D02*
X83156707Y-83710582D01*
X83156707Y-83710582D02*
X83251945Y-83662963D01*
X84000517Y-78900582D02*
X83000517Y-78900582D01*
X84000517Y-79472010D02*
X83429088Y-79043439D01*
X83000517Y-79472010D02*
X83571945Y-78900582D01*
X45680517Y-26424392D02*
X44680517Y-26424392D01*
X44680517Y-26424392D02*
X44680517Y-26662487D01*
X44680517Y-26662487D02*
X44728136Y-26805344D01*
X44728136Y-26805344D02*
X44823374Y-26900582D01*
X44823374Y-26900582D02*
X44918612Y-26948201D01*
X44918612Y-26948201D02*
X45109088Y-26995820D01*
X45109088Y-26995820D02*
X45251945Y-26995820D01*
X45251945Y-26995820D02*
X45442421Y-26948201D01*
X45442421Y-26948201D02*
X45537659Y-26900582D01*
X45537659Y-26900582D02*
X45632898Y-26805344D01*
X45632898Y-26805344D02*
X45680517Y-26662487D01*
X45680517Y-26662487D02*
X45680517Y-26424392D01*
X44775755Y-27376773D02*
X44728136Y-27424392D01*
X44728136Y-27424392D02*
X44680517Y-27519630D01*
X44680517Y-27519630D02*
X44680517Y-27757725D01*
X44680517Y-27757725D02*
X44728136Y-27852963D01*
X44728136Y-27852963D02*
X44775755Y-27900582D01*
X44775755Y-27900582D02*
X44870993Y-27948201D01*
X44870993Y-27948201D02*
X44966231Y-27948201D01*
X44966231Y-27948201D02*
X45109088Y-27900582D01*
X45109088Y-27900582D02*
X45680517Y-27329154D01*
X45680517Y-27329154D02*
X45680517Y-27948201D01*
X46000517Y-23090582D02*
X45000517Y-23090582D01*
X46000517Y-23662010D02*
X45429088Y-23233439D01*
X45000517Y-23662010D02*
X45571945Y-23090582D01*
X45680517Y-44924392D02*
X44680517Y-44924392D01*
X44680517Y-44924392D02*
X44680517Y-45162487D01*
X44680517Y-45162487D02*
X44728136Y-45305344D01*
X44728136Y-45305344D02*
X44823374Y-45400582D01*
X44823374Y-45400582D02*
X44918612Y-45448201D01*
X44918612Y-45448201D02*
X45109088Y-45495820D01*
X45109088Y-45495820D02*
X45251945Y-45495820D01*
X45251945Y-45495820D02*
X45442421Y-45448201D01*
X45442421Y-45448201D02*
X45537659Y-45400582D01*
X45537659Y-45400582D02*
X45632898Y-45305344D01*
X45632898Y-45305344D02*
X45680517Y-45162487D01*
X45680517Y-45162487D02*
X45680517Y-44924392D01*
X44680517Y-46352963D02*
X44680517Y-46162487D01*
X44680517Y-46162487D02*
X44728136Y-46067249D01*
X44728136Y-46067249D02*
X44775755Y-46019630D01*
X44775755Y-46019630D02*
X44918612Y-45924392D01*
X44918612Y-45924392D02*
X45109088Y-45876773D01*
X45109088Y-45876773D02*
X45490040Y-45876773D01*
X45490040Y-45876773D02*
X45585278Y-45924392D01*
X45585278Y-45924392D02*
X45632898Y-45972011D01*
X45632898Y-45972011D02*
X45680517Y-46067249D01*
X45680517Y-46067249D02*
X45680517Y-46257725D01*
X45680517Y-46257725D02*
X45632898Y-46352963D01*
X45632898Y-46352963D02*
X45585278Y-46400582D01*
X45585278Y-46400582D02*
X45490040Y-46448201D01*
X45490040Y-46448201D02*
X45251945Y-46448201D01*
X45251945Y-46448201D02*
X45156707Y-46400582D01*
X45156707Y-46400582D02*
X45109088Y-46352963D01*
X45109088Y-46352963D02*
X45061469Y-46257725D01*
X45061469Y-46257725D02*
X45061469Y-46067249D01*
X45061469Y-46067249D02*
X45109088Y-45972011D01*
X45109088Y-45972011D02*
X45156707Y-45924392D01*
X45156707Y-45924392D02*
X45251945Y-45876773D01*
X46000517Y-41590582D02*
X45000517Y-41590582D01*
X46000517Y-42162010D02*
X45429088Y-41733439D01*
X45000517Y-42162010D02*
X45571945Y-41590582D01*
X64680517Y-26424392D02*
X63680517Y-26424392D01*
X63680517Y-26424392D02*
X63680517Y-26662487D01*
X63680517Y-26662487D02*
X63728136Y-26805344D01*
X63728136Y-26805344D02*
X63823374Y-26900582D01*
X63823374Y-26900582D02*
X63918612Y-26948201D01*
X63918612Y-26948201D02*
X64109088Y-26995820D01*
X64109088Y-26995820D02*
X64251945Y-26995820D01*
X64251945Y-26995820D02*
X64442421Y-26948201D01*
X64442421Y-26948201D02*
X64537659Y-26900582D01*
X64537659Y-26900582D02*
X64632898Y-26805344D01*
X64632898Y-26805344D02*
X64680517Y-26662487D01*
X64680517Y-26662487D02*
X64680517Y-26424392D01*
X63680517Y-27329154D02*
X63680517Y-27948201D01*
X63680517Y-27948201D02*
X64061469Y-27614868D01*
X64061469Y-27614868D02*
X64061469Y-27757725D01*
X64061469Y-27757725D02*
X64109088Y-27852963D01*
X64109088Y-27852963D02*
X64156707Y-27900582D01*
X64156707Y-27900582D02*
X64251945Y-27948201D01*
X64251945Y-27948201D02*
X64490040Y-27948201D01*
X64490040Y-27948201D02*
X64585278Y-27900582D01*
X64585278Y-27900582D02*
X64632898Y-27852963D01*
X64632898Y-27852963D02*
X64680517Y-27757725D01*
X64680517Y-27757725D02*
X64680517Y-27472011D01*
X64680517Y-27472011D02*
X64632898Y-27376773D01*
X64632898Y-27376773D02*
X64585278Y-27329154D01*
X65000517Y-23090582D02*
X64000517Y-23090582D01*
X65000517Y-23662010D02*
X64429088Y-23233439D01*
X64000517Y-23662010D02*
X64571945Y-23090582D01*
X45680517Y-81758201D02*
X44680517Y-81758201D01*
X44680517Y-81758201D02*
X44680517Y-81996296D01*
X44680517Y-81996296D02*
X44728136Y-82139153D01*
X44728136Y-82139153D02*
X44823374Y-82234391D01*
X44823374Y-82234391D02*
X44918612Y-82282010D01*
X44918612Y-82282010D02*
X45109088Y-82329629D01*
X45109088Y-82329629D02*
X45251945Y-82329629D01*
X45251945Y-82329629D02*
X45442421Y-82282010D01*
X45442421Y-82282010D02*
X45537659Y-82234391D01*
X45537659Y-82234391D02*
X45632898Y-82139153D01*
X45632898Y-82139153D02*
X45680517Y-81996296D01*
X45680517Y-81996296D02*
X45680517Y-81758201D01*
X45680517Y-83282010D02*
X45680517Y-82710582D01*
X45680517Y-82996296D02*
X44680517Y-82996296D01*
X44680517Y-82996296D02*
X44823374Y-82901058D01*
X44823374Y-82901058D02*
X44918612Y-82805820D01*
X44918612Y-82805820D02*
X44966231Y-82710582D01*
X45013850Y-84139153D02*
X45680517Y-84139153D01*
X44632898Y-83901058D02*
X45347183Y-83662963D01*
X45347183Y-83662963D02*
X45347183Y-84282010D01*
X46000517Y-78900582D02*
X45000517Y-78900582D01*
X46000517Y-79472010D02*
X45429088Y-79043439D01*
X45000517Y-79472010D02*
X45571945Y-78900582D01*
X26680517Y-81758201D02*
X25680517Y-81758201D01*
X25680517Y-81758201D02*
X25680517Y-81996296D01*
X25680517Y-81996296D02*
X25728136Y-82139153D01*
X25728136Y-82139153D02*
X25823374Y-82234391D01*
X25823374Y-82234391D02*
X25918612Y-82282010D01*
X25918612Y-82282010D02*
X26109088Y-82329629D01*
X26109088Y-82329629D02*
X26251945Y-82329629D01*
X26251945Y-82329629D02*
X26442421Y-82282010D01*
X26442421Y-82282010D02*
X26537659Y-82234391D01*
X26537659Y-82234391D02*
X26632898Y-82139153D01*
X26632898Y-82139153D02*
X26680517Y-81996296D01*
X26680517Y-81996296D02*
X26680517Y-81758201D01*
X26680517Y-83282010D02*
X26680517Y-82710582D01*
X26680517Y-82996296D02*
X25680517Y-82996296D01*
X25680517Y-82996296D02*
X25823374Y-82901058D01*
X25823374Y-82901058D02*
X25918612Y-82805820D01*
X25918612Y-82805820D02*
X25966231Y-82710582D01*
X25680517Y-83615344D02*
X25680517Y-84234391D01*
X25680517Y-84234391D02*
X26061469Y-83901058D01*
X26061469Y-83901058D02*
X26061469Y-84043915D01*
X26061469Y-84043915D02*
X26109088Y-84139153D01*
X26109088Y-84139153D02*
X26156707Y-84186772D01*
X26156707Y-84186772D02*
X26251945Y-84234391D01*
X26251945Y-84234391D02*
X26490040Y-84234391D01*
X26490040Y-84234391D02*
X26585278Y-84186772D01*
X26585278Y-84186772D02*
X26632898Y-84139153D01*
X26632898Y-84139153D02*
X26680517Y-84043915D01*
X26680517Y-84043915D02*
X26680517Y-83758201D01*
X26680517Y-83758201D02*
X26632898Y-83662963D01*
X26632898Y-83662963D02*
X26585278Y-83615344D01*
X27000517Y-78900582D02*
X26000517Y-78900582D01*
X27000517Y-79472010D02*
X26429088Y-79043439D01*
X26000517Y-79472010D02*
X26571945Y-78900582D01*
X26680517Y-44734392D02*
X25680517Y-44734392D01*
X25680517Y-44734392D02*
X25680517Y-44972487D01*
X25680517Y-44972487D02*
X25728136Y-45115344D01*
X25728136Y-45115344D02*
X25823374Y-45210582D01*
X25823374Y-45210582D02*
X25918612Y-45258201D01*
X25918612Y-45258201D02*
X26109088Y-45305820D01*
X26109088Y-45305820D02*
X26251945Y-45305820D01*
X26251945Y-45305820D02*
X26442421Y-45258201D01*
X26442421Y-45258201D02*
X26537659Y-45210582D01*
X26537659Y-45210582D02*
X26632898Y-45115344D01*
X26632898Y-45115344D02*
X26680517Y-44972487D01*
X26680517Y-44972487D02*
X26680517Y-44734392D01*
X25680517Y-46210582D02*
X25680517Y-45734392D01*
X25680517Y-45734392D02*
X26156707Y-45686773D01*
X26156707Y-45686773D02*
X26109088Y-45734392D01*
X26109088Y-45734392D02*
X26061469Y-45829630D01*
X26061469Y-45829630D02*
X26061469Y-46067725D01*
X26061469Y-46067725D02*
X26109088Y-46162963D01*
X26109088Y-46162963D02*
X26156707Y-46210582D01*
X26156707Y-46210582D02*
X26251945Y-46258201D01*
X26251945Y-46258201D02*
X26490040Y-46258201D01*
X26490040Y-46258201D02*
X26585278Y-46210582D01*
X26585278Y-46210582D02*
X26632898Y-46162963D01*
X26632898Y-46162963D02*
X26680517Y-46067725D01*
X26680517Y-46067725D02*
X26680517Y-45829630D01*
X26680517Y-45829630D02*
X26632898Y-45734392D01*
X26632898Y-45734392D02*
X26585278Y-45686773D01*
X27000517Y-41400582D02*
X26000517Y-41400582D01*
X27000517Y-41972010D02*
X26429088Y-41543439D01*
X26000517Y-41972010D02*
X26571945Y-41400582D01*
X84180517Y-26424392D02*
X83180517Y-26424392D01*
X83180517Y-26424392D02*
X83180517Y-26662487D01*
X83180517Y-26662487D02*
X83228136Y-26805344D01*
X83228136Y-26805344D02*
X83323374Y-26900582D01*
X83323374Y-26900582D02*
X83418612Y-26948201D01*
X83418612Y-26948201D02*
X83609088Y-26995820D01*
X83609088Y-26995820D02*
X83751945Y-26995820D01*
X83751945Y-26995820D02*
X83942421Y-26948201D01*
X83942421Y-26948201D02*
X84037659Y-26900582D01*
X84037659Y-26900582D02*
X84132898Y-26805344D01*
X84132898Y-26805344D02*
X84180517Y-26662487D01*
X84180517Y-26662487D02*
X84180517Y-26424392D01*
X83513850Y-27852963D02*
X84180517Y-27852963D01*
X83132898Y-27614868D02*
X83847183Y-27376773D01*
X83847183Y-27376773D02*
X83847183Y-27995820D01*
X84500517Y-23090582D02*
X83500517Y-23090582D01*
X84500517Y-23662010D02*
X83929088Y-23233439D01*
X83500517Y-23662010D02*
X84071945Y-23090582D01*
X26680517Y-26424392D02*
X25680517Y-26424392D01*
X25680517Y-26424392D02*
X25680517Y-26662487D01*
X25680517Y-26662487D02*
X25728136Y-26805344D01*
X25728136Y-26805344D02*
X25823374Y-26900582D01*
X25823374Y-26900582D02*
X25918612Y-26948201D01*
X25918612Y-26948201D02*
X26109088Y-26995820D01*
X26109088Y-26995820D02*
X26251945Y-26995820D01*
X26251945Y-26995820D02*
X26442421Y-26948201D01*
X26442421Y-26948201D02*
X26537659Y-26900582D01*
X26537659Y-26900582D02*
X26632898Y-26805344D01*
X26632898Y-26805344D02*
X26680517Y-26662487D01*
X26680517Y-26662487D02*
X26680517Y-26424392D01*
X26680517Y-27948201D02*
X26680517Y-27376773D01*
X26680517Y-27662487D02*
X25680517Y-27662487D01*
X25680517Y-27662487D02*
X25823374Y-27567249D01*
X25823374Y-27567249D02*
X25918612Y-27472011D01*
X25918612Y-27472011D02*
X25966231Y-27376773D01*
X27000517Y-23090582D02*
X26000517Y-23090582D01*
X27000517Y-23662010D02*
X26429088Y-23233439D01*
X26000517Y-23662010D02*
X26571945Y-23090582D01*
X64680517Y-44924392D02*
X63680517Y-44924392D01*
X63680517Y-44924392D02*
X63680517Y-45162487D01*
X63680517Y-45162487D02*
X63728136Y-45305344D01*
X63728136Y-45305344D02*
X63823374Y-45400582D01*
X63823374Y-45400582D02*
X63918612Y-45448201D01*
X63918612Y-45448201D02*
X64109088Y-45495820D01*
X64109088Y-45495820D02*
X64251945Y-45495820D01*
X64251945Y-45495820D02*
X64442421Y-45448201D01*
X64442421Y-45448201D02*
X64537659Y-45400582D01*
X64537659Y-45400582D02*
X64632898Y-45305344D01*
X64632898Y-45305344D02*
X64680517Y-45162487D01*
X64680517Y-45162487D02*
X64680517Y-44924392D01*
X63680517Y-45829154D02*
X63680517Y-46495820D01*
X63680517Y-46495820D02*
X64680517Y-46067249D01*
X65000517Y-41590582D02*
X64000517Y-41590582D01*
X65000517Y-42162010D02*
X64429088Y-41733439D01*
X64000517Y-42162010D02*
X64571945Y-41590582D01*
X64680517Y-63448201D02*
X63680517Y-63448201D01*
X63680517Y-63448201D02*
X63680517Y-63686296D01*
X63680517Y-63686296D02*
X63728136Y-63829153D01*
X63728136Y-63829153D02*
X63823374Y-63924391D01*
X63823374Y-63924391D02*
X63918612Y-63972010D01*
X63918612Y-63972010D02*
X64109088Y-64019629D01*
X64109088Y-64019629D02*
X64251945Y-64019629D01*
X64251945Y-64019629D02*
X64442421Y-63972010D01*
X64442421Y-63972010D02*
X64537659Y-63924391D01*
X64537659Y-63924391D02*
X64632898Y-63829153D01*
X64632898Y-63829153D02*
X64680517Y-63686296D01*
X64680517Y-63686296D02*
X64680517Y-63448201D01*
X64680517Y-64972010D02*
X64680517Y-64400582D01*
X64680517Y-64686296D02*
X63680517Y-64686296D01*
X63680517Y-64686296D02*
X63823374Y-64591058D01*
X63823374Y-64591058D02*
X63918612Y-64495820D01*
X63918612Y-64495820D02*
X63966231Y-64400582D01*
X64680517Y-65924391D02*
X64680517Y-65352963D01*
X64680517Y-65638677D02*
X63680517Y-65638677D01*
X63680517Y-65638677D02*
X63823374Y-65543439D01*
X63823374Y-65543439D02*
X63918612Y-65448201D01*
X63918612Y-65448201D02*
X63966231Y-65352963D01*
X65000517Y-60590582D02*
X64000517Y-60590582D01*
X65000517Y-61162010D02*
X64429088Y-60733439D01*
X64000517Y-61162010D02*
X64571945Y-60590582D01*
X26680517Y-63924392D02*
X25680517Y-63924392D01*
X25680517Y-63924392D02*
X25680517Y-64162487D01*
X25680517Y-64162487D02*
X25728136Y-64305344D01*
X25728136Y-64305344D02*
X25823374Y-64400582D01*
X25823374Y-64400582D02*
X25918612Y-64448201D01*
X25918612Y-64448201D02*
X26109088Y-64495820D01*
X26109088Y-64495820D02*
X26251945Y-64495820D01*
X26251945Y-64495820D02*
X26442421Y-64448201D01*
X26442421Y-64448201D02*
X26537659Y-64400582D01*
X26537659Y-64400582D02*
X26632898Y-64305344D01*
X26632898Y-64305344D02*
X26680517Y-64162487D01*
X26680517Y-64162487D02*
X26680517Y-63924392D01*
X26680517Y-64972011D02*
X26680517Y-65162487D01*
X26680517Y-65162487D02*
X26632898Y-65257725D01*
X26632898Y-65257725D02*
X26585278Y-65305344D01*
X26585278Y-65305344D02*
X26442421Y-65400582D01*
X26442421Y-65400582D02*
X26251945Y-65448201D01*
X26251945Y-65448201D02*
X25870993Y-65448201D01*
X25870993Y-65448201D02*
X25775755Y-65400582D01*
X25775755Y-65400582D02*
X25728136Y-65352963D01*
X25728136Y-65352963D02*
X25680517Y-65257725D01*
X25680517Y-65257725D02*
X25680517Y-65067249D01*
X25680517Y-65067249D02*
X25728136Y-64972011D01*
X25728136Y-64972011D02*
X25775755Y-64924392D01*
X25775755Y-64924392D02*
X25870993Y-64876773D01*
X25870993Y-64876773D02*
X26109088Y-64876773D01*
X26109088Y-64876773D02*
X26204326Y-64924392D01*
X26204326Y-64924392D02*
X26251945Y-64972011D01*
X26251945Y-64972011D02*
X26299564Y-65067249D01*
X26299564Y-65067249D02*
X26299564Y-65257725D01*
X26299564Y-65257725D02*
X26251945Y-65352963D01*
X26251945Y-65352963D02*
X26204326Y-65400582D01*
X26204326Y-65400582D02*
X26109088Y-65448201D01*
X27000517Y-60590582D02*
X26000517Y-60590582D01*
X27000517Y-61162010D02*
X26429088Y-60733439D01*
X26000517Y-61162010D02*
X26571945Y-60590582D01*
D11*
X47568031Y-17409472D02*
X47568031Y-18129139D01*
X47568031Y-18129139D02*
X47525698Y-18213805D01*
X47525698Y-18213805D02*
X47483364Y-18256139D01*
X47483364Y-18256139D02*
X47398698Y-18298472D01*
X47398698Y-18298472D02*
X47229364Y-18298472D01*
X47229364Y-18298472D02*
X47144698Y-18256139D01*
X47144698Y-18256139D02*
X47102364Y-18213805D01*
X47102364Y-18213805D02*
X47060031Y-18129139D01*
X47060031Y-18129139D02*
X47060031Y-17409472D01*
X46171031Y-18298472D02*
X46679031Y-18298472D01*
X46425031Y-18298472D02*
X46425031Y-17409472D01*
X46425031Y-17409472D02*
X46509698Y-17536472D01*
X46509698Y-17536472D02*
X46594365Y-17621139D01*
X46594365Y-17621139D02*
X46679031Y-17663472D01*
D10*
X51602602Y-9709687D02*
X51459745Y-9757306D01*
X51459745Y-9757306D02*
X51221650Y-9757306D01*
X51221650Y-9757306D02*
X51126412Y-9709687D01*
X51126412Y-9709687D02*
X51078793Y-9662067D01*
X51078793Y-9662067D02*
X51031174Y-9566829D01*
X51031174Y-9566829D02*
X51031174Y-9471591D01*
X51031174Y-9471591D02*
X51078793Y-9376353D01*
X51078793Y-9376353D02*
X51126412Y-9328734D01*
X51126412Y-9328734D02*
X51221650Y-9281115D01*
X51221650Y-9281115D02*
X51412126Y-9233496D01*
X51412126Y-9233496D02*
X51507364Y-9185877D01*
X51507364Y-9185877D02*
X51554983Y-9138258D01*
X51554983Y-9138258D02*
X51602602Y-9043020D01*
X51602602Y-9043020D02*
X51602602Y-8947782D01*
X51602602Y-8947782D02*
X51554983Y-8852544D01*
X51554983Y-8852544D02*
X51507364Y-8804925D01*
X51507364Y-8804925D02*
X51412126Y-8757306D01*
X51412126Y-8757306D02*
X51174031Y-8757306D01*
X51174031Y-8757306D02*
X51031174Y-8804925D01*
X50221650Y-9709687D02*
X50316888Y-9757306D01*
X50316888Y-9757306D02*
X50507364Y-9757306D01*
X50507364Y-9757306D02*
X50602602Y-9709687D01*
X50602602Y-9709687D02*
X50650221Y-9614448D01*
X50650221Y-9614448D02*
X50650221Y-9233496D01*
X50650221Y-9233496D02*
X50602602Y-9138258D01*
X50602602Y-9138258D02*
X50507364Y-9090639D01*
X50507364Y-9090639D02*
X50316888Y-9090639D01*
X50316888Y-9090639D02*
X50221650Y-9138258D01*
X50221650Y-9138258D02*
X50174031Y-9233496D01*
X50174031Y-9233496D02*
X50174031Y-9328734D01*
X50174031Y-9328734D02*
X50650221Y-9423972D01*
X49364507Y-9709687D02*
X49459745Y-9757306D01*
X49459745Y-9757306D02*
X49650221Y-9757306D01*
X49650221Y-9757306D02*
X49745459Y-9709687D01*
X49745459Y-9709687D02*
X49793078Y-9614448D01*
X49793078Y-9614448D02*
X49793078Y-9233496D01*
X49793078Y-9233496D02*
X49745459Y-9138258D01*
X49745459Y-9138258D02*
X49650221Y-9090639D01*
X49650221Y-9090639D02*
X49459745Y-9090639D01*
X49459745Y-9090639D02*
X49364507Y-9138258D01*
X49364507Y-9138258D02*
X49316888Y-9233496D01*
X49316888Y-9233496D02*
X49316888Y-9328734D01*
X49316888Y-9328734D02*
X49793078Y-9423972D01*
X48507364Y-9709687D02*
X48602602Y-9757306D01*
X48602602Y-9757306D02*
X48793078Y-9757306D01*
X48793078Y-9757306D02*
X48888316Y-9709687D01*
X48888316Y-9709687D02*
X48935935Y-9614448D01*
X48935935Y-9614448D02*
X48935935Y-9233496D01*
X48935935Y-9233496D02*
X48888316Y-9138258D01*
X48888316Y-9138258D02*
X48793078Y-9090639D01*
X48793078Y-9090639D02*
X48602602Y-9090639D01*
X48602602Y-9090639D02*
X48507364Y-9138258D01*
X48507364Y-9138258D02*
X48459745Y-9233496D01*
X48459745Y-9233496D02*
X48459745Y-9328734D01*
X48459745Y-9328734D02*
X48935935Y-9423972D01*
X47602602Y-9757306D02*
X47602602Y-8757306D01*
X47602602Y-9709687D02*
X47697840Y-9757306D01*
X47697840Y-9757306D02*
X47888316Y-9757306D01*
X47888316Y-9757306D02*
X47983554Y-9709687D01*
X47983554Y-9709687D02*
X48031173Y-9662067D01*
X48031173Y-9662067D02*
X48078792Y-9566829D01*
X48078792Y-9566829D02*
X48078792Y-9281115D01*
X48078792Y-9281115D02*
X48031173Y-9185877D01*
X48031173Y-9185877D02*
X47983554Y-9138258D01*
X47983554Y-9138258D02*
X47888316Y-9090639D01*
X47888316Y-9090639D02*
X47697840Y-9090639D01*
X47697840Y-9090639D02*
X47602602Y-9138258D01*
X46412125Y-9709687D02*
X46269268Y-9757306D01*
X46269268Y-9757306D02*
X46031173Y-9757306D01*
X46031173Y-9757306D02*
X45935935Y-9709687D01*
X45935935Y-9709687D02*
X45888316Y-9662067D01*
X45888316Y-9662067D02*
X45840697Y-9566829D01*
X45840697Y-9566829D02*
X45840697Y-9471591D01*
X45840697Y-9471591D02*
X45888316Y-9376353D01*
X45888316Y-9376353D02*
X45935935Y-9328734D01*
X45935935Y-9328734D02*
X46031173Y-9281115D01*
X46031173Y-9281115D02*
X46221649Y-9233496D01*
X46221649Y-9233496D02*
X46316887Y-9185877D01*
X46316887Y-9185877D02*
X46364506Y-9138258D01*
X46364506Y-9138258D02*
X46412125Y-9043020D01*
X46412125Y-9043020D02*
X46412125Y-8947782D01*
X46412125Y-8947782D02*
X46364506Y-8852544D01*
X46364506Y-8852544D02*
X46316887Y-8804925D01*
X46316887Y-8804925D02*
X46221649Y-8757306D01*
X46221649Y-8757306D02*
X45983554Y-8757306D01*
X45983554Y-8757306D02*
X45840697Y-8804925D01*
X45554982Y-9090639D02*
X45174030Y-9090639D01*
X45412125Y-8757306D02*
X45412125Y-9614448D01*
X45412125Y-9614448D02*
X45364506Y-9709687D01*
X45364506Y-9709687D02*
X45269268Y-9757306D01*
X45269268Y-9757306D02*
X45174030Y-9757306D01*
X44412125Y-9090639D02*
X44412125Y-9757306D01*
X44840696Y-9090639D02*
X44840696Y-9614448D01*
X44840696Y-9614448D02*
X44793077Y-9709687D01*
X44793077Y-9709687D02*
X44697839Y-9757306D01*
X44697839Y-9757306D02*
X44554982Y-9757306D01*
X44554982Y-9757306D02*
X44459744Y-9709687D01*
X44459744Y-9709687D02*
X44412125Y-9662067D01*
X43507363Y-9757306D02*
X43507363Y-8757306D01*
X43507363Y-9709687D02*
X43602601Y-9757306D01*
X43602601Y-9757306D02*
X43793077Y-9757306D01*
X43793077Y-9757306D02*
X43888315Y-9709687D01*
X43888315Y-9709687D02*
X43935934Y-9662067D01*
X43935934Y-9662067D02*
X43983553Y-9566829D01*
X43983553Y-9566829D02*
X43983553Y-9281115D01*
X43983553Y-9281115D02*
X43935934Y-9185877D01*
X43935934Y-9185877D02*
X43888315Y-9138258D01*
X43888315Y-9138258D02*
X43793077Y-9090639D01*
X43793077Y-9090639D02*
X43602601Y-9090639D01*
X43602601Y-9090639D02*
X43507363Y-9138258D01*
X43031172Y-9757306D02*
X43031172Y-9090639D01*
X43031172Y-8757306D02*
X43078791Y-8804925D01*
X43078791Y-8804925D02*
X43031172Y-8852544D01*
X43031172Y-8852544D02*
X42983553Y-8804925D01*
X42983553Y-8804925D02*
X43031172Y-8757306D01*
X43031172Y-8757306D02*
X43031172Y-8852544D01*
X42412125Y-9757306D02*
X42507363Y-9709687D01*
X42507363Y-9709687D02*
X42554982Y-9662067D01*
X42554982Y-9662067D02*
X42602601Y-9566829D01*
X42602601Y-9566829D02*
X42602601Y-9281115D01*
X42602601Y-9281115D02*
X42554982Y-9185877D01*
X42554982Y-9185877D02*
X42507363Y-9138258D01*
X42507363Y-9138258D02*
X42412125Y-9090639D01*
X42412125Y-9090639D02*
X42269268Y-9090639D01*
X42269268Y-9090639D02*
X42174030Y-9138258D01*
X42174030Y-9138258D02*
X42126411Y-9185877D01*
X42126411Y-9185877D02*
X42078792Y-9281115D01*
X42078792Y-9281115D02*
X42078792Y-9566829D01*
X42078792Y-9566829D02*
X42126411Y-9662067D01*
X42126411Y-9662067D02*
X42174030Y-9709687D01*
X42174030Y-9709687D02*
X42269268Y-9757306D01*
X42269268Y-9757306D02*
X42412125Y-9757306D01*
X48414506Y-15307306D02*
X47747840Y-16307306D01*
X47747840Y-15307306D02*
X48414506Y-16307306D01*
X47366887Y-16307306D02*
X47366887Y-15307306D01*
X46938316Y-16021591D02*
X46462126Y-16021591D01*
X47033554Y-16307306D02*
X46700221Y-15307306D01*
X46700221Y-15307306D02*
X46366888Y-16307306D01*
X45843078Y-15307306D02*
X45652602Y-15307306D01*
X45652602Y-15307306D02*
X45557364Y-15354925D01*
X45557364Y-15354925D02*
X45462126Y-15450163D01*
X45462126Y-15450163D02*
X45414507Y-15640639D01*
X45414507Y-15640639D02*
X45414507Y-15973972D01*
X45414507Y-15973972D02*
X45462126Y-16164448D01*
X45462126Y-16164448D02*
X45557364Y-16259687D01*
X45557364Y-16259687D02*
X45652602Y-16307306D01*
X45652602Y-16307306D02*
X45843078Y-16307306D01*
X45843078Y-16307306D02*
X45938316Y-16259687D01*
X45938316Y-16259687D02*
X46033554Y-16164448D01*
X46033554Y-16164448D02*
X46081173Y-15973972D01*
X46081173Y-15973972D02*
X46081173Y-15640639D01*
X46081173Y-15640639D02*
X46033554Y-15450163D01*
X46033554Y-15450163D02*
X45938316Y-15354925D01*
X45938316Y-15354925D02*
X45843078Y-15307306D01*
X45680517Y-63448201D02*
X44680517Y-63448201D01*
X44680517Y-63448201D02*
X44680517Y-63686296D01*
X44680517Y-63686296D02*
X44728136Y-63829153D01*
X44728136Y-63829153D02*
X44823374Y-63924391D01*
X44823374Y-63924391D02*
X44918612Y-63972010D01*
X44918612Y-63972010D02*
X45109088Y-64019629D01*
X45109088Y-64019629D02*
X45251945Y-64019629D01*
X45251945Y-64019629D02*
X45442421Y-63972010D01*
X45442421Y-63972010D02*
X45537659Y-63924391D01*
X45537659Y-63924391D02*
X45632898Y-63829153D01*
X45632898Y-63829153D02*
X45680517Y-63686296D01*
X45680517Y-63686296D02*
X45680517Y-63448201D01*
X45680517Y-64972010D02*
X45680517Y-64400582D01*
X45680517Y-64686296D02*
X44680517Y-64686296D01*
X44680517Y-64686296D02*
X44823374Y-64591058D01*
X44823374Y-64591058D02*
X44918612Y-64495820D01*
X44918612Y-64495820D02*
X44966231Y-64400582D01*
X44680517Y-65591058D02*
X44680517Y-65686296D01*
X44680517Y-65686296D02*
X44728136Y-65781534D01*
X44728136Y-65781534D02*
X44775755Y-65829153D01*
X44775755Y-65829153D02*
X44870993Y-65876772D01*
X44870993Y-65876772D02*
X45061469Y-65924391D01*
X45061469Y-65924391D02*
X45299564Y-65924391D01*
X45299564Y-65924391D02*
X45490040Y-65876772D01*
X45490040Y-65876772D02*
X45585278Y-65829153D01*
X45585278Y-65829153D02*
X45632898Y-65781534D01*
X45632898Y-65781534D02*
X45680517Y-65686296D01*
X45680517Y-65686296D02*
X45680517Y-65591058D01*
X45680517Y-65591058D02*
X45632898Y-65495820D01*
X45632898Y-65495820D02*
X45585278Y-65448201D01*
X45585278Y-65448201D02*
X45490040Y-65400582D01*
X45490040Y-65400582D02*
X45299564Y-65352963D01*
X45299564Y-65352963D02*
X45061469Y-65352963D01*
X45061469Y-65352963D02*
X44870993Y-65400582D01*
X44870993Y-65400582D02*
X44775755Y-65448201D01*
X44775755Y-65448201D02*
X44728136Y-65495820D01*
X44728136Y-65495820D02*
X44680517Y-65591058D01*
X46000517Y-60590582D02*
X45000517Y-60590582D01*
X46000517Y-61162010D02*
X45429088Y-60733439D01*
X45000517Y-61162010D02*
X45571945Y-60590582D01*
X84180517Y-44924392D02*
X83180517Y-44924392D01*
X83180517Y-44924392D02*
X83180517Y-45162487D01*
X83180517Y-45162487D02*
X83228136Y-45305344D01*
X83228136Y-45305344D02*
X83323374Y-45400582D01*
X83323374Y-45400582D02*
X83418612Y-45448201D01*
X83418612Y-45448201D02*
X83609088Y-45495820D01*
X83609088Y-45495820D02*
X83751945Y-45495820D01*
X83751945Y-45495820D02*
X83942421Y-45448201D01*
X83942421Y-45448201D02*
X84037659Y-45400582D01*
X84037659Y-45400582D02*
X84132898Y-45305344D01*
X84132898Y-45305344D02*
X84180517Y-45162487D01*
X84180517Y-45162487D02*
X84180517Y-44924392D01*
X83609088Y-46067249D02*
X83561469Y-45972011D01*
X83561469Y-45972011D02*
X83513850Y-45924392D01*
X83513850Y-45924392D02*
X83418612Y-45876773D01*
X83418612Y-45876773D02*
X83370993Y-45876773D01*
X83370993Y-45876773D02*
X83275755Y-45924392D01*
X83275755Y-45924392D02*
X83228136Y-45972011D01*
X83228136Y-45972011D02*
X83180517Y-46067249D01*
X83180517Y-46067249D02*
X83180517Y-46257725D01*
X83180517Y-46257725D02*
X83228136Y-46352963D01*
X83228136Y-46352963D02*
X83275755Y-46400582D01*
X83275755Y-46400582D02*
X83370993Y-46448201D01*
X83370993Y-46448201D02*
X83418612Y-46448201D01*
X83418612Y-46448201D02*
X83513850Y-46400582D01*
X83513850Y-46400582D02*
X83561469Y-46352963D01*
X83561469Y-46352963D02*
X83609088Y-46257725D01*
X83609088Y-46257725D02*
X83609088Y-46067249D01*
X83609088Y-46067249D02*
X83656707Y-45972011D01*
X83656707Y-45972011D02*
X83704326Y-45924392D01*
X83704326Y-45924392D02*
X83799564Y-45876773D01*
X83799564Y-45876773D02*
X83990040Y-45876773D01*
X83990040Y-45876773D02*
X84085278Y-45924392D01*
X84085278Y-45924392D02*
X84132898Y-45972011D01*
X84132898Y-45972011D02*
X84180517Y-46067249D01*
X84180517Y-46067249D02*
X84180517Y-46257725D01*
X84180517Y-46257725D02*
X84132898Y-46352963D01*
X84132898Y-46352963D02*
X84085278Y-46400582D01*
X84085278Y-46400582D02*
X83990040Y-46448201D01*
X83990040Y-46448201D02*
X83799564Y-46448201D01*
X83799564Y-46448201D02*
X83704326Y-46400582D01*
X83704326Y-46400582D02*
X83656707Y-46352963D01*
X83656707Y-46352963D02*
X83609088Y-46257725D01*
X84500517Y-41590582D02*
X83500517Y-41590582D01*
X84500517Y-42162010D02*
X83929088Y-41733439D01*
X83500517Y-42162010D02*
X84071945Y-41590582D01*
X64680517Y-81758201D02*
X63680517Y-81758201D01*
X63680517Y-81758201D02*
X63680517Y-81996296D01*
X63680517Y-81996296D02*
X63728136Y-82139153D01*
X63728136Y-82139153D02*
X63823374Y-82234391D01*
X63823374Y-82234391D02*
X63918612Y-82282010D01*
X63918612Y-82282010D02*
X64109088Y-82329629D01*
X64109088Y-82329629D02*
X64251945Y-82329629D01*
X64251945Y-82329629D02*
X64442421Y-82282010D01*
X64442421Y-82282010D02*
X64537659Y-82234391D01*
X64537659Y-82234391D02*
X64632898Y-82139153D01*
X64632898Y-82139153D02*
X64680517Y-81996296D01*
X64680517Y-81996296D02*
X64680517Y-81758201D01*
X64680517Y-83282010D02*
X64680517Y-82710582D01*
X64680517Y-82996296D02*
X63680517Y-82996296D01*
X63680517Y-82996296D02*
X63823374Y-82901058D01*
X63823374Y-82901058D02*
X63918612Y-82805820D01*
X63918612Y-82805820D02*
X63966231Y-82710582D01*
X63680517Y-84186772D02*
X63680517Y-83710582D01*
X63680517Y-83710582D02*
X64156707Y-83662963D01*
X64156707Y-83662963D02*
X64109088Y-83710582D01*
X64109088Y-83710582D02*
X64061469Y-83805820D01*
X64061469Y-83805820D02*
X64061469Y-84043915D01*
X64061469Y-84043915D02*
X64109088Y-84139153D01*
X64109088Y-84139153D02*
X64156707Y-84186772D01*
X64156707Y-84186772D02*
X64251945Y-84234391D01*
X64251945Y-84234391D02*
X64490040Y-84234391D01*
X64490040Y-84234391D02*
X64585278Y-84186772D01*
X64585278Y-84186772D02*
X64632898Y-84139153D01*
X64632898Y-84139153D02*
X64680517Y-84043915D01*
X64680517Y-84043915D02*
X64680517Y-83805820D01*
X64680517Y-83805820D02*
X64632898Y-83710582D01*
X64632898Y-83710582D02*
X64585278Y-83662963D01*
X65000517Y-78900582D02*
X64000517Y-78900582D01*
X65000517Y-79472010D02*
X64429088Y-79043439D01*
X64000517Y-79472010D02*
X64571945Y-78900582D01*
X83680517Y-63448201D02*
X82680517Y-63448201D01*
X82680517Y-63448201D02*
X82680517Y-63686296D01*
X82680517Y-63686296D02*
X82728136Y-63829153D01*
X82728136Y-63829153D02*
X82823374Y-63924391D01*
X82823374Y-63924391D02*
X82918612Y-63972010D01*
X82918612Y-63972010D02*
X83109088Y-64019629D01*
X83109088Y-64019629D02*
X83251945Y-64019629D01*
X83251945Y-64019629D02*
X83442421Y-63972010D01*
X83442421Y-63972010D02*
X83537659Y-63924391D01*
X83537659Y-63924391D02*
X83632898Y-63829153D01*
X83632898Y-63829153D02*
X83680517Y-63686296D01*
X83680517Y-63686296D02*
X83680517Y-63448201D01*
X83680517Y-64972010D02*
X83680517Y-64400582D01*
X83680517Y-64686296D02*
X82680517Y-64686296D01*
X82680517Y-64686296D02*
X82823374Y-64591058D01*
X82823374Y-64591058D02*
X82918612Y-64495820D01*
X82918612Y-64495820D02*
X82966231Y-64400582D01*
X82775755Y-65352963D02*
X82728136Y-65400582D01*
X82728136Y-65400582D02*
X82680517Y-65495820D01*
X82680517Y-65495820D02*
X82680517Y-65733915D01*
X82680517Y-65733915D02*
X82728136Y-65829153D01*
X82728136Y-65829153D02*
X82775755Y-65876772D01*
X82775755Y-65876772D02*
X82870993Y-65924391D01*
X82870993Y-65924391D02*
X82966231Y-65924391D01*
X82966231Y-65924391D02*
X83109088Y-65876772D01*
X83109088Y-65876772D02*
X83680517Y-65305344D01*
X83680517Y-65305344D02*
X83680517Y-65924391D01*
X84000517Y-60590582D02*
X83000517Y-60590582D01*
X84000517Y-61162010D02*
X83429088Y-60733439D01*
X83000517Y-61162010D02*
X83571945Y-60590582D01*
%TO.C,D16*%
D12*
X84225698Y-81452487D02*
X86465698Y-81452487D01*
X84225698Y-81572487D02*
X86465698Y-81572487D01*
X84225698Y-81692487D02*
X86465698Y-81692487D01*
X85345698Y-80202487D02*
X85345698Y-80852487D01*
X85345698Y-85742487D02*
X85345698Y-85092487D01*
X84225698Y-80852487D02*
X86465698Y-80852487D01*
X86465698Y-85092487D01*
X84225698Y-85092487D01*
X84225698Y-80852487D01*
%TO.C,D2*%
X46225698Y-25642487D02*
X48465698Y-25642487D01*
X46225698Y-25762487D02*
X48465698Y-25762487D01*
X46225698Y-25882487D02*
X48465698Y-25882487D01*
X47345698Y-24392487D02*
X47345698Y-25042487D01*
X47345698Y-29932487D02*
X47345698Y-29282487D01*
X46225698Y-25042487D02*
X48465698Y-25042487D01*
X48465698Y-29282487D01*
X46225698Y-29282487D01*
X46225698Y-25042487D01*
%TO.C,D6*%
X46225698Y-44142487D02*
X48465698Y-44142487D01*
X46225698Y-44262487D02*
X48465698Y-44262487D01*
X46225698Y-44382487D02*
X48465698Y-44382487D01*
X47345698Y-42892487D02*
X47345698Y-43542487D01*
X47345698Y-48432487D02*
X47345698Y-47782487D01*
X46225698Y-43542487D02*
X48465698Y-43542487D01*
X48465698Y-47782487D01*
X46225698Y-47782487D01*
X46225698Y-43542487D01*
%TO.C,D3*%
X65225698Y-25642487D02*
X67465698Y-25642487D01*
X65225698Y-25762487D02*
X67465698Y-25762487D01*
X65225698Y-25882487D02*
X67465698Y-25882487D01*
X66345698Y-24392487D02*
X66345698Y-25042487D01*
X66345698Y-29932487D02*
X66345698Y-29282487D01*
X65225698Y-25042487D02*
X67465698Y-25042487D01*
X67465698Y-29282487D01*
X65225698Y-29282487D01*
X65225698Y-25042487D01*
%TO.C,D14*%
X46225698Y-81452487D02*
X48465698Y-81452487D01*
X46225698Y-81572487D02*
X48465698Y-81572487D01*
X46225698Y-81692487D02*
X48465698Y-81692487D01*
X47345698Y-80202487D02*
X47345698Y-80852487D01*
X47345698Y-85742487D02*
X47345698Y-85092487D01*
X46225698Y-80852487D02*
X48465698Y-80852487D01*
X48465698Y-85092487D01*
X46225698Y-85092487D01*
X46225698Y-80852487D01*
%TO.C,D13*%
X27225698Y-81452487D02*
X29465698Y-81452487D01*
X27225698Y-81572487D02*
X29465698Y-81572487D01*
X27225698Y-81692487D02*
X29465698Y-81692487D01*
X28345698Y-80202487D02*
X28345698Y-80852487D01*
X28345698Y-85742487D02*
X28345698Y-85092487D01*
X27225698Y-80852487D02*
X29465698Y-80852487D01*
X29465698Y-85092487D01*
X27225698Y-85092487D01*
X27225698Y-80852487D01*
%TO.C,D5*%
X27225698Y-43952487D02*
X29465698Y-43952487D01*
X27225698Y-44072487D02*
X29465698Y-44072487D01*
X27225698Y-44192487D02*
X29465698Y-44192487D01*
X28345698Y-42702487D02*
X28345698Y-43352487D01*
X28345698Y-48242487D02*
X28345698Y-47592487D01*
X27225698Y-43352487D02*
X29465698Y-43352487D01*
X29465698Y-47592487D01*
X27225698Y-47592487D01*
X27225698Y-43352487D01*
%TO.C,D4*%
X84725698Y-25642487D02*
X86965698Y-25642487D01*
X84725698Y-25762487D02*
X86965698Y-25762487D01*
X84725698Y-25882487D02*
X86965698Y-25882487D01*
X85845698Y-24392487D02*
X85845698Y-25042487D01*
X85845698Y-29932487D02*
X85845698Y-29282487D01*
X84725698Y-25042487D02*
X86965698Y-25042487D01*
X86965698Y-29282487D01*
X84725698Y-29282487D01*
X84725698Y-25042487D01*
%TO.C,D1*%
X27225698Y-25642487D02*
X29465698Y-25642487D01*
X27225698Y-25762487D02*
X29465698Y-25762487D01*
X27225698Y-25882487D02*
X29465698Y-25882487D01*
X28345698Y-24392487D02*
X28345698Y-25042487D01*
X28345698Y-29932487D02*
X28345698Y-29282487D01*
X27225698Y-25042487D02*
X29465698Y-25042487D01*
X29465698Y-29282487D01*
X27225698Y-29282487D01*
X27225698Y-25042487D01*
%TO.C,D7*%
X65225698Y-44142487D02*
X67465698Y-44142487D01*
X65225698Y-44262487D02*
X67465698Y-44262487D01*
X65225698Y-44382487D02*
X67465698Y-44382487D01*
X66345698Y-42892487D02*
X66345698Y-43542487D01*
X66345698Y-48432487D02*
X66345698Y-47782487D01*
X65225698Y-43542487D02*
X67465698Y-43542487D01*
X67465698Y-47782487D01*
X65225698Y-47782487D01*
X65225698Y-43542487D01*
%TO.C,D11*%
X65225698Y-63142487D02*
X67465698Y-63142487D01*
X65225698Y-63262487D02*
X67465698Y-63262487D01*
X65225698Y-63382487D02*
X67465698Y-63382487D01*
X66345698Y-61892487D02*
X66345698Y-62542487D01*
X66345698Y-67432487D02*
X66345698Y-66782487D01*
X65225698Y-62542487D02*
X67465698Y-62542487D01*
X67465698Y-66782487D01*
X65225698Y-66782487D01*
X65225698Y-62542487D01*
%TO.C,D9*%
X27225698Y-63142487D02*
X29465698Y-63142487D01*
X27225698Y-63262487D02*
X29465698Y-63262487D01*
X27225698Y-63382487D02*
X29465698Y-63382487D01*
X28345698Y-61892487D02*
X28345698Y-62542487D01*
X28345698Y-67432487D02*
X28345698Y-66782487D01*
X27225698Y-62542487D02*
X29465698Y-62542487D01*
X29465698Y-66782487D01*
X27225698Y-66782487D01*
X27225698Y-62542487D01*
%TO.C,U1*%
D13*
X37940698Y-19302487D02*
X37940698Y-2302487D01*
X39940698Y-303397D02*
X53740698Y-303397D01*
X53740698Y-21302487D02*
X39940698Y-21302487D01*
X55740698Y-2302487D02*
X55740698Y-19302487D01*
D12*
X37940698Y-2302487D02*
G75*
G02*
X39940698Y-302487I2044600J-44600D01*
G01*
X39940698Y-21302487D02*
G75*
G02*
X37940698Y-19302487I0J2000000D01*
G01*
X53740698Y-302487D02*
G75*
G02*
X55740698Y-2302487I-44612J-2044612D01*
G01*
X55740698Y-19302487D02*
G75*
G02*
X53740698Y-21302487I-2044857J44857D01*
G01*
D14*
X55728413Y-2240782D02*
X55725365Y-2192014D01*
X55721301Y-2142993D01*
X55728413Y-2240782D01*
X37951206Y-19324061D02*
X37952985Y-19373337D01*
X37956033Y-19422105D01*
X37960097Y-19471126D01*
X37965430Y-19519894D01*
X37972034Y-19568662D01*
X37979654Y-19617177D01*
X37988545Y-19665437D01*
X37998450Y-19713442D01*
X37951206Y-19324061D01*
%TO.C,D10*%
D12*
X46225698Y-63142487D02*
X48465698Y-63142487D01*
X46225698Y-63262487D02*
X48465698Y-63262487D01*
X46225698Y-63382487D02*
X48465698Y-63382487D01*
X47345698Y-61892487D02*
X47345698Y-62542487D01*
X47345698Y-67432487D02*
X47345698Y-66782487D01*
X46225698Y-62542487D02*
X48465698Y-62542487D01*
X48465698Y-66782487D01*
X46225698Y-66782487D01*
X46225698Y-62542487D01*
%TO.C,D8*%
X84725698Y-44142487D02*
X86965698Y-44142487D01*
X84725698Y-44262487D02*
X86965698Y-44262487D01*
X84725698Y-44382487D02*
X86965698Y-44382487D01*
X85845698Y-42892487D02*
X85845698Y-43542487D01*
X85845698Y-48432487D02*
X85845698Y-47782487D01*
X84725698Y-43542487D02*
X86965698Y-43542487D01*
X86965698Y-47782487D01*
X84725698Y-47782487D01*
X84725698Y-43542487D01*
%TO.C,D15*%
X65225698Y-81452487D02*
X67465698Y-81452487D01*
X65225698Y-81572487D02*
X67465698Y-81572487D01*
X65225698Y-81692487D02*
X67465698Y-81692487D01*
X66345698Y-80202487D02*
X66345698Y-80852487D01*
X66345698Y-85742487D02*
X66345698Y-85092487D01*
X65225698Y-80852487D02*
X67465698Y-80852487D01*
X67465698Y-85092487D01*
X65225698Y-85092487D01*
X65225698Y-80852487D01*
%TO.C,D12*%
X84225698Y-63142487D02*
X86465698Y-63142487D01*
X84225698Y-63262487D02*
X86465698Y-63262487D01*
X84225698Y-63382487D02*
X86465698Y-63382487D01*
X85345698Y-61892487D02*
X85345698Y-62542487D01*
X85345698Y-67432487D02*
X85345698Y-66782487D01*
X84225698Y-62542487D02*
X86465698Y-62542487D01*
X86465698Y-66782487D01*
X84225698Y-66782487D01*
X84225698Y-62542487D01*
%TD*%
M02*
